<svg xmlns="http://www.w3.org/2000/svg" width="256" height="256"><path fill="#1976D2" fill-opacity=".016" fill-rule="evenodd" d="M0 128.004v128.004l128.25-.254 128.25-.254.254-127.75L257.008 0H0zm.485.496c0 70.4.119 99.053.265 63.672s.146-92.98 0-128S.485 58.1.485 128.5"/><path fill="#1976D2" fill-opacity=".036" fill-rule="evenodd" d="M141.25 6.706c-1.899.365-2.255 1.086-2.282 4.614-.028 3.7-1.703 7.68-3.233 7.68-.3 0-1.747-2.051-3.216-4.558l-2.671-4.558-5.968.296c-5.718.283-5.955.4-5.673 2.808.161 1.381.828 2.409 1.482 2.282 1.45-.28 2.846 3.641 1.66 4.665-2.162 1.869-10.457 3.959-16.349 4.119-8.265.224-9 .144-9-.976 0-1.891 7.053-3.268 13.127-2.563 5.931.688 6.029.659 5.704-1.657-.182-1.297-.853-2.912-1.492-3.59-.638-.678-1.341-1.775-1.562-2.437-.242-.726-1.614.063-3.448 1.982-1.675 1.753-3.311 3.187-3.636 3.187-.324 0-1.737-1.063-3.138-2.362-3.3-3.057-7.089-2.44-9.119 1.486-.818 1.582-1.926 2.932-2.462 3.001a98 98 0 0 1-2.224.25c-.687.069-1.25.665-1.25 1.325s-.561 1.761-1.246 2.446c-.995.995-1.522.87-2.612-.621C80.811 21.021 78 20.681 78 22.963c0 1.186-1.01 1.989-3 2.387-2.107.421-3 1.182-3 2.558 0 2.306-3.522 3.733-5.39 2.183-1.566-1.299-2.61-.434-2.61 2.163 0 1.215 1.101 2.335 3 3.052 1.65.623 3 1.528 3 2.012s-2.138 2.911-4.75 5.393-4.642 4.899-4.51 5.371-.713 1.368-1.877 1.991c-1.635.875-2.301.836-2.924-.172-.444-.718-.585-1.664-.314-2.103s.043-.798-.507-.798c-1.868 0-2.407 2.259-.758 3.181 2.421 1.355 1.993 4.541-.86 6.411-1.375.901-2.5 2.245-2.5 2.988s-.9 1.831-2 2.42-2 1.714-2 2.5-.909 1.916-2.021 2.511c-5.129 2.745-5.495-3.715-.479-8.446 3.977-3.751 4.356-5.55 1.54-7.308-2.644-1.651-5.04-.562-5.04 2.291 0 3.024-1.557 3.909-6.275 3.568-7.734-.558-11.732 5.84-9.911 15.86.856 4.71.766 5.047-1.887 7.08-3.289 2.521-4.394 4.877-2.96 6.311 2.179 2.179 1.108 4.528-2.36 5.179-3.429.643-3.533.812-5.175 8.4-.172.795.08 2.145.561 3 .665 1.183.115 1.913-2.304 3.06-2.386 1.132-3.72 2.873-5.362 7-1.202 3.022-2.892 5.639-3.756 5.817C.34 119.077 0 120.536 0 125.573c0 5.452.266 6.428 1.75 6.434.962.004 2.86 1.636 4.216 3.627 1.357 1.992 3.616 4.021 5.021 4.511 4.219 1.471 5.477 4.449 3.69 8.738-.829 1.99-1.743 4.37-2.031 5.289-.329 1.051-1.218 1.491-2.392 1.184-1.356-.355-2.374.451-3.716 2.943-1.817 3.375-1.812 3.503.307 7.882 1.185 2.448 2.156 4.871 2.158 5.385s1.577 4.058 3.5 7.877S16 186.904 16 187.538c0 .633.9 1.967 2 2.962s2 2.578 2 3.517c0 1.724 4.089 7.706 7.922 11.588 1.143 1.158 2.078 2.492 2.078 2.965C30 211.462 59.249 237 62.561 237c.707 0 2.558 1.057 4.112 2.348s4.177 2.676 5.827 3.078 3.791 1.442 4.757 2.313c2.657 2.395 12.435 2.029 16.793-.629 3.561-2.17 10.545-2.734 14.45-1.166 1.441.578.045 1.015-5 1.564-3.85.418-7.675.855-8.5.971-2.289.321-2.295 2.866-.01 4.287 1.119.697 5.292 1.95 9.273 2.786 3.98.835 7.387 1.953 7.57 2.483.184.531 3.671.965 7.75.965 5.926 0 7.417-.301 7.417-1.5 0-1.689 1.65-2.051 2.175-.476.187.563 2.137 1.246 4.333 1.518 2.549.316 3.319.198 2.129-.326-2.936-1.294 4.276-3.046 14.666-3.563 6.742-.336 9.283-.873 10.855-2.296 1.128-1.021 2.117-1.687 2.197-1.479.463 1.208 11.126-1.402 13.437-3.288 1.489-1.216 4.6-2.758 6.913-3.427s4.869-1.879 5.679-2.69 2.21-1.473 3.11-1.473c1.763 0 5.22-1.642 7.173-3.408.664-.601 2.869-2.442 4.9-4.092C215.242 220.826 226 209.658 226 207.252c0-.528 1.101-2.263 2.447-3.856l4.985-5.896c5.872-6.944 8.568-10.879 8.568-12.503 0-.95.935-2.915 2.077-4.367 1.212-1.542 2.435-5.177 2.938-8.739.474-3.354 1.544-6.851 2.376-7.771.833-.92 1.784-3.685 2.114-6.146 1.277-9.525 1.616-10.952 2.912-12.248.924-.924 1.486-5.349 1.816-14.282.262-7.119.292-10.777.067-8.129-.512 6.021-1.77 5.755-6.007-1.268-3.196-5.297-3.202-5.328-1.504-8.931 2.252-4.78 2.395-17.759.211-19.138-3.74-2.362-6.986.636-3.963 3.659.707.707.715 1.884.025 3.7-.782 2.058-1.687 2.663-3.978 2.663-3.562 0-4.55 1.261-3.104 3.962.864 1.615.559 2.777-1.576 6.004-3.003 4.538-4.745 4.406-3.886-.294.362-1.981-.189-5.389-1.469-9.079-1.127-3.248-2.049-6.993-2.049-8.321s-.695-3.11-1.545-3.959c-.849-.85-1.374-2.055-1.167-2.679.544-1.634 4.712-1.631 4.712.003 0 .749.9 1.363 2 1.363 2.385 0 2.504-.836.52-3.668-1.335-1.907-1.282-2.365.551-4.695l2.032-2.583-3.947-2.777c-3.165-2.227-3.93-3.371-3.859-5.777.049-1.65-.257-4.176-.679-5.614-.638-2.177-.404-2.709 1.402-3.181 1.875-.49 2.073-1.017 1.459-3.886-.924-4.319-2.346-5.996-4.502-5.312-1.055.335-1.981-.075-2.352-1.041-.425-1.109-1.602-1.498-3.868-1.28-2.724.263-3.257.723-3.257 2.814 0 2.027.473 2.481 2.5 2.397 1.375-.057 3.175-.282 4-.5 1.015-.269 1.601.478 1.812 2.307.309 2.674.258 2.698-4.5 2.134-2.647-.314-5.418-1.059-6.159-1.657-1.009-.814-1.585-.66-2.299.616-1.463 2.614-4.71 2.123-5.45-.823-.349-1.39-1.482-2.981-2.519-3.536-1.054-.564-1.885-2.081-1.885-3.442 0-1.672-.437-2.266-1.396-1.897-1.646.631-4.964-3.639-3.762-4.841 1.281-1.281 3.605.035 5.386 3.05.892 1.51 2.465 3.509 3.495 4.442 1.762 1.594 2.093 1.593 5.543-.027 4.1-1.926 4.735-4.117 1.734-5.991-2.351-1.468-2.646-4.77-.5-5.594.825-.316 1.5-1.006 1.5-1.533 0-1.5-3.338-1.88-5-.57-.825.65-2.961 1.672-4.747 2.27l-3.246 1.089-.64-4.002c-.513-3.205-.961-3.856-2.254-3.274-2.197.991-9.806 1.023-10.784.045-.435-.436-.059-2.069.837-3.63 1.98-3.449.915-4.845-3.23-4.237-2.302.338-3.494 1.377-5.029 4.387-2.141 4.196-5.643 5.066-5.153 1.279 1.324-10.222 1.298-11.09-.445-14.462-1.563-3.023-2.27-3.479-5.192-3.344-1.86.085-3.66.601-4 1.146-.339.546-1.585 1.151-2.768 1.345-2.789.458-7.377-4.325-6.685-6.969.74-2.831-7.473-4.809-14.414-3.472m3.21 4.359c-.362.586-.362 2.645 0 4.576.415 2.208.207 4.055-.558 4.977-1.629 1.962.208 3.799 2.934 2.934 1.617-.513 2.026-1.473 1.982-4.647-.03-2.201.224-4.281.566-4.622.687-.687-2.235-4.283-3.48-4.283-.432 0-1.082.479-1.444 1.065m-61.772 3.581c-.379.378-.688 2.219-.688 4.092 0 2.93.197 3.208 1.41 1.995 1.773-1.773 2.439-5.928 1.028-6.411-.585-.2-1.372-.054-1.75.324M77 31.463c-2.196 1.223-2.287 1.475-.75 2.072 2.338.907 4.75-.11 4.75-2.004 0-1.863-.753-1.876-4-.068m-24.974 7.489C51.423 40.078 50.27 41 49.465 41c-2.166 0-1.873 4.66.329 5.236 1.346.352 1.847-.167 2.005-2.077.395-4.776 3.97-4.978 6.272-.354l1.341 2.695.374-2.885c.402-3.111-1.006-5.017-4.475-6.056-1.606-.481-2.481-.11-3.285 1.393M122 40.097c-1.925.435-7.768 1.309-12.983 1.942s-10.753 1.807-12.304 2.609c-1.551.803-5.035 1.721-7.743 2.042-3.648.432-5.078 1.076-5.526 2.488-.34 1.068-1.876 2.158-3.502 2.484-1.593.318-3.412 1.2-4.042 1.959-.63.758-1.725 1.379-2.434 1.379-.708 0-2.376 1.293-3.706 2.873-1.329 1.58-3.379 3.388-4.555 4.017-1.197.641-2.593 2.838-3.174 4.996-.753 2.796-2.134 4.578-5.034 6.498C54.564 74.993 53 76.806 53 78.014c0 2.373 2.51 2.619 4.67.459 1.701-1.701 8.043-1.129 9.85.888.561.627 2.089 1.746 3.396 2.489 2.193 1.246 2.564 1.111 4.803-1.75 2.055-2.626 3.096-3.1 6.806-3.1 7.475 0 11.142 2.829 8.683 6.697-.452.711-1.303.863-2.095.373-1.485-.918-5.113-.262-5.113.924 0 .419.675 1.321 1.5 2.006 1.799 1.493 1.945 4.155.317 5.783-1.807 1.807-.419 2.421 3.718 1.644 5.904-1.107 7.655-3.516 6.867-9.451-.743-5.607.474-7.976 4.098-7.976 1.241 0 2.932 1.013 3.757 2.25l1.501 2.25 1.933-2.377c3.947-4.853 9.816 1.783 7.339 8.298-1.466 3.855-1.275 7.784.501 10.32 3.118 4.451-3.107 9.077-7.947 5.906-2.177-1.427-2.521-1.427-3.699-.009-.982 1.184-2.404 1.421-5.842.972-2.498-.326-5.893-.226-7.543.223l-3 .814 2.947 1.427c3.463 1.676 7.895 9.599 7.773 13.895-.14 4.91-1.876 7.031-5.755 7.031-1.906 0-3.465.45-3.465 1s-.9 1.9-2 3c-2.826 2.826-8.684 2.643-12.475-.39-2.742-2.194-3-2.957-3.302-9.745-.383-8.62 1.672-13.939 5.746-14.874 2.443-.561 2.435-.581-.736-1.894-1.939-.804-4.495-1.059-6.469-.648-8.306 1.731-11.245 1.649-14.539-.407C51.588 101.773 50 98.567 50 93.494c0-1.857-.45-3.654-1-3.994s-1 .016-1 .791c0 .774-1.318 3.37-2.928 5.768-2.517 3.747-2.851 5.013-2.377 9.012.303 2.559-.041 8.652-.764 13.541-.723 4.888-1.202 9.306-1.063 9.817.138.512.745 6.137 1.347 12.5.814 8.602 1.666 12.597 3.319 15.571 1.223 2.2 2.499 5.499 2.836 7.331s1.516 4.48 2.621 5.885S53 173.086 53 174.083c0 .998 1.125 3.028 2.5 4.512s2.502 2.969 2.505 3.301c.01 1.345 7.625 8.646 20.929 20.068 1.339 1.15 3.589 2.369 5 2.709s3.691 1.397 5.066 2.348c1.375.952 4.075 2.055 6 2.452s5.075 1.648 7 2.782c2.98 1.754 6.101 2.187 21 2.913 19.288.94 28.654.398 31.123-1.802.892-.795 4.021-2.322 6.953-3.394s5.712-2.629 6.177-3.46c.466-.832 1.521-1.512 2.344-1.512.824 0 2.64-1.237 4.036-2.75s3.759-3.425 5.252-4.25c6.259-3.459 8.88-5.64 13.711-11.412 2.803-3.348 5.852-7.551 6.776-9.338s2.074-3.25 2.556-3.25 1.354-1.371 1.939-3.047c.584-1.676 1.978-4.211 3.097-5.635 1.12-1.423 2.036-4.007 2.036-5.741 0-1.735.892-4.903 1.982-7.041s2.436-6.345 2.991-9.349 1.533-6.091 2.172-6.862c.874-1.052.886-3.066.05-8.112-.612-3.692-1.404-10.538-1.761-15.213-.367-4.826-1.23-9.161-1.996-10.029-.742-.841-2.041-4.188-2.887-7.438s-1.963-6.17-2.482-6.49-1.81-2.605-2.869-5.077-2.663-5.106-3.563-5.853S199 76.299 199 75.742s-1.012-1.989-2.25-3.182c-1.238-1.194-3.935-3.945-5.994-6.115s-5.11-5.07-6.779-6.445c-1.67-1.375-4.004-3.513-5.187-4.75S175.881 53 174.955 53s-2.878-.938-4.336-2.085-4.331-2.548-6.385-3.113c-2.054-.566-4.859-1.817-6.234-2.781s-4.75-2.051-7.5-2.417-7.025-1.072-9.5-1.569c-6.991-1.405-15.154-1.808-19-.938m90 22.462c0 .857.457 1.276 1.016.931.559-.346.758-1.047.441-1.559-.857-1.387-1.457-1.129-1.457.628M37.727 70.277C36.752 71.775 35.32 73 34.545 73 32.858 73 29 78.152 29 80.404c0 .878-.45 1.596-1 1.596s-.986.787-.97 1.75c.028 1.59.118 1.6.988.112.526-.901 2.087-1.923 3.469-2.269S34 80.476 34 79.882s1.381-2.37 3.07-3.947c2.265-2.117 2.986-3.59 2.75-5.624l-.32-2.757zM237 75.559c0 .857.45 1.281 1 .941s1-1.041 1-1.559-.45-.941-1-.941-1 .702-1 1.559m-66.559.861c-1.601 1.171-1.941 2.644-1.941 8.416 0 3.848-.309 7.306-.687 7.685s-1.954.268-3.5-.245c-2.402-.795-2.858-1.54-3.12-5.096-.253-3.433-.942-4.65-3.918-6.923-3.502-2.674-4.052-2.767-18.192-3.085-15.693-.353-21.55.682-22.407 3.96-.34 1.299.407 2.395 2.459 3.607 3.572 2.11 4.301 4.612 3.414 11.714-.625 5-.49 5.54 1.752 7.009 5.518 3.615 10.388-1.949 9.265-10.585-.992-7.626 1.649-10.531 4.968-5.465 1.378 2.103 1.417 3.204.302 8.602-1.19 5.762-1.146 6.286.634 7.588 3.018 2.206 8.155 1.769 10.001-.852 1.346-1.91 1.73-2.023 2.542-.75 2.614 4.099.289 6.45-5.581 5.646-5.662-.776-8.432 1.034-8.432 5.509 0 3.065-3.373 7.23-5.312 6.56-1.225-.423-1.264-2.873-.132-8.4.619-3.022.472-3.219-2.865-3.845-3.684-.691-7.691.084-7.691 1.487 0 .452-3.777.586-8.393.298-7.949-.496-8.457-.404-9.6 1.732-.798 1.492-.973 4.13-.516 7.791.93 7.441 1.324 8.222 4.151 8.222 2.619 0 7.358 2.661 7.358 4.131 0 .496-1.526 1.629-3.391 2.518-2.675 1.276-3.517 2.38-3.989 5.234-.992 6.001-.695 13.642.58 14.917 1.495 1.495 8.246 1.567 10.956.116 1.483-.793 2.815-.757 4.971.137 1.62.671 4.842 1.193 7.159 1.161 4.689-.066 7.714.565 7.714 1.61 0 1.372-8.026 3.232-9.815 2.275-1.395-.747-18.613-1.464-28.685-1.195-1.1.03-4.539.071-7.641.091-3.697.025-6.061.543-6.858 1.503-1.067 1.286-1.474 1.284-3.331-.016-3.031-2.124-10.35-1.953-11.528.268-.511.963-.84 7.223-.732 13.911.241 14.793.762 15.778 7.829 14.806 4.762-.655 4.971-.572 8.667 3.431 3.374 3.655 4.286 4.102 8.368 4.102 3.616 0 4.97-.494 6.428-2.348 1.016-1.291 3.636-2.923 5.822-3.626 2.187-.704 4.798-1.998 5.803-2.877 1.676-1.466 2.074-1.456 4.831.127 3.506 2.012 6.731 2.187 10.303.56 2.007-.915 3.103-.872 5.103.198 1.935 1.036 3.228 1.106 5.386.291 1.642-.62 3.413-.71 4.195-.214 3.496 2.215 16.095-.509 19.438-4.202 2.171-2.4 4.113-2.442 4.855-.105.315.992 2.748 2.723 5.408 3.846 4.803 2.03 4.869 2.031 9.745.119 2.7-1.058 5.65-2.592 6.556-3.408 2.449-2.207 4.007-9.717 3.231-15.568l-.677-5.103 3.155.631c4.674.935 7.989-.977 8.753-5.049.396-2.112.192-3.871-.534-4.597-1.494-1.494-11.283-1.55-11.778-.067-.203.61-.953 1.907-1.667 2.883-1.149 1.572-1.73 1.631-5.101.519-2.262-.747-5.837-1.015-8.82-.662-4.034.478-5.538 1.221-7.689 3.797l-2.674 3.203-3.289-3.144c-1.81-1.729-4.025-3.395-4.923-3.704-.899-.308-2.872-2.518-4.384-4.91-2.141-3.386-2.75-5.57-2.75-9.859 0-8.775-1.257-9.667-14.368-10.196-5.978-.241-11.14-.709-11.471-1.041-1.699-1.699 8.763-4.043 16-3.585 2.662.168 3.939-.265 4.678-1.585.914-1.634 1.352-1.682 4.339-.48 4.901 1.974 7.588 2.143 8.899.563 1.652-1.99 4.307-1.745 6.423.593 1.031 1.139 3.08 2 4.76 2 1.622 0 5.186 1.123 7.918 2.496 5.832 2.929 8.279 2.253 9.34-2.579.557-2.537.193-3.61-2.008-5.907-2.328-2.429-2.53-3.105-1.501-5.027.965-1.804.852-2.966-.607-6.201-1.833-4.064-4.517-5.782-9.037-5.782-1.995 0-2.439-.437-2.185-2.15.176-1.182 1.5-3.027 2.942-4.099l2.622-1.95 5.874 5.599c3.231 3.08 6.527 5.6 7.324 5.6.798 0 3.12 1.157 5.16 2.57 5.65 3.916 9.705 3.145 12.77-2.428 2.806-5.102 2.321-5.744-5.105-6.752-2.602-.354-5.203-1.21-5.778-1.903s-1.078-5.745-1.116-11.225-.409-10.511-.822-11.179c-1.245-2.015-4.418-1.961-6.696.114-1.701 1.55-2.04 2.736-1.637 5.734.551 4.108-.989 8.069-3.137 8.069-1.722 0-2.55-3.134-2.567-9.715-.011-4.123-.419-5.431-1.948-6.25-2.71-1.45-6.338-1.288-8.625.385M64 86.059c0 1.132.45 1.781 1 1.441s1-1.266 1-2.059S65.55 84 65 84s-1 .927-1 2.059m-.277 5.552c-1.201 1.2-.814 3.14.745 3.738.807.31 1.693.2 1.968-.245.697-1.129-1.827-4.379-2.713-3.493M80 106.602c0 .234.45 1.207 1 2.162.549.955 1.466 3.047 2.037 4.649 1.25 3.511 2.543 2.526 3.496-2.663.593-3.223.428-3.761-1.172-3.827a30 30 0 0 1-3.611-.411c-.963-.184-1.75-.144-1.75.09M.328 125.5c.005 3.85.185 5.302.402 3.228.216-2.075.213-5.225-.008-7s-.398-.078-.394 3.772M20.5 122c.34.55.816 1 1.059 1s.441-.45.441-1-.477-1-1.059-1-.781.45-.441 1m212.039 2.938c-.86 1.39.5 6.156 1.568 5.496 1.178-.728 1.15-5.157-.038-5.891-.512-.317-1.201-.139-1.53.395m-113.385 10.5c.191.917.796 1.644 1.346 1.615 1.484-.079 1.212-2.316-.346-2.835-.841-.28-1.215.177-1 1.22m-96.075 1.145c.048 1.165.285 1.402.604.605.289-.722.253-1.585-.079-1.917s-.568.258-.525 1.312m-2.275 9.167c-.41 3.421 1.134 10.25 2.318 10.25.994 0 1.163-7.334.248-10.75-.828-3.087-2.168-2.826-2.566.5M224 154.5c0 .825.661 1.5 1.469 1.5.894 0 1.243-.586.893-1.5-.317-.825-.978-1.5-1.469-1.5s-.893.675-.893 1.5m-47 18.559c0 1.132.45 1.781 1 1.441s1-1.266 1-2.059-.45-1.441-1-1.441-1 .927-1 2.059m46.2 3.141c-.66.66-1.2 1.958-1.2 2.885s-1.153 2.44-2.561 3.363c-1.61 1.055-2.446 2.413-2.25 3.655.451 2.863 1.993 2.547 3.774-.773.852-1.59 2.56-3.975 3.794-5.299s2.243-2.998 2.243-3.72c0-1.64-2.206-1.705-3.8-.111m6.606.327c-.681.681 2.45 7.398 3.469 7.44.883.038 2.725-4.377 2.725-6.532 0-1.381-4.989-2.113-6.194-.908m-207.64 5.612c.184 1.298.784 2.248 1.334 2.111 1.476-.369 1.216-3.511-.334-4.028-.915-.305-1.229.298-1 1.917m204.501 4.528c-.367.366-.667 2.066-.667 3.777 0 1.874-.796 3.793-2 4.824-2.296 1.966-2.726 6.732-.607 6.732 1.507 0 2.607-2.094 2.607-4.965 0-.991.9-2.037 2-2.325 1.589-.415 2-1.364 2-4.616 0-3.861-1.43-5.331-3.333-3.427m-14.124 5.264c-.683 1.105.894 2.299 1.818 1.375.95-.951.773-2.306-.302-2.306-.518 0-1.2.419-1.516.931M43 193c0 .55.477 1 1.059 1s.781-.45.441-1-.816-1-1.059-1-.441.45-.441 1m162.75 7.232c-3.337 3.664-3.512 5.205-.5 4.398 1.238-.331 2.536-.609 2.887-.616.83-.018 1.707-5.996.946-6.451-.321-.193-1.821 1.009-3.333 2.669m11.943 4.126c-.287.747-1.91 1.635-3.607 1.975-3.204.641-4.341 3.773-1.914 5.274 1.089.672 7.777-6.053 7.813-7.857.026-1.288-1.745-.819-2.292.608m-161.057 3.339C55.614 208.72 63.035 215 65.265 215c2.482 0 1.737-2.168-1.263-3.677-1.287-.647-2.737-1.884-3.221-2.75-.919-1.642-2.949-2.071-4.145-.876M197 209.622c0 1.329.271 1.398 1.5.378.825-.685 1.5-1.415 1.5-1.622s-.675-.378-1.5-.378-1.5.73-1.5 1.622M189.813 215c-1.448 1.65-3.573 3-4.723 3s-2.09.395-2.09.877c0 .483 2.137.663 4.75.402 4.775-.479 8.25-2.959 8.25-5.89 0-2.408-3.449-1.51-6.187 1.611m-122.628 2.75c.421 2.218 5.815 3.084 5.815.933 0-.797-1.013-1.721-2.25-2.053-3.445-.923-3.924-.773-3.565 1.12m128.178 3.747c-.346.901-.167 2.099.398 2.664 1.63 1.63 4.739.531 4.739-1.675 0-2.543-4.228-3.358-5.137-.989M174.5 223c-.34.55.282 1 1.382 1s2.278-.45 2.618-1-.282-1-1.382-1-2.278.45-2.618 1M79 224c0 .55.702 1 1.559 1s1.281-.45.941-1-1.041-1-1.559-1-.941.45-.941 1m4 3.531c0 1.776 2.401 2.957 4.001 1.969.786-.486.765-1.077-.075-2.089-1.554-1.873-3.926-1.8-3.926.12M64 228c0 .55.45 1 1 1s1-.45 1-1-.45-1-1-1-1 .45-1 1m97.143-.11c-2.108 1.336.394 2.371 3.881 1.605 1.637-.36 2.976-1.068 2.976-1.574 0-1.159-5.042-1.181-6.857-.031m28.357.11c-.34.55.335 1 1.5 1s1.84-.45 1.5-1-1.015-1-1.5-1-1.16.45-1.5 1m-87.019 5.03c-.982 1.59 2.764 2.76 5.928 1.853 4.333-1.243 7.671-1.09 10.701.491 1.813.946 3.146 1.062 4.364.38.965-.539 6.766-1.087 12.89-1.216 13.514-.285 13.886-.324 13.236-1.377-.682-1.103-46.439-1.23-47.119-.131m78.95.082c-.846 1.369 1.398 2.891 3.228 2.188.738-.282 1.341-1.141 1.341-1.907 0-1.655-3.584-1.876-4.569-.281m-12.187 4.552c-2.404.969-.1 2.336 3.937 2.336 3.499 0 3.891-.209 2.819-1.5-1.219-1.468-4.255-1.844-6.756-.836M85 238.883c0 .486.9 1.119 2 1.407 2.362.617 2.714-.802.418-1.683-2.099-.806-2.418-.769-2.418.276m35.676 3.519c-.72 1.877.153 2.598 3.146 2.598 2.425 0 2.442-.051.678-2-2.136-2.36-3.091-2.509-3.824-.598m25.824 1.126-4 1.318 3.5.162c5.324.245 12.294.925 14.249 1.389 2.289.543 3.245-1.097 1.715-2.941-1.51-1.818-9.846-1.78-15.464.072"/><path fill="#1976D2" fill-opacity=".082" fill-rule="evenodd" d="M164.678 19.656c-.361.36-2.299.923-4.308 1.25-4.06.66-6.532 3.332-4.74 5.124.597.597 3.624 1.347 6.728 1.667 4.036.417 5.642 1.002 5.642 2.054 0 1.138-.787 1.324-3.472.82-2.313-.434-4.483-.128-6.5.915-3.014 1.558-3.029 1.552-3.146-1.21-.066-1.527-.08-3.071-.032-3.432.164-1.235-19.517-1.489-40.516-.523-10.765.495-13.773.977-16.5 2.639-1.834 1.118-4.952 2.034-6.929 2.036-2.324.003-4.236.713-5.409 2.008-.997 1.103-3.565 2.476-5.706 3.053-2.141.576-4.149 1.716-4.463 2.533-.313.816-2.123 2.133-4.021 2.926-2.705 1.131-3.381 1.933-3.128 3.713.275 1.939.834 2.226 3.822 1.966 1.963-.171 4.249-1.184 5.205-2.306.938-1.1 3.413-2.274 5.5-2.609 2.087-.336 4.937-1.449 6.332-2.476 2.437-1.792 2.723-1.797 7.219-.131 5.06 1.876 9.252 1.4 18.632-2.114C121.15 35.213 144 34.338 144 36.444c0 2.013 2.532 3.222 8.5 4.062 2.75.387 6.575 1.753 8.5 3.035s4.85 2.645 6.5 3.027 3.9 1.484 5 2.448c1.1.965 3.084 2.084 4.408 2.487 2.944.895 22.917 20.119 24.153 23.247.489 1.237 1.526 2.25 2.303 2.25.816 0 1.683 1.437 2.051 3.399.351 1.869 1.489 4.48 2.529 5.803s2.21 4.103 2.6 6.18c.389 2.076 1.564 4.572 2.61 5.547 1.387 1.292 2.166 4.099 2.879 10.369 1.044 9.187 2.323 13.702 3.883 13.702 2.213 0 2.607-3.758 1.726-16.462-.454-6.538-.929-8.246-2.659-9.551-1.159-.874-2.556-3.59-3.105-6.038-.55-2.447-1.957-5.467-3.126-6.712-1.701-1.811-1.875-2.511-.871-3.5.997-.984 1.531-.862 2.611.601.746 1.011 2.178 1.682 3.182 1.492 2.436-.462 2.982-6.18.895-9.366-2.025-3.09-2.03-6.464-.01-6.464.857 0 1.267-.472.911-1.049-.442-.715-1.102-.671-2.077.138-.916.76-3.215.974-6.411.595-4.003-.474-4.982-.298-4.982.894 0 2.053-3.006 3.022-4.086 1.318-1.415-2.236-1.053-5.067.836-6.536 1.649-1.282 1.651-1.437.039-2.691-.941-.733-2.167-2.533-2.725-4S198.401 52 197.608 52s-2.278-1.149-3.302-2.554c-1.95-2.677-5.306-2.575-5.306.161 0 1.448-2.681 1.837-5.418.786-2.003-.769-2.052-2.999-.082-3.755 1.974-.757 1.924-3.538-.077-4.306-.867-.333-1.981-1.668-2.475-2.968-.795-2.092-1.535-2.364-6.423-2.364-3.039 0-5.525.45-5.525 1s-.787.986-1.75.97c-1.667-.029-1.667-.079 0-1.05 1.041-.606 1.75-2.215 1.75-3.97 0-1.924.509-2.95 1.465-2.95 3.731 0 4.742-8.041 1.312-10.443-2.284-1.6-5.937-2.064-7.099-.901M176 44c0 .55.675 1 1.5 1s1.5-.45 1.5-1-.675-1-1.5-1-1.5.45-1.5 1m15 10c0 .55.45 1 1 1s1-.45 1-1-.45-1-1-1-1 .45-1 1m6.5 5c-.34.55-.141 1 .441 1S199 59.55 199 59s-.198-1-.441-1-.719.45-1.059 1m8.078 13.546c-.739 2.944-.067 4.454 1.981 4.454 1.489 0 1.897-2.649.834-5.418-.896-2.335-2.09-1.926-2.815.964M37.571 78.571c-.864.865-1.571 2.078-1.571 2.696s-1.161 2.335-2.58 3.817c-1.647 1.718-2.78 4.271-3.132 7.054-.303 2.399-1.186 5.094-1.962 5.988-2.405 2.77-2.72 8.338-.778 13.738 1.699 4.723 1.704 5.307.1 11.308-2.392 8.948-2.461 28.788-.12 34.619.947 2.361 1.455 4.559 1.129 4.885-1.207 1.207-6.334-1.859-8.096-4.842l-1.82-3.081-3.319 3.624C13.596 160.369 11.601 162 10.99 162c-1.047 0-.668 6.435.661 11.25.681 2.462 2.841 2.174 4.674-.623 1.165-1.778 2.198-2.25 4.123-1.882 1.412.27 3.974-.091 5.692-.803 2.993-1.24 3.244-1.15 5.965 2.132 1.563 1.884 2.853 4.213 2.868 5.176s.903 2.626 1.974 3.697 2.669 3.344 3.552 5.051 2.24 3.348 3.015 3.646c.776.297 1.716 1.506 2.09 2.685.926 2.915 12.461 13.653 14.677 13.663.98.004 2.034.666 2.343 1.47.308.804 1.406 1.73 2.44 2.058 1.033.328 4.274 2.973 7.203 5.879 2.928 2.905 6.623 5.608 8.211 6.006s4.19 1.821 5.782 3.16c2.402 2.022 3.973 2.435 9.258 2.435 6.771 0 7.794-.608 8.357-4.968.069-.532 1.362-1.639 2.875-2.46 2.794-1.516 2.602-1.634-3.25-2.008-7.727-.493-7.665-.47-6.997-2.575.529-1.665.067-2.134-2.682-2.726-3.427-.737-5.249-.768-7.797-.132-.912.228-1.608-.491-1.82-1.881-.307-2.015-.91-2.25-5.774-2.25-5.896 0-6.018-.086-4.209-2.983 1.034-1.654.879-2.275-1-4.025-1.221-1.139-2.227-2.39-2.234-2.781s-3.345-3.411-7.418-6.711c-4.072-3.3-7.683-7.045-8.024-8.321-.538-2.02-1.037-2.234-3.832-1.645-2.626.553-2.985.438-1.963-.629 1.849-1.931 1.519-6.954-.75-11.405-1.1-2.158-2-4.667-2-5.577 0-.909-.944-2.853-2.097-4.319-1.481-1.883-2.53-5.668-3.572-12.885-.812-5.621-1.893-11.601-2.403-13.29-1.315-4.352-1.154-8.365.561-14.02 1.904-6.277 1.924-13.481.043-15.968-2.327-3.076-1.803-5.072 2.199-8.37 2.285-1.884 4.137-4.524 4.779-6.815.577-2.057 1.772-3.879 2.654-4.049 1.323-.255 1.676.947 2.01 6.859.371 6.58.669 7.405 3.631 10.051 4.132 3.692 8.951 3.863 12.889.456 2.65-2.291 2.695-2.461.806-3.055-5.472-1.718-6.884-3.14-8.957-9.018-1.829-5.183-2.493-6.044-4.882-6.321-1.847-.215-3.075-1.137-3.698-2.776-1.1-2.893-3.474-4.054-5.259-2.572-.804.667-1.81.714-2.738.127-2.119-1.34-3.61-1.171-5.395.613m135.18-.882c-2.514.657-3.22 4.805-1.55 9.104 1.173 3.02 1.89 3.657 3.87 3.438 3.557-.394 5.166-3.072 4.581-7.625-.644-5.012-2.225-6.139-6.901-4.917m-17.401 9.453c-1.981 2.504-2.425 6.927-1.313 13.065 1.52 8.378.854 10.381-3.778 11.369-2.067.441-4.943.721-6.39.622-2.264-.154-2.93.517-4.781 4.819-1.663 3.866-1.909 5.45-1.084 6.991 1.394 2.604 4.498 2.541 6.369-.13 1.27-1.813 1.909-1.975 4.383-1.113 4.258 1.485 6.244-.035 6.244-4.78 0-2.993.7-4.632 2.966-6.951 1.632-1.668 3.624-3.034 4.428-3.034 1.892 0 5.606-4.727 5.606-7.135 0-2.225-2.542-2.501-3.362-.365-1.05 2.737-3.638 1.727-3.638-1.419 0-1.605-.639-4.193-1.42-5.75s-1.811-3.892-2.288-5.189c-.698-1.898-1.077-2.093-1.942-1m-84.1.605c-2.665.464-3.109 4.295-.727 6.272.837.695 1.27 2.057.962 3.028-.559 1.762 2.759 4.812 6.845 6.29 2.643.956 12.358-.374 14.417-1.974 1.659-1.29 1.646-1.446-.247-2.908-1.193-.921-2.946-1.307-4.346-.957-2.693.675-5.154-.964-5.154-3.433 0-2.257-4.991-6.727-7.5-6.718-1.1.004-3.013.184-4.25.4m26.335 8.763c-2.106 3.215-.57 6.772 2.722 6.301 2.384-.341 3.201-2.65 2.263-6.39-.785-3.125-2.903-3.087-4.985.089m28.423-.289c-2.445 2.626-2.253 5.108.437 5.626 2.288.441 4.555-2.316 4.555-5.538 0-2.95-2.288-2.99-4.992-.088m-106.758.27c-3.489 1.517-4.499 5.092-1.737 6.152 1.962.753 4.487-1.366 4.487-3.765 0-1.033.45-1.878 1-1.878s1-.45 1-1c0-1.303-.817-1.219-4.75.491m170.911 1.056c-.639 1.401-1.161 3.834-1.161 5.406 0 2.549.727 3.199 6.725 6.005 6.288 2.943 6.808 3.034 8 1.404.701-.96 1.275-2.076 1.275-2.482 0-1.556-3.244-3.88-5.416-3.88-2.732 0-5.179-2.501-6.114-6.25-.855-3.426-1.814-3.485-3.309-.203m-48.916-.392c-2.128 2.128-1.451 4.755 1.41 5.473 3.41.856 5.845-.7 5.845-3.737 0-1.925-.585-2.448-3.005-2.686-1.653-.162-3.565.265-4.25.95m-32.913 1.423c-.333.867.057 2.24.867 3.05 1.297 1.297 1.625 1.289 2.749-.065.702-.846 1.015-2.218.695-3.05-.761-1.985-3.541-1.943-4.311.065M14.25 109.019c-2.496 1.017-2.763 2.153-1.195 5.085 1.127 2.104.349 6.264-1.014 5.422-1.35-.835-3.217 2.205-2.868 4.669.242 1.705.978 2.305 2.827 2.305 2.283 0 2.474-.332 2.198-3.817-.273-3.462-.014-3.926 2.79-4.985 3.38-1.275 4.975-4.947 3.302-7.603-1.23-1.953-3.078-2.282-6.04-1.076m156.145-.254c-.608.404-1.653 2.416-2.323 4.471-1.479 4.536-2.443 5.25-4.42 3.273-2.092-2.092-2.652-1.897-2.652.924 0 1.516.72 2.661 1.911 3.039 1.05.333 2.608 1.671 3.461 2.973 1.695 2.588 13.632 7.151 16.164 6.18 2.075-.797 1.814-3.624-.569-6.16-1.703-1.813-1.86-2.616-.97-4.958 1.265-3.325-.239-9.002-2.627-9.919-2.115-.811-6.639-.711-7.975.177m55.981 1c-.619.404-1.44 2.31-1.825 4.235s-.922 4.287-1.193 5.25.014 1.75.634 1.75c.619 0 .808-.562.42-1.25-.512-.908-.386-.957.463-.178.643.589 1.597 3.064 2.121 5.5l.953 4.428-.424-5.222c-.233-2.872.003-5.486.525-5.809 1.116-.69 1.302-9.476.2-9.454-.412.009-1.256.346-1.874.75M88.053 112.75c-2.507 5.365-2.784 5.753-4.328 6.058-.909.179-2.12-.866-2.9-2.5-.902-1.89-2.236-2.911-4.082-3.124-2.934-.339-2.838-.579-2.93 7.316-.077 6.525.062 6.913 3.21 9 3.786 2.51 5.808 2.176 8.999-1.485 1.387-1.591 3.823-3.129 5.413-3.418 4.066-.737 4.911-1.938 4.164-5.921-.636-3.39-3.989-8.676-5.503-8.676-.417 0-1.336 1.237-2.043 2.75m35.916-.429c-2.078 2.39-2.623 2.508-9.066 1.968-5.805-.487-6.954-.321-7.493 1.086-1.015 2.643 1.404 6.927 5.335 9.451 3.078 1.976 4.007 2.153 6.163 1.17 1.791-.816 2.645-.838 2.899-.076.198.594 1.95 1.08 3.894 1.08h3.534l-.707-7.75c-.388-4.263-1.076-8.137-1.528-8.611-.451-.473-1.816.284-3.031 1.682m112.655 7.215c-.324.845.303 3.201 1.393 5.235 2.592 4.836 2.501 6.659-.428 8.579-2.691 1.763-5.063 7.731-4.273 10.751 1.512 5.781-5.725 18.899-10.426 18.899-1.553 0-1.676-.946-1.207-9.25.582-10.288-.556-15.112-3.436-14.562-1.235.235-2.211 2.234-3.331 6.823-.872 3.569-2.334 7.929-3.25 9.689-.916 1.761-1.666 4.539-1.666 6.174 0 1.712-1.06 4.233-2.5 5.944-1.375 1.634-2.5 3.406-2.5 3.939 0 1.043-2.844 4.94-11.199 15.347-4.715 5.873-6.565 7.518-12.816 11.396-3.738 2.319-10.985 9.362-10.985 10.675 0 .783 1.582 1.995 3.516 2.694 4.226 1.529 3.676 3.131-1.075 3.131-3.004 0-3.441.318-3.441 2.5 0 2.112.466 2.5 3.004 2.5 1.652 0 4.682-.9 6.735-2s4.266-2 4.919-2c.654 0 2.461-1.063 4.015-2.363 1.555-1.3 3.839-2.68 5.077-3.068s2.25-1.112 2.25-1.611 1.35-1.605 3-2.458 3-1.999 3-2.547 2.25-3.27 5-6.049 5-5.624 5-6.323.883-2.07 1.962-3.047c1.08-.977 2.465-3.296 3.078-5.155.613-1.858 1.487-3.379 1.943-3.379s1.981-1.969 3.391-4.375c3.041-5.189 6.16-6.411 9.164-3.59 2.652 2.492 4.122 2.483 5.694-.035 1.648-2.638 4.151-2.535 6.094.25l1.569 2.25.053-2.25c.028-1.238-.473-2.25-1.115-2.25-.641 0-.884-.282-.539-.627s-.029-2.196-.83-4.114c-1.327-3.175-1.282-3.881.496-7.903 1.693-3.825 2.271-4.336 4.323-3.821 2.29.575 2.427.271 4.107-9.138 1.713-9.588 1.709-9.772-.281-12.464-1.112-1.503-2.302-3.853-2.646-5.223s-1.713-3.436-3.044-4.593-2.419-2.557-2.419-3.11c0-1.621-4.729-1.156-5.376.529M14 135.034c-1.298.869-1.239 1.203.441 2.485 2.87 2.19 4.559 1.812 4.559-1.019 0-2.679-2.216-3.329-5-1.466m111.426-.269c-2.198 1.504-3.659 9.654-2.502 13.954 1.21 4.493 2.626 5.235 10.076 5.282 6.788.043 9.563 1.851 9.219 6.005-.365 4.409-.931 4.851-2.799 2.184-1.832-2.617-4.094-2.795-6.608-.52-1.735 1.57-1.974 1.533-3.974-.613-1.852-1.988-2.725-2.195-6.733-1.594-2.533.379-5.73.619-7.105.533-2.292-.143-3.804-.139-8.75.027-.963.032-3.286-.247-5.163-.62-2.615-.519-3.706-.277-4.667 1.037-1.161 1.588-1.436 1.595-3.717.101-2.343-1.535-2.616-1.485-5.583 1.011L84 164.178l-3.14-2.642c-6.371-5.361-10.924-1.247-8.852 7.999.513 2.291.651 6.55.306 9.464-.78 6.585.561 7.9 7.427 7.279 4.445-.402 4.869-.232 6.422 2.575 2.051 3.707 7.202 6.523 10.445 5.709 1.853-.465 2.392-1.271 2.392-3.581 0-2.884.153-2.981 4.684-2.981 2.716 0 6.509-.883 9.026-2.101 3.477-1.684 4.633-1.859 5.81-.882 1.517 1.258 8.69 1.589 10.48.483.556-.344 2.568-.063 4.47.625 3.012 1.09 3.709 1.023 5.409-.516 1.841-1.665 2.099-1.669 4.537-.072 3.924 2.571 12.988 1.193 17.352-2.638 4.051-3.557 5.93-3.656 7.416-.394 2.393 5.252 15.16 5.514 20.316.416 1.672-1.652 2-3.302 2-10.058 0-7.942-.058-8.131-3.344-10.874-3.875-3.235-6.564-3.933-11.842-3.075-2.823.459-4.307 1.434-5.803 3.813-3.182 5.057-3.861 4.744-17.107-7.871-3.037-2.892-5.835-9.349-4.787-11.045.832-1.346-.622-6.673-2.27-8.321-2.915-2.915-10.318-.463-8.997 2.98.256.666.063 1.846-.427 2.621-.637 1.006-.897.537-.908-1.641-.008-1.677-.555-3.59-1.215-4.25-1.319-1.319-6.675-1.597-8.374-.435m-15.384 11.39c-2.141 4.782-1.771 6.624 1.496 7.444 6.289 1.578 8.591-2.965 3.435-6.777-1.665-1.231-2.804-2.82-2.532-3.53.273-.711.263-1.292-.021-1.292s-1.355 1.87-2.378 4.155m84.317 10.352c-.353.92.057 2.337.927 3.207 2.124 2.124 4.941.907 4.534-1.96-.394-2.777-4.513-3.717-5.461-1.247m-18.821 13.319c-.734 3.345.994 8.581 2.522 7.637 2.038-1.259 2.942-5.363 1.756-7.967-1.512-3.319-3.51-3.165-4.278.33m-60 .522c-2.815 2.059-.942 3.654 4.271 3.637 4.131-.014 8.471-1.335 7.162-2.181-4.855-3.137-8.499-3.601-11.433-1.456m24.06 2.764c-.716 4.478.953 8.201 2.548 5.685 1.571-2.476.73-9.797-1.125-9.797-.421 0-1.061 1.85-1.423 4.112M26.54 175.347c-1.512 1.106-1.391 1.799 1.403 8.025C29.624 187.12 31 190.809 31 191.57s1.107 2.11 2.461 2.996 2.748 2.517 3.099 3.622c.35 1.105 1.276 2.753 2.056 3.661s2.831 3.365 4.557 5.46c3.421 4.153 10.203 8.144 12.404 7.3 1.845-.708-1.162-5.424-8.81-13.818-3.153-3.46-5.74-7.063-5.75-8.006s-.953-2.215-2.096-2.827-2.538-2.428-3.098-4.035S34.179 183 33.414 183c-.845 0-1.637-1.544-2.02-3.938-.693-4.33-2.315-5.572-4.854-3.715m210.869 6.159c-.357 1.423-.4 2.836-.096 3.141.979.978 2.687-.705 2.687-2.647 0-2.986-1.876-3.344-2.591-.494m-142.784-.708c-.271.439-.08 1.451.426 2.25.717 1.134.922.959.934-.798.015-2.313-.493-2.856-1.36-1.452m-77.082 1.133c-.317.512-.118 1.213.441 1.559s1.016-.074 1.016-.931c0-1.757-.6-2.015-1.457-.628M22 191.845c0 1.015.9 2.66 2 3.655s2 2.436 2 3.2 1.09 2.481 2.422 3.813 2.713 3.338 3.068 4.456 1.515 2.498 2.578 3.067S36 211.718 36 212.51c0 .791 1.295 2.109 2.879 2.927 1.583.819 3.144 2.181 3.468 3.026.756 1.968 4.653 2.018 4.653.06 0-.812-1.125-2.214-2.5-3.115s-2.5-2.414-2.5-3.362c0-.949-1.086-2.22-2.413-2.825-1.328-.604-2.686-1.958-3.019-3.008s-1.659-2.389-2.945-2.975c-1.429-.651-2.579-2.266-2.956-4.152C30.218 196.842 29.491 196 28 196c-1.478 0-2.217-.837-2.65-3-.649-3.246-3.35-4.177-3.35-1.155m192.75 4.058c-2.527 2.456-3.927 8.114-2 8.086 1.658-.023 7.397-6.989 7.084-8.599-.504-2.602-2.038-2.447-5.084.513M201.5 212c-.34.55-.352 1.43-.027 1.956.823 1.331 3.527.133 3.527-1.563 0-1.599-2.576-1.888-3.5-.393m-35.957.931c-.74 1.197 1.141 2.382 2.473 1.559 1.119-.691.384-2.49-1.016-2.49-.485 0-1.141.419-1.457.931M58 217.383c0 .782 1.417 1.915 3.149 2.519 3.945 1.375 3.851 1.384 3.851-.343 0-1.681-.536-2.052-4.25-2.94-2.018-.482-2.75-.279-2.75.764m-10.754 4.867c.226.688 1.276 1.7 2.333 2.25s3.138 2.238 4.626 3.75c1.487 1.512 3.348 2.75 4.135 2.75s2.167 1.125 3.068 2.5c1.632 2.491 5.886 3.452 7.036 1.59 1.199-1.94-.716-4.09-3.645-4.09-2.142 0-3.134-.563-3.508-1.994-.327-1.251-1.97-2.429-4.406-3.159-2.137-.64-3.885-1.719-3.885-2.398 0-1.309-2.171-2.449-4.665-2.449-.826 0-1.316.563-1.089 1.25m111.004-.588c-2.118.855-1.389 2.148 1.576 2.8 3.114.684 8.174-.825 8.174-2.437 0-1.03-7.414-1.305-9.75-.363m-86.5 1.418c-2.009 1.17-2.318 4.952-.55 6.72 1.537 1.537 7.045 1.555 8.572.028.896-.896.414-1.953-2.05-4.489-3.592-3.699-3.536-3.678-5.972-2.259m113.595.463c-.326.849-.424 1.696-.219 1.884.726.661 4.874-1.377 4.874-2.395 0-1.637-3.999-1.198-4.655.511m-8.215 2.499c-2.862.409-4.957 1.403-6.072 2.881-.936 1.241-3.245 2.572-5.13 2.958-3.894.796-4.41 2.027-1.329 3.166 4.276 1.582 19.401-5.072 19.401-8.535 0-1.317-.63-1.36-6.87-.47m-64.63.888c-1.733.741-1.784.944-.381 1.519 2.381.977 11.907.217 11.911-.949.004-1.269-8.871-1.708-11.53-.57m22.25.732c.688.278 1.813.278 2.5 0 .688-.277.125-.504-1.25-.504s-1.937.227-1.25.504m62.25 1.373c0 1.725.305 1.872 2 .965 1.1-.589 2-1.505 2-2.035s-.9-.965-2-.965c-1.345 0-2 .667-2 2.035m-109.905 2.592-2.405 1.704 2.266 1.834c2.804 2.271 9.579 2.489 10.406.335.832-2.169-.313-4.498-2.219-4.514-.904-.007-2.543-.249-3.643-.538-1.1-.288-3.082.243-4.405 1.179M70 237.24c0 2.198 2.189 3.76 5.27 3.76 2.403 0 2.817-.365 2.55-2.25-.257-1.807-1.058-2.311-4.07-2.56-2.648-.219-3.75.089-3.75 1.05m42.5-.445c-3.602.719-3.785 2.006-.525 3.692 3.705 1.916 6.025 1.401 6.025-1.339 0-2.045-2.24-3.003-5.5-2.353m30.528 1.167c-1.274.805-1.255 1.014.145 1.551 2.556.981 9.131.114 9.583-1.263.494-1.504-7.435-1.739-9.728-.288M130 239c0 .55.675 1 1.5 1s1.5-.45 1.5-1-.675-1-1.5-1-1.5.45-1.5 1m-27.333 8.667c-1.367 1.366-.569 2.087 2.938 2.656 4.699.763 9.395-.211 9.395-1.948 0-1.01-1.551-1.375-5.833-1.375-3.209 0-6.134.3-6.5.667"/><path fill="#1976D2" fill-opacity=".207" fill-rule="evenodd" d="M164.431 23.112c-.706 1.142 1.19 2.845 3.197 2.873 1.496.02 3.532-2.492 2.697-3.327-1.067-1.067-5.149-.752-5.894.454m47.176 46.714c-.886 1.435.566 5.174 2.01 5.174 1.465 0 1.781-1.799.776-4.418-.659-1.717-1.972-2.073-2.786-.756M175.5 83c-.34.55-.141 1 .441 1S177 83.55 177 83s-.198-1-.441-1-.719.45-1.059 1M53.639 87.694c-.351.352-.639 2.199-.639 4.105 0 2.67.809 4.228 3.527 6.791 2.055 1.939 4.142 3.091 5 2.761 2.146-.823 1.816-1.649-1.384-3.469-2.14-1.217-3.007-2.629-3.497-5.693-.646-4.039-1.775-5.727-3.007-4.495m24.236 7.223c-.416 3.606-.205 4.472 1.327 5.439 2.352 1.483 3.352.12 2.234-3.044-.963-2.725-3.339-4.323-3.561-2.395m94.446 16.833c-.339.963-1.206 3.224-1.928 5.025-1.588 3.964-.921 6.074 2.308 7.302 3.602 1.369 5.299 1.127 5.299-.756 0-.923.532-3.151 1.183-4.951 1.614-4.462-.11-8.37-3.693-8.37-1.53 0-2.8.701-3.169 1.75m-83.691 4.5c-.997 3.722-.724 4.75 1.263 4.75 2.381 0 3.42-2.547 2.068-5.072-1.367-2.556-2.591-2.437-3.331.322m-55.599.731c-.866.535-1.459 2.735-1.534 5.695-.068 2.653-.678 5.845-1.356 7.093s-1.185 4.624-1.127 7.5-.189 6.859-.548 8.849c-.444 2.456-.142 4.608.94 6.7.93 1.798 1.594 5.539 1.594 8.977 0 4.587.435 6.289 1.962 7.671 1.08.977 2.499 3.409 3.154 5.405s2.021 4.217 3.037 4.936c1.016.718 1.847 1.94 1.847 2.715s1.35 2.946 3 4.825 3 3.91 3 4.512 1.125 1.832 2.5 2.733 2.5 2.285 2.5 3.075 1.35 1.908 3 2.483 3 1.452 3 1.948.9.902 2 .902q2 0 2-2c0-1.1-.42-2-.933-2s-1.183-.789-1.489-1.754-3.261-4.597-6.567-8.071S47 182.231 47 181.465c0-.767-.9-1.876-2-2.465-2.363-1.265-2.645-5.219-.5-7 2.379-1.974 1.866-7.308-.959-9.962-1.6-1.503-2.691-3.921-3.123-6.924-.365-2.538-1.334-6.189-2.153-8.114-1.556-3.657-2.208-9.301-2.557-22.159-.225-8.292-.53-9.187-2.677-7.86m106.086 21.269c-.458 1.238-1.132 4.57-1.497 7.407-.804 6.245.875 8.622 5.755 8.147 2.496-.243 3.058-.707 2.79-2.304-.185-1.1-.645-4.475-1.023-7.5s-1.041-6.062-1.474-6.75c-1.246-1.982-3.641-1.456-4.551 1m98.288 1.137c-.724 1.888.13 4.613 1.447 4.613 1.582 0 2.006-3.873.557-5.076-1.073-.89-1.525-.786-2.004.463m-109.242 2.94c-3.778 4.021-2.367 9.673 2.415 9.673 3.529 0 4.796-2.336 3.461-6.381-1.704-5.165-3.285-6.051-5.876-3.292m88.887 3.579c-.577 1.079-1.05 3.05-1.05 4.379 0 1.33-1.147 4.574-2.548 7.209-2.705 5.087-2.657 9.83.109 10.891.791.304 1.439 1.636 1.439 2.961s.724 3.01 1.608 3.744c1.368 1.135 1.822 1.042 3.038-.62 2.019-2.761 1.321-5.904-1.396-6.29-1.811-.257-2.25-.959-2.25-3.597 0-1.842.876-4.287 2-5.583 1.504-1.734 2-3.741 2-8.094 0-6.155-1.223-8.227-2.95-5m20.617 3.761c-.367.366-.667 1.529-.667 2.583 0 2.593 2.415 1.67 2.82-1.078.309-2.103-.789-2.87-2.153-1.505m-92.514 9.083c-1.864 3.559-2.286 8.241-1.049 11.66.979 2.709.993 4.322.065 7.421-1.855 6.19-.973 7.197 6.165 7.036 5.259-.119 6.472-.517 8.642-2.836 1.388-1.484 3.501-3.22 4.695-3.858 1.937-1.034 2.513-.728 5.334 2.834 2.99 3.774 3.459 3.993 8.563 3.993 4.556 0 5.911-.457 8.666-2.921 3.043-2.722 3.252-3.319 3.067-8.75-.185-5.405-.491-6.102-4.211-9.579-2.207-2.062-4.952-3.75-6.101-3.75-3.615 0-7.658 2.781-9.016 6.203-2.257 5.689-2.976 6.143-5.685 3.597-1.327-1.246-3.348-3.779-4.491-5.629-1.284-2.077-3.777-4.091-6.521-5.267-5.495-2.355-6.955-2.383-8.123-.154m-46.713 2.953c-1.324 1.324-1.556 3.418-1.279 11.539.395 11.553 1.241 12.758 8.959 12.758 5.719 0 7.88-1.81 7.88-6.603 0-4.254-2.135-5.339-6.007-3.052-2.519 1.488-2.841 1.495-3.388.068-.333-.867-.61-3.002-.616-4.745-.032-9.229-2.268-13.246-5.549-9.965m133.254-1.064c-.933.934.194 2.361 1.865 2.361.793 0 1.441-.675 1.441-1.5 0-1.506-2.111-2.056-3.306-.861M74.2 162.2c-1.66 1.66-1.5 4.483.438 7.765 1.52 2.572 1.518 3.128-.023 7.651-1.494 4.385-1.506 4.991-.118 6.005.868.635 3.432.916 5.858.642 4.098-.461 4.424-.303 6.447 3.125 1.731 2.934 2.722 3.612 5.281 3.612 2.94 0 3.103-.184 2.449-2.75-.386-1.512-1-7.566-1.366-13.453-.778-12.502-2.031-14.893-5.528-10.547-2.784 3.459-3.499 3.437-8.138-.25-4.406-3.501-3.803-3.297-5.3-1.8m34.922.078c-2.023 2.023-1.017 7.722 1.363 7.722 2.125 0 3.775-2.829 3.135-5.377-.704-2.805-2.895-3.948-4.498-2.345m12.423-.35c-.316.51.527 2.197 1.871 3.75 1.933 2.232 2.705 2.566 3.687 1.599.957-.942.978-1.803.091-3.75-1.138-2.498-4.505-3.451-5.649-1.599m13.229 1.441c-.876.875-1.897 3.397-2.27 5.605-.792 4.688-4.653 8.026-9.286 8.026-3.548 0-5.625 2.143-4.749 4.901.889 2.802 3.647 3.394 8.319 1.784 3.473-1.196 4.336-1.18 6.483.123 3.578 2.171 6.15.911 5.246-2.57-.96-3.699-.992-6.965-.113-11.738.957-5.204-1.093-8.668-3.63-6.131m-116.333 1.726c-.974 1.577 2.435 4.068 5.052 3.693 1.244-.179 2.007-1.048 2.007-2.288 0-1.513-.769-2.075-3.156-2.306-1.736-.169-3.492.237-3.903.901m155.965 2.556c-1.78 9.489 3.315 14.773 7.584 7.865 1.954-3.161 2.071-3.954.978-6.593-2.438-5.885-7.554-6.646-8.562-1.272m-24.26 1.927c-1.533 3.365-1.449 6.926.196 8.291 1.977 1.641 2.658.366 2.658-4.977 0-5.523-1.208-6.926-2.854-3.314M207.2 171.2c-.66.66-1.2 1.769-1.2 2.465s-1.35 2.803-3 4.682-3 3.868-3 4.42-1.125 1.74-2.5 2.641-2.5 2.203-2.5 2.893-.787 2.007-1.75 2.926c-.963.92-2.2 2.141-2.75 2.713-2.08 2.165-7.103 5.683-9.75 6.827-1.512.655-2.75 1.82-2.75 2.589 0 .77-.675 1.959-1.5 2.644-2.084 1.73-1.872 3 .5 3 1.1 0 2-.402 2-.893 0-1.264 2.72-2.152 4.5-1.469 2.369.909 1.749 3.261-1.044 3.962-1.399.351-2.374 1.147-2.167 1.769.665 1.996 3.851 1.877 5.304-.199.775-1.106 2.756-2.307 4.402-2.669 1.646-.361 3.333-1.195 3.749-1.853s1.994-1.983 3.506-2.945 2.75-2.168 2.75-2.681c0-.861 2.025-3.354 7.01-8.627 2.279-2.412 2.66-6.395.611-6.395-.758 0-1.938 1.35-2.621 3-.739 1.785-1.982 3-3.069 3-1.613 0-1.699-.367-.735-3.131.6-1.722 1.926-3.35 2.948-3.617 1.137-.297 1.856-1.386 1.856-2.812 0-1.28.827-2.915 1.838-3.633 2.093-1.488 3.456-5.878 2.554-8.228-.725-1.89-1.58-1.991-3.192-.379m4.879 11.383c.048 1.165.285 1.402.604.605.289-.722.253-1.585-.079-1.917s-.568.258-.525 1.312M197 194.025c0 .563-1.125 1.452-2.5 1.975-2.737 1.041-3.39 3-1 3 1.687 0 5.5-3.466 5.5-5 0-.55-.45-1-1-1s-1 .461-1 1.025M187 203c0 2.202.124 2.273 2.418 1.393 2.266-.87 1.955-3.393-.418-3.393q-2 0-2 2m-139.5 5c.34.55 1.041 1 1.559 1s.941-.45.941-1-.702-1-1.559-1-1.281.45-.941 1m25.175 3.658c-.87.87 1.225 3.342 2.832 3.342.695 0 1.964 1.07 2.821 2.377.856 1.308 2.82 2.691 4.365 3.074 1.544.384 3.729 1.557 4.855 2.608 2.839 2.648 7.494 3.404 9.914 1.611 1.669-1.236 1.763-1.694.628-3.062-.734-.884-2.092-1.608-3.018-1.608s-3.208-1.125-5.072-2.5-4.59-2.5-6.059-2.5-3.815-.9-5.214-2c-2.58-2.03-4.859-2.535-6.052-1.342"/></svg>