<svg xmlns="http://www.w3.org/2000/svg" width="256" height="256"><path fill="#1976D2" fill-opacity=".016" fill-rule="evenodd" d="M0 128.004v128.004l128.25-.254 128.25-.254.254-127.75L257.008 0H0zm.485.496c0 70.4.119 99.053.265 63.672.146-35.38.146-92.98 0-128C.604 29.153.485 58.1.485 128.5"/><path fill="#1976D2" fill-opacity=".394" fill-rule="evenodd" d="M121 1.955c0 2.084.436 1.957-14.157 4.142-6.671 1-7.954.939-9.972-.475-3.796-2.658-10.009-2.089-14.285 1.31-2.029 1.612-5.045 3.23-6.702 3.593-1.807.397-3.451 1.625-4.109 3.069-.603 1.323-1.699 2.462-2.436 2.531-.736.069-1.805.181-2.375.25-.571.069-1.464.8-1.985 1.625-.805 1.273-.951 1.23-.964-.281-.02-2.343-2.333-3.154-4.969-1.744-1.91 1.023-2.055.911-1.53-1.182.613-2.444-2.497-6.821-4.805-6.763-.666.017-.429.486.527 1.043 3.253 1.895 3.941 4.563 2.232 8.654C52.802 24.114 45.945 30 41.172 30c-2.389 0-4.739-2.532-3.221-3.47.577-.356 1.049-.202 1.049.344 0 1.949 3.917 2.227 6.601.468 6.949-4.554 11.07-15.36 6.419-16.836-2.34-.742-5.862.856-4.178 1.896.737.456.041 2.891-2.112 7.389-3.921 8.194-3.593 7.68-4.395 6.878-.365-.366.534-3.442 1.998-6.836 1.465-3.394 2.45-6.383 2.19-6.643-.652-.652-4.208 3.718-5.746 7.06C38.511 23.001 37 23.926 37 21.95c0-3.877 6.632-10.845 11.825-12.425 1.279-.389 2.095-.938 1.813-1.221-.282-.282-1.961.209-3.729 1.092C45.14 10.278 43.133 11 42.45 11c-.684 0-2.625 1.574-4.314 3.498-2.702 3.078-3.054 4.17-2.926 9.069.115 4.372.586 5.877 2.191 7.001 2.826 1.98 6.976 1.79 11.515-.525 2.11-1.077 4.041-1.753 4.29-1.504.25.25-3.883 4.843-9.185 10.208-10.84 10.969-18.352 21.088-24.112 32.479-3.752 7.419-4.008 7.687-6.473 6.75-4.091-1.556-4.872-1.232-8.407 3.486-1.839 2.454-3.723 4.227-4.186 3.941C.379 85.116 0 86.654 0 88.82c0 4.11.659 4.673 7.864 6.717 2.109.598 2.291 1.064 1.689 4.317-2.898 15.654-3.187 29.157-.929 43.403.893 5.633 1.692 11.143 1.777 12.243.084 1.1.657 2.9 1.272 4s2.53 5.664 4.254 10.142c8.038 20.875 23.988 40.817 43.592 54.5l7.676 5.358-.653 4c-1.601 9.817-1.72 13.792-.54 18.007.692 2.471 1.848 4.493 2.569 4.493 1.051 0 1.026-.545-.124-2.75-3.305-6.335-.94-20.852 5.678-34.859 7.031-14.88 16.951-22.404 21.318-16.168 2 2.854 1.979 6.203-.058 9.312-2.545 3.884-3.948 3.078-3.542-2.035.309-3.874.095-4.5-1.534-4.5-2.95 0-9.819 7.789-13.671 15.5-7.201 14.416-9.326 25.193-5.821 29.522 1.514 1.87 2.165 2.058 3.902 1.128 3.939-2.108 10.407-12.197 24.776-38.65 4.781-8.8 8.864-16.177 9.074-16.393.806-.827 3.431 2.226 3.431 3.99 0 1.019-2.729 10.215-6.064 20.436-6.275 19.231-7.47 25.854-2.498 13.849 3.241-7.827 17.917-36.876 20.128-39.841 1.445-1.938 1.483-1.937 3.576.156l2.115 2.116-4.179 9.743c-5.494 12.809-10.288 30.08-9.889 35.627.309 4.29.334 4.316 4.061 4.203 4.149-.126 5.129 1.806 1.816 3.579-3.352 1.793-7.811 1.237-9.509-1.188-2.458-3.509-1.516-15.314 2.018-25.277.633-1.786.544-1.839-.826-.5-.845.825-3.897 6.675-6.784 13-5.257 11.519-8.218 16-10.572 16-3.426 0-2.827-7.308 1.791-21.841 1.632-5.137 2.762-9.547 2.509-9.799-.252-.252-2.598 3.501-5.212 8.341-5.736 10.616-11.679 19.654-15.815 24.049L75.608 256h19.637c17.398 0 23.494-.73 19.511-2.336-.691-.278.004-.542 1.544-.585 4.131-.117 8.7-2.797 8.7-5.105 0-1.808.703-1.974 8.369-1.974 16.36 0 33.964-4.186 49.631-11.802 7.608-3.698 10.353-4.557 13.784-4.315 5.505.389 10.109-2.939 13.291-9.606 1.254-2.627 5.688-8.405 9.853-12.839 4.164-4.433 9.686-11.219 12.271-15.078 5.183-7.741 12.278-21.428 13.376-25.804.93-3.706 1.958-1.736 2.838 5.444.925 7.535 7.032 30.099 7.309 27 .361-4.05.809-123.774.452-120.647l-.327 2.852-2.319-2.178c-2.015-1.893-2.794-2.048-5.946-1.177l-3.628 1.002-3.105-6.176c-4.419-8.79-10.624-18.143-17.062-25.719-5.39-6.342-5.516-6.626-4.129-9.273 1.484-2.833 1.098-4.684-.976-4.684-.661 0-1.765-.904-2.455-2.009-1.017-1.627-2.059-1.93-5.491-1.595-3.738.365-5.118-.168-11.736-4.532-17.288-11.4-37.261-18.463-57.776-20.43-6.498-.623-7.212-.897-6.682-2.566C135.083.164 134.514 0 128.067 0 121.721 0 121 .199 121 1.955m-34.192 4.5c-1.946.669-4.917 2.198-6.602 3.398-4.23 3.012-10.61 12.873-12.137 18.758-.697 2.689-1.898 6.586-2.669 8.659-.77 2.074-1.4 6.427-1.4 9.674 0 4.874.446 6.433 2.56 8.945 7.567 8.993 22.545 1.862 29.896-14.233 6.265-13.716 5.629-12.584 5.15-9.156-.23 1.65-.739 4.013-1.129 5.25-.428 1.355-.293 2.25.339 2.25.577 0 1.334-.897 1.682-1.994.729-2.297 3.21-5.006 4.584-5.006.516 0-.416 2.538-2.072 5.641-5.007 9.382-3.502 16.048 3.013 13.35 1.663-.689 3.463-1.982 4-2.872.89-1.478 1.094-1.466 2.337.131 1.926 2.478 5.312 2.169 8.231-.75 3.021-3.021 3.039-3.023 3.718-.426.414 1.584 1.198 1.997 3.324 1.75 3.392-.395 8.364-6.547 10.921-13.513.971-2.646 2.358-5.459 3.082-6.251 2.619-2.867 2.335-.223-.664 6.186-3.315 7.084-3.285 11.202.09 12.274 2.248.713 4.629-.471 7.832-3.896l2.394-2.559 2.933 2.467c4.075 3.429 6.489 3.098 10.852-1.488 2.766-2.907 4.101-5.462 5.034-9.631 1.152-5.148 1.09-6.008-.669-9.293-2.274-4.247-5.899-5.175-9.921-2.539-3.043 1.993-7.037 8.555-7.988 13.122-.793 3.805-4.096 8.297-6.102 8.297-2.14 0-1.827-.925 3.056-9.046 2.466-4.1 4.491-8.418 4.5-9.597.026-3.357-2.487-3.484-5.555-.282-3.198 3.338-4.994 3.852-3.463.991 1.345-2.514 1.33-2.629-.63-4.588-1.553-1.553-1.752-1.508-2.964.679-.715 1.288-1.316 3.468-1.336 4.843-.076 5.305-6.638 19-9.103 19-1.462 0-1.104-3.188 1.068-9.5 1.1-3.197 2-6.852 2-8.121 0-2.646-3.759-5.337-4.431-3.172-.221.711-1.362 4.587-2.535 8.612-1.476 5.062-3.189 8.454-5.557 11-2.962 3.185-3.427 3.401-3.45 1.606-.015-1.141 1.088-5.352 2.45-9.358 1.846-5.428 2.22-7.766 1.465-9.175-1.704-3.184-3.788-2.193-4.959 2.358-2.387 9.277-4.157 13.565-6.512 15.777-3.514 3.302-4.348 1.554-1.596-3.346 6.311-11.239 7.314-13.748 6.088-15.226-1.016-1.224-1.775-.98-5.069 1.629l-3.875 3.069.577-2.883c.39-1.952.073-3.3-.985-4.178-1.328-1.102-1.738-.907-2.747 1.306-1.792 3.934-2.402 3.154-2.006-2.566.856-12.368-5.762-19.57-15.05-16.377M86 10.722c-3.461 1.3-7.42 4.871-10.119 9.127C72.817 24.68 72.262 27 74.171 27c.644 0 1.994.745 3 1.655 1.751 1.584 1.655 1.802-2.262 5.155-4.166 3.566-4.597 5.406-2.443 10.44.577 1.35.266 1.75-1.359 1.75C69.948 46 69 45.523 69 44.941s-.45-.781-1-.441-1 2.134-1 3.986c0 4.638 4.103 7.921 8.922 7.139C85.058 54.143 96 34.876 96 20.273c0-7.656-4.247-11.713-10-9.551m-28.545 7.733c-1.35 1.35-2.455 3.6-2.455 5 0 3.534 3.879 3.421 7.076-.205L64.5 20.5l-2.564 2.25c-3.542 3.107-5.132 2.923-4.331-.5.738-3.154 3.022-5.957 4.032-4.947.376.377-.176 1.7-1.226 2.941L58.5 22.5l2.25-1.905c1.237-1.048 2.25-2.51 2.25-3.25 0-2.139-2.872-1.564-5.545 1.11m106.18 7.182c-3.039 3.04-4.963 8.576-4.474 12.873.742 6.506 7.61 2.95 9.867-5.11 1.407-5.024.577-6.898-1.726-3.898-1.437 1.87-1.502 1.727-1.014-2.252.287-2.337.401-4.25.253-4.25-.147 0-1.455 1.187-2.906 2.637m46.873 6.764C209.129 33.78 208 35.549 208 36.332c0 .783-.675 1.983-1.5 2.668-2.047 1.699-2.07-.864-.032-3.559 2.046-2.704 2.068-5.131.032-3.441-1.036.86-1.5.898-1.5.122 0-.617-.45-1.122-1-1.122-1.404 0-1.253 2.749.177 3.226.69.23.845.929.375 1.69-.652 1.055-.963 1.044-1.662-.059-.688-1.086-.862-1.038-.875.238-.008.877-.877 2.375-1.93 3.328-1.862 1.685-1.901 1.623-1.386-2.215.593-4.425-.616-5.858-3.598-4.262-2.489 1.332-4.75 7.805-3.251 9.304.754.754 1.479.722 2.481-.11.778-.646 2.205-.872 3.17-.501 1.198.459 2.342-.091 3.605-1.733l1.85-2.406.022 2.25c.022 2.242 1.42 3.033 2.441 1.381.295-.478 2.459-.753 4.809-.612 4.552.274 6.294-.599 7.855-3.937.859-1.835.779-1.815-.676.168-2.357 3.213-3.012 2.8-2.59-1.633.47-4.928-1.104-5.921-4.309-2.716m.049 1.822c-1.912 2.728-2.005 4.777-.218 4.777 1.262 0 3.661-3.963 3.661-6.047 0-1.693-1.844-1.013-3.443 1.27m-25.118-.262c-2.252.912-4.502 6.954-4.339 11.655.097 2.803.119 2.815.786.42.418-1.498 1.652-2.685 3.15-3.028 4.12-.946 7.461-10.158 3.607-9.945-.629.035-2.071.439-3.204.898m9.764.295c-1.552 1.869-2.588 6.744-1.434 6.744 1.449 0 2.976-2.135 3.759-5.256.726-2.891-.507-3.68-2.325-1.488m-9.646 1.967c-1.726 2.464-2.078 5.777-.614 5.777 1.361 0 4.057-4.135 4.057-6.223 0-2.433-1.569-2.231-3.443.446M97.034 46.947c-3.802 5.924-10.008 11.726-14.593 13.642l-3.338 1.395 2.449 5.348c1.346 2.941 3.35 8.874 4.452 13.183 1.102 4.31 2.626 8.545 3.386 9.411 2.009 2.288 6.593 11.707 6.712 13.791.056.981.575.306 1.154-1.498.578-1.805 2.577-4.621 4.442-6.259 3.222-2.829 3.339-3.164 2.352-6.719-.571-2.057-1.041-5.941-1.044-8.631-.004-3.064-.543-5.304-1.443-6-1.812-1.4-2.91-7.648-1.673-9.525 1.455-2.208 8.011-1.521 10.886 1.141l2.457 2.274-.664-3.5-.665-3.5 2.048 2.361c1.126 1.298 2.048 3.436 2.048 4.75s.267 2.389.594 2.389c1.393 0 11.406-6.558 11.874-7.776.281-.735-.135-2.886-.927-4.78-1.714-4.103-.512-4.493 2.408-.782 4.041 5.138 3.849 7.315-1.018 11.507-3.252 2.801-4.094 4.068-3.259 4.903 1.851 1.851 5.408-.019 6.919-3.636.775-1.855 1.409-6.054 1.409-9.332 0-6.587 1.715-9.429 5.375-8.907 2.701.385 3.014 4.376.326 4.156-2.817-.23-1.358 2.11 1.529 2.454 1.777.212 3.072-.401 4.173-1.972 2.351-3.356 2.052-5.835-.703-5.835-1.265 0-2.741-.441-3.28-.98-.64-.64-2.271-.624-4.7.047-3.222.889-3.72 1.423-3.72 3.98 0 3.366-1.549 3.949-2.503.942-.352-1.106-1.904-2.665-3.45-3.465l-2.811-1.453.506 6.309c.478 5.95.333 6.504-2.535 9.714-3.204 3.586-5.161 3.558-3.232-.047 1.986-3.712.877-10.085-2.147-12.334-1.668-1.24-3.348-1.727-4.472-1.296-1.533.588-1.582.831-.328 1.637 2.947 1.894-.947 2.699-5.619 1.16-5.238-1.724-6.738-3.97-6.227-9.325.204-2.139.293-3.889.199-3.889-.095 0-1.601 2.226-3.347 4.947m70.105.086c-2.849 2.374-7.865 2.548-10.959.38-3.487-2.442-4.992-.514-4.402 5.633.473 4.915.369 5.156-4.036 9.377-3.12 2.989-3.883 4.165-2.463 3.794 1.56-.408 1.915-.164 1.464 1.009-.869 2.266 3.042 1.044 4.324-1.351C152.126 63.896 158 63.154 158 65c0 .55-.477 1-1.059 1s-.803.414-.491.919c.313.506-1.065 1.459-3.06 2.117-2.454.81-3.215 1.454-2.35 1.989 1.468.907 3.758.27 6.042-1.68 2.377-2.03 6.865-1.225 9.255 1.661l2.113 2.551 2.747-5.809c1.51-3.194 5.091-8.287 7.956-11.316 2.865-3.03 4.379-5.19 3.364-4.8-1.193.458-1.613.332-1.187-.357.362-.586-.037-1.332-.888-1.659-.906-.348-1.287-.174-.919.421.344.557-1.52-.348-4.144-2.012-2.624-1.664-5.02-3.01-5.325-2.992-.305.019-1.616.919-2.915 2M81.5 49c-1.581 1.65-3.54 3-4.354 3-.814 0-1.213.266-.888.591 1.16 1.16 4.724-.757 6.784-3.65 2.682-3.766 2.102-3.744-1.542.059m104.661 9.522c-2.739 3.482-4.486 10.749-3.943 16.4.467 4.854.402 4.991-3.861 8.185-2.384 1.786-4.227 3.314-4.096 3.394.131.079 4.514-.153 9.739-.516 5.225-.364 8.667-.734 7.648-.823-1.125-.099.429-1.361 3.966-3.222 3.2-1.683 6.621-2.85 7.602-2.594.981.257 1.784.321 1.784.142 0-.945-7.048-4.488-8.927-4.488-1.206 0-1.913-.45-1.573-1 .34-.55 1.419-1 2.399-1 .979 0 2.211-1.013 2.738-2.25.839-1.971.179-3.016-5.322-8.431l-6.279-6.18zm-119.808 1.24c.765 1.238-7.829 10.41-8.858 9.453-.423-.393-.558-.04-.301.785.257.825 2.343 1.901 4.637 2.392C65.86 73.254 67.614 75 64.45 75c-.852 0-2.905.701-4.563 1.558l-3.013 1.559 6.742 3.334c5.006 2.475 6.245 3.46 4.813 3.825-1.061.271 1.446.55 5.571.622 4.125.071 8.625.405 10 .742l2.5.613-2.5-2.532c-1.375-1.393-4.46-3.846-6.856-5.451-3.827-2.563-4.394-3.424-4.667-7.075-.538-7.211-1.527-9.998-4.163-11.725-1.408-.923-2.291-1.241-1.961-.708m72.728 10.087c-.595 1.111-1.063 2.837-1.042 3.835.024 1.087.632.451 1.515-1.585 1.622-3.735 1.255-5.479-.473-2.25m7.122 2.901c.416 3.642 1.098 4.092 3.126 2.064 1.027-1.027 1.292-1.93.679-2.309-.555-.343-1.015-.034-1.023.686-.012.978-.248.942-.934-.143-.506-.799-.697-1.811-.426-2.25.271-.439-.009-.798-.622-.798-.625 0-.976 1.207-.8 2.75M32.278 76.883C25.523 78.639 20.601 82 24.786 82c1.218 0 3.002.787 3.964 1.75 1.667 1.667 1.953 1.5 6.008-3.5 2.342-2.888 4.142-5.19 4-5.117-.142.074-3.058.861-6.48 1.75m133.682.722c-.821 2.159-1.426 2.495-3.54 1.964-3.57-.896-9.42 4.897-9.42 9.328 0 3.725 6.849 12.147 8.066 9.917.982-1.799 6.798-23.814 6.291-23.814-.224 0-.852 1.172-1.397 2.605m-58.229.475c.354 1.352.807 1.806 1.057 1.057.24-.722-.038-1.787-.62-2.369-.742-.742-.872-.351-.437 1.312m117.164 1.155c1.767 1.942 3.865 4.371 4.662 5.398 1.27 1.637 1.373 1.652.838.117-.451-1.295-.077-1.75 1.439-1.75 1.126 0 2.34-.472 2.696-1.049.437-.707 1.189-.631 2.309.233 1.165.899 1.091.614-.248-.955-1.748-2.049-3.578-2.785-12-4.822l-2.91-.704zm-87.629 1.563c-1.019 1.493-1.29 1.518-2.199.202-.892-1.291-1.039-1.256-1.052.25-.019 2.205 3.808 2.375 4.64.207.856-2.231-.028-2.651-1.389-.659M.272 89c0 2.475.195 3.487.434 2.25.238-1.237.238-3.263 0-4.5C.467 85.513.272 86.525.272 89m41.092 6.78c.364.59-.047 3.163-.915 5.718-3.61 10.632-4.891 30.489-2.145 33.235 1.284 1.284 1.366.931.666-2.885-.898-4.904-.36-6.305 1.284-3.34 1.383 2.494 6.644 7.492 7.887 7.492.565 0 .573-.686.019-1.75-1.188-2.284-3.415-15.329-2.733-16.01.289-.29.814.226 1.167 1.145.353.919 1.566 2.166 2.697 2.771 1.999 1.069 1.995 1.023-.118-1.663-1.379-1.754-2.173-4.174-2.173-6.628 0-4.541 1.141-4.96 3.031-1.115l1.352 2.75.357-2.5c.738-5.153 1.274-5.506 3.301-2.173 1.821 2.995 6.381 6.084 7.431 5.035.255-.255-.058-2.163-.696-4.239-1.433-4.671-7.622-11.849-12-13.919-4.682-2.215-9.235-3.256-8.412-1.924m103.188.136c-.312.504-.117 2.097.431 3.54.87 2.288 1.268 2.48 3.102 1.499l2.103-1.126-2.268-2.414c-2.571-2.736-2.596-2.748-3.368-1.499m64.941 1.435c-2.754 1.283-6.411 3.931-8.127 5.885-3.085 3.514-7.14 12.323-6.135 13.328 1.263 1.263 8.508-2.849 10.293-5.843 1.446-2.426 2.005-2.802 2.261-1.526.219 1.088.911 1.475 1.935 1.082 1.385-.531 1.516.146.998 5.163-.527 5.106-.433 5.56.811 3.917 1.36-1.794 1.407-1.789 1.396.143-.007 1.1-.375 3.872-.818 6.161-.621 3.204-.513 4.048.466 3.673.7-.269 1.518-1.129 1.818-1.911 1.178-3.07 2.37-1.297 1.565 2.327-.755 3.402-.699 3.57.606 1.809.791-1.068 1.438-2.332 1.438-2.809 0-.477.45-.59 1-.25.55.34 1-.084 1-.941s.376-1.559.834-1.559c1.591 0-2.099-22.424-4.47-27.172-1.046-2.093-1.067-2.779-.099-3.171.824-.333.736-.522-.265-.568-.825-.038-3.753.98-6.507 2.262M101.015 117.75c.009.412.379 1.323.824 2.024.617.973 1.241.795 2.64-.75 1.794-1.984 1.778-2.024-.824-2.024-1.46 0-2.648.338-2.64.75m6.085 1.062c-1.833 3.427-1.348 5.188 1.431 5.188 3.389 0 4.259-2.654 1.708-5.205l-2.038-2.039zm28.9-.434c0 .207.787.995 1.75 1.75 1.586 1.243 1.621 1.208.378-.378-1.307-1.666-2.128-2.195-2.128-1.372M84.25 138.22c-2.098 1.012-3.177 2.926-1.5 2.662 2.195-.347 3.297.233 2.597 1.368-.424.688.605.125 2.288-1.25 4.112-3.359 1.783-5.272-3.385-2.78m86.467-.524c-1.568.407-1.474.707.779 2.479 1.663 1.309 3.167 1.752 4.283 1.262.947-.415 2.171-.677 2.721-.581.55.095-.062-.734-1.361-1.842-2.37-2.022-3.123-2.176-6.422-1.318M38.307 146.5c.924 1.65 2.186 4.35 2.805 6 .62 1.65 1.328 2.458 1.576 1.795.571-1.534-2.373-7.797-4.466-9.499-1.396-1.135-1.386-.923.085 1.704M216.5 150c-.997 2.211-1.493 4.34-1.102 4.731.856.856 2.674-1.806 1.99-2.913-.264-.427.027-1.725.647-2.883s.936-2.297.702-2.531c-.233-.233-1.24 1.385-2.237 3.596m-106.426 18.411c-.644.776-.789 1.647-.323 1.935.467.289 1.393-.346 2.057-1.411 1.389-2.224.02-2.638-1.734-.524M48.385 170.5a358.223 358.223 0 0 1 3.309 5.25c2.583 4.192 10.389 13.346 14.267 16.73 1.904 1.661 4.17 3.711 5.037 4.556.866.846 3.249 2.571 5.295 3.836 2.103 1.3 3.428 2.771 3.048 3.385-.37.598 1.492-.565 4.137-2.585 3.25-2.481 5.859-3.672 8.043-3.672 3.647 0 5.174 1.428 6.903 6.456l1.194 3.475 3.191-5.556c3.933-6.847 4.023-8.375.491-8.375-1.904 0-2.387-.313-1.639-1.061 1.53-1.53-.832-7.805-3.772-10.023-2.278-1.718-2.482-1.713-5.496.15-3.886 2.402-5.044 2.466-3.304.184.734-.963-.18-.4-2.031 1.25-2.497 2.225-3.193 2.515-2.695 1.123.369-1.032.163-2.489-.458-3.238-.938-1.13-1.63-1.005-4.081.74C76.816 185.267 63 189.247 63 187.972c0-.386.841-1.775 1.87-3.087 1.028-1.312 2.166-3.743 2.528-5.404.63-2.883.434-3.106-4.369-4.97-5.982-2.321-6.407-3.499-1.279-3.543 3.514-.03 3.628-.124 1.809-1.5-1.302-.985-4.386-1.468-9.365-1.468H46.77zM149 169c0 .55.45 1 1 1s1-.45 1-1-.45-1-1-1-1 .45-1 1m46.559.532c-1.838 1.39-1.771 1.468 1.25 1.468 3.668 0 4.274 1.511.941 2.348-1.238.311-3.034 1.147-3.993 1.859-1.521 1.128-1.594 1.802-.57 5.293.644 2.2 1.837 4.789 2.651 5.754 1.389 1.647 1.591 1.585 3.307-1 1.005-1.515 3.645-5.229 5.865-8.254 6.984-9.515 7.025-9.005-.725-8.968-4.374.02-7.475.553-8.726 1.5M120 179.691c0 2.581.06 2.612 1.468.75 1.89-2.498 1.898-3.441.032-3.441-.962 0-1.5.966-1.5 2.691m18.393-1.109c.334.87.614 1.882.622 2.25.021.894 1.95-2.125 1.97-3.082.008-.412-.708-.75-1.592-.75-1.055 0-1.398.544-1 1.582m-13.004.988c.336.877.618 2.119.626 2.762.009.67.429.529.985-.332 1.35-2.089 1.242-2.693-.611-3.404-1.18-.453-1.448-.192-1 .974m7.946-.798c-.872.555-.818 1.37.214 3.235l1.38 2.493.036-3.25c.038-3.56.048-3.546-1.63-2.478m28.15 3.275c-.408 1.284-1.221 1.884-2.098 1.548-1.187-.456-1.229-.167-.246 1.678 1.054 1.978 1.01 2.081-.394.924-1.332-1.098-1.642-1.02-1.974.5-.329 1.505-1.005 1.171-4.087-2.021-2.93-3.036-3.816-3.501-4.294-2.256-.331.863-1.063 1.283-1.627.935-.566-.35-.828-.012-.585.756.242.764 2.556 2.064 5.143 2.889 3.114.993 4.623 2.007 4.465 3-.131.825.115 2.063.546 2.75.505.805.217 1.25-.808 1.25-.876 0-3.715 1.064-6.309 2.363-5.285 2.649-9.879 4.159-15.551 5.114-3.45.581-4.061 1.162-6.119 5.824l-2.286 5.18 2.903 1.765c1.597.971 3.208 2.55 3.58 3.51.511 1.315.954.76 1.802-2.256 1.37-4.874 4.436-5.805 8.021-2.437l2.372 2.228 1.093-2.875c1.404-3.692 2.724-4.459 5.72-3.32 1.855.705 3.075.452 5.237-1.088 3.532-2.515 5.576-2.539 7.675-.088 1.619 1.891 1.669 1.891 3.24.009.878-1.052 2.5-2.04 3.605-2.196 1.106-.155 3.118-1.059 4.473-2.008 1.355-.949 2.813-1.725 3.241-1.725.427 0 1.693-.916 2.813-2.036 1.121-1.121 2.428-1.795 2.906-1.5.478.296 1.587-1.568 2.464-4.141 1.791-5.257 2.074-8.738.638-7.85-1.308.808-7.425-1.854-9.864-4.293-1.993-1.993-1.996-1.993-2.696.162-.386 1.187-.615 2.833-.509 3.658.154 1.204-.061 1.253-1.091.25-.706-.687-2.059-1.25-3.007-1.25s-3.074-1.136-4.725-2.525c-2.974-2.503-3.007-2.507-3.667-.428m-54.089 3.107-2.896 3.069 3.5-.709c1.925-.39 4.294-1.559 5.264-2.598.97-1.038 1.473-1.685 1.118-1.437s-1.42.036-2.368-.471c-1.32-.707-2.399-.205-4.618 2.146m9.315-1.155c-.288 1.099-.115 2.251.383 2.559.498.308.906-.592.906-1.999 0-3.064-.57-3.312-1.289-.56m68.102-1.316c.721.289 1.584.253 1.916-.079.332-.332-.258-.568-1.312-.525-1.165.048-1.402.285-.604.604M68 184c-1.828 1.181-.249 1.181 2.5 0 1.319-.567 1.489-.878.5-.914-.825-.031-2.175.381-3 .914m69.068 1.95c-.052 2.63.21 3.172 1.099 2.283.864-.864.881-1.763.068-3.45-1.033-2.144-1.104-2.073-1.167 1.167m51.682-2.288c.688.278 1.813.278 2.5 0 .688-.277.125-.504-1.25-.504s-1.937.227-1.25.504m-66.971 2.077c-.345 1.318-.027 2.335.832 2.665 1.532.588 1.623.054.487-2.85-.734-1.875-.783-1.868-1.319.185m9.954.217c-.697 2.62-.398 3.47 1.019 2.898.483-.195.598-1.479.256-2.854l-.621-2.5zm10.905-.456c-.316.825-.139 1.5.393 1.5.533 0 .969-.675.969-1.5s-.177-1.5-.393-1.5c-.216 0-.652.675-.969 1.5m-15.107.793c-.428.986-.497 2.074-.155 2.417 1.016 1.015 1.835-.411 1.367-2.382-.414-1.747-.468-1.748-1.212-.035m63.055.957c-.194.688-1.427 4.625-2.742 8.75l-2.39 7.5-4.232.568c-6.686.897-12.449 7.705-16.115 19.035-.641 1.982-2.277 4.648-3.636 5.924-2.299 2.16-2.47 2.188-2.456.397.008-1.058 1.117-5.472 2.464-9.807 3.449-11.105 1.304-14.671-5.422-9.011-2.511 2.113-3.375 2.375-4.564 1.388-2.619-2.173-4.07-.35-6.049 7.598-1.981 7.955-6.724 16.971-8.387 15.943-.525-.324-.015-3.674 1.189-7.802 2.854-9.786 2.906-14.14.174-14.53-1.768-.253-2.26.506-3.279 5.056-2.089 9.337-8.767 21.448-10.739 19.476-.303-.302.691-4.685 2.208-9.739 2.826-9.418 2.659-12.105-.795-12.786-1.839-.363-7.361 21.48-6.399 25.311.898 3.579 5.024 3.323 8.397-.521 3.099-3.532 3.775-3.683 4.477-1 .719 2.752 3.574 2.505 6.804-.59 2.316-2.219 3.016-2.422 4.89-1.419 1.203.644 2.295 1.022 2.426.84.132-.182.757-3.23 1.39-6.774.762-4.267 2.256-8.066 4.425-11.248 3.24-4.754 5.619-6.441 4.313-3.059-2.195 5.686-3.608 14.801-2.628 16.952 1.511 3.315 5.336 2.982 8.466-.737l2.554-3.035 2.035 2.035c2.684 2.684 3.332 2.591 7.504-1.072l3.538-3.106 1.806 2.231c1.743 2.152 1.918 2.173 4.997.58 1.754-.907 3.204-1.975 3.222-2.374.017-.398.697-1.604 1.511-2.68 1.459-1.93 1.501-1.926 3.025.25 2.017 2.879 7.239 2.933 10.825.111 6.393-5.028 9.437-17.697 5.684-23.655-1.126-1.787-2.842-3.247-3.812-3.243-4.812.018-12.661 9.007-13.847 15.858-.707 4.085-4.859 11.135-6.557 11.135-1.668 0-.577-4.103 5.599-21.069 3.047-8.369 5.54-15.346 5.54-15.503 0-.157-.707-.992-1.571-1.857-1.894-1.893-3.367-2.016-3.843-.321m-76.631 15.916c-.604 2.246-1.506 5.152-2.002 6.458-1.666 4.381-.011 2.433 2.999-3.53 2.409-4.77 2.705-6.012 1.542-6.458-1.021-.392-1.759.634-2.539 3.53m87.665 2.709c-3.162 3.3-5.869 11.284-5 14.746.727 2.899 4.312 3.217 6.687.592 2.3-2.541 4.697-8.664 4.671-11.931l-.022-2.782-1.845 2.399c-2.174 2.828-3.378 1.097-1.939-2.788 1.268-3.427.567-3.492-2.552-.236m-31.748 1.875c-1.243 1.586-1.208 1.621.378.378 1.666-1.307 2.195-2.128 1.372-2.128-.207 0-.995.787-1.75 1.75m7.396 2.466c-3.009 3.205-6.22 10.677-6.246 14.534-.025 3.673 1.736 4.28 4.276 1.473 2.116-2.338 6.573-12.13 6.925-15.213.374-3.279-2.23-3.696-4.955-.794m51.089 8.297c-.687 1.789 1.295 4.487 3.297 4.487 1.991 0 2.803-2.744 1.335-4.513-1.591-1.918-3.891-1.905-4.632.026m-8.32 1.418c-.78 1.457-.648 2.315.536 3.5 1.962 1.961 2.848 1.971 4.443.05 1.031-1.243.934-1.878-.533-3.5-2.244-2.48-3.14-2.49-4.446-.05m9.63-1.264c-1.151 1.15-.729 2.333.833 2.333.825 0 1.5-.675 1.5-1.5 0-1.562-1.183-1.984-2.333-.833m-17.562 2.706c-1.67 2.013-.256 4.627 2.502 4.627 1.857 0 2.393-.536 2.393-2.393 0-1.316-.712-2.666-1.582-3-2.08-.798-1.999-.817-3.313.766m8.895.21c0 1.766 2.153 1.459 2.771-.395.218-.654-.317-1.188-1.188-1.188-.87 0-1.583.713-1.583 1.583m-8 2c0 1.766 2.153 1.459 2.771-.395.218-.654-.317-1.188-1.188-1.188-.87 0-1.583.713-1.583 1.583M55.113 231.25a567.363 567.363 0 0 0-2.116 5.834c-1.066 2.987-1.672 3.51-3.636 3.134-4.988-.953-11.436 6.368-11.255 12.782l.099 3.5.73-3c1.157-4.751 3.891-9.34 6.637-11.139 5.474-3.587 5.827 3.205.431 8.298-3.279 3.095-3.958 5.675-1.359 5.164 2.728-.536 5.18-4.813 8.675-15.134 3.098-9.146 4.775-11.726 5.471-8.417.159.757-1.079 5.087-2.75 9.621-4.341 11.772-3.779 16.199.925 7.292 1.071-2.027 1.961-3.235 1.979-2.685.017.55-1.062 2.912-2.398 5.25-1.871 3.273-2.095 4.25-.975 4.25.8 0 2.458-2.064 3.683-4.587 2.181-4.489 2.188-4.616.323-5.98-1.859-1.36-1.862-1.538-.093-7.382 1.48-4.886 1.58-6.269.542-7.519-1.824-2.198-3.943-1.888-4.913.718m-10.495 15.819c-1.823 3.087-1.673 4.701.323 3.468.59-.365 1.757-1.985 2.592-3.6 2.138-4.135-.464-4.017-2.915.132"/><path fill="#1976D2" fill-opacity=".441" fill-rule="evenodd" d="M91 4.93c8.265 1.652 11.392 5.977 11.458 15.843.031 4.585.285 5.729.945 4.25.496-1.113 1.493-2.023 2.215-2.023 1.832 0 3.506 3.489 2.724 5.678-.478 1.338.135 1.092 2.308-.928 3.441-3.197 4.858-3.423 6.27-1 .935 1.605 1.022 1.61 1.05.059.047-2.642 1.96-3.182 4.173-1.179 2.244 2.03 2.176 2.957-1.004 13.62-1.107 3.712-1.607 6.75-1.112 6.75 1.871 0 5.855-7.456 8.059-15.083 1.258-4.355 2.808-7.917 3.446-7.917.637 0 1.931.855 2.877 1.899 1.631 1.802 1.581 2.341-.975 10.537-1.481 4.751-2.455 8.876-2.164 9.167.29.291 1.666-.964 3.056-2.787 2.618-3.434 5.014-9.693 6.083-15.892.339-1.967 1.237-4.425 1.996-5.463 1.2-1.641 1.597-1.704 3.067-.484.995.825 1.512 2.325 1.259 3.648-.428 2.243-.424 2.242 2.922-.31 2.771-2.113 3.615-2.337 4.872-1.294 1.924 1.596 1.302 3.647-3.653 12.037-4.506 7.633-5.065 10.411-1.4 6.968 1.36-1.277 3.202-4.832 4.093-7.899 1.156-3.973 2.851-6.806 5.897-9.852 5.396-5.396 8.705-5.69 11.549-1.025 5.358 8.787-1.306 24.75-10.332 24.75-2.549 0-4.076-.651-5.283-2.25l-1.697-2.25-3.249 3.25c-5.065 5.065-10.45 4.043-10.45-1.983 0-1.559 1.125-5.054 2.5-7.767 2.787-5.499 2.915-6 1.539-6-.529 0-1.417 1.688-1.973 3.75-1.511 5.608-7.187 14.477-10.377 16.217-2.664 1.453-2.913 1.408-4.784-.871l-1.975-2.404-2.77 2.654c-3.302 3.164-5.549 3.365-7.44.665-1.373-1.96-1.426-1.953-3.731.5-1.43 1.523-3.444 2.489-5.188 2.489-5.488 0-5.761-7.19-.598-15.75 1.078-1.788 1.485-3.25.904-3.25-.58 0-1.766 1.373-2.633 3.051-1.117 2.16-2.088 2.889-3.325 2.496-1.317-.418-2.281.545-3.917 3.912-2.845 5.856-8.658 12.207-13.374 14.613-4.617 2.356-11.601 2.496-14.741.297-4.876-3.415-6.426-12.223-3.497-19.869.843-2.2 1.932-5.899 2.42-8.219 1.193-5.666 4.291-11.535 8.62-16.326 3.958-4.382 3.952-4.413-.511-2.857-2.353.82-3.149 1.705-3.149 3.5 0 2-.5 2.402-2.987 2.402-2.424 0-3.242.612-4.345 3.25-2.453 5.87-8.061 8.165-10.126 4.145-1.081-2.103-1.085-2.102-2.946.365-1.025 1.359-3.856 3.352-6.292 4.43-4.147 1.834-4.599 1.855-7.116.325L35.5 27.881l2.361 2.06c3.05 2.661 4.742 2.594 10.693-.418 2.691-1.362 5.234-2.135 5.652-1.717.418.418-3.342 4.795-8.355 9.727-12.76 12.554-24.977 29.259-27.921 38.179-1.148 3.479-2.703 4.015-6.209 2.139-1.918-1.027-2.605-.628-6.449 3.739-2.366 2.689-4.075 5.48-3.798 6.202.29.757.049 1.031-.57.649-.676-.418-.949.21-.738 1.698.26 1.837 1.445 2.733 5.334 4.036 3.739 1.252 4.951 2.135 4.804 3.5-.108 1.004-.899 6.55-1.758 12.325-2.701 18.158.016 40.531 7.004 57.677C25.772 192.761 39.936 210.545 61.202 225c6.067 4.124 6.583 4.751 6.174 7.5-.245 1.65.39.525 1.412-2.5 4.568-13.521 12.85-26.21 19.277-29.534 3.712-1.919 4.546-1.855 6.935.534 2.862 2.862 2.699 8.995-.314 11.826-3.244 3.047-4.037 2.722-3.37-1.384.891-5.489.096-6.706-3.25-4.976C80.893 210.175 70 232.249 70 243.075c0 5.931.735 7.925 2.92 7.925 3.797 0 8.854-7.354 24.067-35 6.205-11.275 11.459-20.7 11.675-20.944.216-.245 1.366.528 2.555 1.716l2.161 2.162-5.819 17.783c-3.201 9.781-6.01 18.458-6.244 19.283-.233.825 3.165-5.808 7.552-14.741C118.16 202.339 123.63 193 125.417 193c.7 0 2.048.856 2.994 1.902 1.636 1.807 1.598 2.147-.761 6.803-6.11 12.056-13.434 38.035-12.158 43.121.498 1.981 1.062 2.295 3.304 1.834 1.487-.305 8.329-.764 15.204-1.02 18.706-.696 32.688-4.108 49.698-12.127 7.482-3.528 9.923-4.239 13.09-3.815 3.359.451 4.404.073 7.634-2.764 2.059-1.807 4.803-5.482 6.098-8.167 1.294-2.684 3.46-5.75 4.812-6.814 4.02-3.162 17.074-19.912 21.516-27.609 2.272-3.936 5.458-10.459 7.079-14.495 1.622-4.036 3.16-6.665 3.418-5.843.259.822 1.452 6.894 2.651 13.494 1.2 6.6 2.995 14.475 3.99 17.5 1.796 5.463 1.811 5.125 2.112-49.5.167-30.25.197-56.752.068-58.894-.291-4.835-3.712-9.997-6.029-9.099-5.874 2.273-6.475 1.97-9.913-5.004-4.317-8.757-10.936-18.72-17.175-25.849-2.777-3.174-5.049-5.948-5.049-6.165 0-.217.52-1.537 1.156-2.933 1.011-2.218.845-2.825-1.318-4.83l-2.474-2.293.023 3.838.022 3.838 1.773-2.304c2.247-2.92 2.378-.589.158 2.798-1.214 1.854-2.248 2.386-3.851 1.984-1.206-.303-2.509-.233-2.897.154-1.123 1.123-7.485 1.242-8.158.152-.385-.622-1.183-.516-2.149.286-.846.702-3.079 1.374-4.963 1.495-2.66.17-3.596-.241-4.187-1.838-.735-1.988-.817-1.97-2.471.554-.941 1.435-2.6 2.61-3.687 2.61-1.31 0-1.977.674-1.977 2 0 2.078-1.45 2.699-2.466 1.055-.321-.52.133-3.8 1.01-7.29l1.594-6.346 3.931-.156c3.366-.135 3.931.142 3.931 1.925 0 1.931.15 1.891 2.073-.553 3.816-4.852 6.677-3.126 6.087 3.673-.292 3.363 1.586.756 2.731-3.791.626-2.484 1.581-4.517 2.123-4.517.542 0 .986.352.986.783 0 .817 4.644.907 5.445.105.253-.253-.62-.549-1.941-.658-1.32-.11-6.381-2.813-11.246-6.007C178.301 11.775 152.357 4 129.776 4 125.254 4 124 4.333 124 5.532c0 2.072-5.916 17.298-6.975 17.953-.465.287-1.527.26-2.361-.06-1.252-.481-.832-1.996 2.41-8.701 2.159-4.465 3.926-8.63 3.926-9.256 0-1.221-8.662-.433-16.716 1.521-3.602.874-4.695.731-7.5-.979-1.806-1.102-4.634-1.952-6.284-1.891-2.946.109-2.938.123.5.811m-7 1.039c0 .532.675.709 1.5.393.825-.317 1.5-.753 1.5-.969C87 5.177 86.325 5 85.5 5s-1.5.436-1.5.969M39.323 14.25c-3.236 3.426-4.988 8.221-3.37 9.221.528.326.704 1.259.392 2.072-.391 1.019-.097 1.299.943.9.83-.319 1.807-.099 2.17.489 1.473 2.383 5.364.984 9.381-3.373C54.978 16.899 55.745 11 50.472 11c-1.659 0-2.341.403-1.897 1.122C49.331 13.345 43.119 27 41.807 27c-1.484 0-.81-3.451 1.747-8.945 2.302-4.944 2.347-5.276.497-3.601-1.121 1.014-2.806 3.584-3.744 5.712-1.605 3.638-3.244 4.522-4.028 2.172-.19-.571 1.214-3.355 3.12-6.188 1.906-2.832 3.359-5.15 3.23-5.15-.13 0-1.618 1.462-3.306 3.25M83.5 12.871c-3.672 2.28-6.764 5.664-8.768 9.592-1.415 2.775-1.382 3.028.53 4 3.029 1.539 4.634 4.652 2.748 5.329-.82.294-2.706 1.751-4.192 3.236-2.724 2.724-2.916 5.699-.561 8.71 1.157 1.48-1.435 2.791-3.757 1.9-2.464-.945-2.05 6.997.434 8.327 3.677 1.968 8.414 1.196 12.295-2.002 7.178-5.917 15.368-27.462 13.408-35.273-1.429-5.696-6.531-7.301-12.137-3.819m57.53 2.802c-.018 1.88-1.036 4.369-2.497 6.105-2.259 2.685-2.337 3.09-.925 4.827.847 1.042 1.294 1.396.994.786-.301-.611.598-3.406 1.997-6.213 1.946-3.906 2.299-5.522 1.502-6.89-.879-1.511-1.045-1.297-1.071 1.385m-82.01 3.803c-.789.95-.865 1.524-.201 1.524 1.208 0 2.617-1.897 1.924-2.591-.252-.251-1.027.229-1.723 1.067m1.072 2.129C58.296 23.39 58.076 24 59.227 24c.848 0 2.28-1.125 3.181-2.5 2.042-3.117.871-3.063-2.316.105m103.468 4.329c-2.003 2.213-4.451 8.552-4.516 11.694-.055 2.677 2.183 4.606 4.372 3.766 1.839-.706 4.9-6.233 6.017-10.867.693-2.872.653-2.914-1.187-1.25-2.831 2.563-3.571 2.115-2.94-1.777.66-4.067.581-4.138-1.746-1.566m-38.997 7.881c-.972 2.923-1.544 5.538-1.271 5.811.764.763 3.983-8.302 3.481-9.803-.244-.727-1.238 1.069-2.21 3.992M112 38.5c-4.478 8.113-4.713 10.451-.603 6.016 2.211-2.385 6.086-12.367 5.161-13.292-.192-.192-2.243 3.083-4.558 7.276m-11.376-4.961c-.965 2.514-.681 3.163.498 1.136.584-1.004.851-2.036.593-2.293-.257-.258-.749.263-1.091 1.157m110.411.395c-1.274 2.381-1.361 5.385-.133 4.627 1.335-.826 3.155-6.561 2.081-6.561-.502 0-1.378.87-1.948 1.934M161 37.433c0 4.192 1.3 4.565 3.612 1.036 1.85-2.822 1.809-2.937-1.362-3.912-2.042-.628-2.25-.362-2.25 2.876m34.2-2.233c-.66.66-1.2 2.335-1.2 3.723 0 2.421.053 2.443 1.334.55 2.92-4.319 2.828-7.235-.134-4.273m-9.812 2.331c-1.839 2.806-1.228 4.411.98 2.579 1.686-1.4 2.82-5.11 1.561-5.11-.485 0-1.629 1.139-2.541 2.531M206 37c-.589 1.1-.845 2-.57 2s.981-.9 1.57-2c.589-1.1.845-2 .57-2s-.981.9-1.57 2M83.029 41.052c-3.01 1.658-6.414 3.9-7.565 4.982C74.313 47.115 72.928 48 72.386 48c-.543 0-1.52.534-2.172 1.186-.915.915-.811 1.601.455 3 2.514 2.778 6.763 2.251 10.86-1.346 3.417-2.999 9.367-12.86 7.738-12.822-.422.01-3.229 1.375-6.238 3.034m86.752 2.437c-4.642 5.341-7.748 6.231-12.883 3.691-5.024-2.486-6.352-1.106-6.011 6.246l.245 5.289-6.517 5.721c-6.255 5.492-6.528 5.926-6.815 10.814-.191 3.247-.803 5.259-1.689 5.551-.843.278-1.115.014-.691-.671.384-.622.207-1.13-.392-1.13-1.751 0-2.451 3.116-.924 4.114.768.502 2.183.723 3.146.493.963-.231 1.75-.194 1.75.082 0 1.175-4.672 7.19-9.361 12.053-3.7 3.837-4.758 5.539-3.946 6.351.811.811 1.278.573 1.742-.89.982-3.092 4.913-1.725 4.12 1.433-.698 2.781.091 2.994 2.616.709 1.623-1.468 1.829-1.478 1.829-.088 0 .922.719 1.461 1.748 1.309 1.163-.17 1.948-1.48 2.343-3.908.326-2.008 1.301-4.44 2.166-5.405.866-.964 1.905-3.553 2.309-5.753.405-2.2 1.382-4.993 2.171-6.206.789-1.213 1.13-2.7.757-3.304-1.013-1.639 3.702-7.975 5.942-7.983 1.064-.004 2.864-.871 4-1.927 2.519-2.343 6.631-1.803 8.45 1.109 2.059 3.297-.301 7.811-4.084 7.811-4.444 0-8.803 4.793-8.798 9.673.004 3.096.816 4.722 4.25 8.514 4.405 4.862 5.349 8.096 4.233 14.502-.387 2.225-1.588 3.828-3.97 5.301-2.417 1.494-3.241 2.607-2.819 3.81.486 1.386.347 1.469-.751.45-1.905-1.768-3.35-1.582-9.468 1.217-3.671 1.679-5.91 3.465-7.01 5.593-.889 1.719-1.46 3.282-1.27 3.473.663.662 8.726-6.04 8.764-7.283.02-.687.487-1.25 1.037-1.25.55 0 1 2.025 1 4.5 0 4.884.357 5.286 2.652 2.991.83-.83 1.971-1.224 2.535-.875.665.41.585.907-.226 1.408-.872.539-.333 1.249 1.772 2.338 2.797 1.446 3.146 1.429 4.646-.228.907-1.002 1.628-3.519 1.636-5.713.012-2.9.268-3.53.985-2.421.868 1.343 1.425.734 1.126-1.228-.13-.849 6.017-4.281 7.124-3.978.412.113.75-.169.75-.627 0-.459.675-.834 1.5-.834 2.031 0 1.887 1.304-.582 5.299-1.17 1.893-1.594 3.368-.968 3.368.612 0 1.372-.675 1.688-1.5.841-2.192 2.362-1.832 2.362.559 0 1.132.412 1.805.915 1.494.503-.311 1.142 0 1.421.691 1.09 2.704.62-1.978-.716-7.127l-1.38-5.32 3.13-1.413c3.652-1.65 5.407-2.705 11.967-7.195 4.589-3.141 4.802-3.192 4.167-1-.593 2.05-.387 1.972 1.825-.689 2.073-2.492 2.247-3.14 1.033-3.827-3.027-1.714-12.172-1.807-21.228-.216-5.151.904-9.576 1.434-9.833 1.177-.653-.652 3.178-9.093 5.791-12.764l2.166-3.041 15.621.347c16.245.361 15.454.193 26.454 5.634.458.227.073-1.059-.857-2.856-2.598-5.024-10.32-12.768-14.091-14.132-3.346-1.21-4.557-2.815-2.135-2.83 1.358-.008 5.75-7.054 5.75-9.224C204 62.22 193.938 52 192.415 52c-1.529 0-6.94 6.014-8.998 10-1.212 2.35-1.824 5.8-1.861 10.5-.056 7.04-.507 8.044-4.717 10.504-1.375.804-1.615.558-1.396-1.438.185-1.684-.324-2.563-1.69-2.92-1.186-.311-1.668-.975-1.226-1.69.401-.649.122-1.555-.621-2.014-.942-.582-1.733-.019-2.618 1.862-1.232 2.619-1.252 2.624-.714.196 2.068-9.319 11.178-22.253 18.405-26.129l3.133-1.679-2.279-1.596c-2.963-2.076-3.49-2.015-4.142.479-.855 3.268-4.691.745-4.691-3.085 0-2.195-.696-3.298-2.75-4.359-2.664-1.375-2.867-1.286-6.469 2.858m-72.104 1.063c-2.485 5.211-10.22 13.048-15.309 15.512-3.058 1.48-4.152 2.503-3.519 3.292C80 64.788 85.014 78.699 84.961 80.31c-.022.654-.719-.376-1.549-2.29-.873-2.014-1.805-3.025-2.211-2.4-.385.594-1.376 1.378-2.201 1.741-.825.364-.452.464.829.223 1.622-.305 2.177-.042 1.828.867-.275.718.027 1.893.671 2.611 1.091 1.215-.94.125-6.714-3.602-2.03-1.311-2.449-2.53-2.808-8.161-.351-5.513-.806-6.885-2.722-8.209-1.266-.875-3.3-2.584-4.52-3.8l-2.219-2.209-4.797 4.87-4.798 4.871 1.875 3.839c1.525 3.122 2.482 3.898 5.125 4.152 3.778.365 4.275 1.713.939 2.55-5.832 1.464-16.719 12.928-16.674 17.558.011 1.122.238 1.228.785.368.424-.666 3.004-2.235 5.735-3.486 4.322-1.979 6.936-2.32 20.181-2.628l15.215-.353 2.919 4.602c3.457 5.451 5.631 10.428 4.883 11.176-.295.295-4.687-.226-9.76-1.159-8.561-1.573-18.355-1.559-20.927.03-.656.406-.592 1.283.183 2.525.882 1.411 1.522 1.625 2.48.831.922-.766 1.291-.756 1.291.034 0 .608 2.362 2.288 5.25 3.734 2.888 1.446 6.682 3.703 8.433 5.017 1.751 1.313 3.611 2.388 4.132 2.388.53 0 .358 1.658-.389 3.75-1.858 5.205-1.827 8.341.074 7.612.825-.317 1.5-1.273 1.5-2.124 0-1.31.307-1.27 2 .262 2.321 2.1 2.612.893.468-1.941-1.543-2.041-1.997-5.557-.718-5.562 2.381-.009 9.25 4.725 9.25 6.374 0 1.552.257 1.66 1.5.629 1.295-1.075 1.5-.64 1.5 3.178 0 5.658 1.211 6.946 5.136 5.465 2.041-.771 2.834-1.65 2.531-2.808-.294-1.125.02-1.509.946-1.153.896.343 1.387-.171 1.387-1.453 0-1.091.648-2.522 1.441-3.18 1.665-1.382 1.054-3.647-1.804-6.679-1.552-1.646-2.932-2.052-6.073-1.786-3.491.295-3.641.235-1.064-.425 2.866-.735 2.899-.803.748-1.532-1.601-.543-2.149-1.394-1.896-2.945.196-1.2.164-1.619-.071-.932-.709 2.074-2.887 1.409-4.099-1.25-.757-1.662-.791-2.5-.102-2.5.571 0 .72-.562.332-1.25-.564-1-.436-1 .641 0 2.122 1.97 3.444 1.457 1.574-.61-2.409-2.662-.715-6.555 5.306-12.199 4.788-4.487 4.856-4.636 4.339-9.5-.627-5.888-2.38-8.183-6.901-9.031-1.844-.346-3.112-1.021-2.816-1.499.296-.478.031-1.816-.588-2.974-.903-1.687-.783-2.483.608-4.02 2.377-2.626 8.002-2.576 9.425.083 1.516 2.833 3.33 2.504 2.755-.5-.797-4.172 1.08-2.794 2.385 1.75.671 2.338 1.315 4.388 1.431 4.557.488.713 11.596-7.078 12.15-8.522.333-.869.096-2.976-.528-4.682L127.06 55.5l2.47 2.806c2.891 3.284 3.193 7.12.72 9.15-7.406 6.079-6.934 5.4-4.862 7.005 1.365 1.056 2.404 1.185 3.75.465 3.549-1.899 5.18-5.803 5.357-12.822.093-3.714.497-7.282.896-7.928 1.062-1.718 5.609-1.48 5.609.293 0 .894-.586 1.243-1.5.893-1.045-.401-1.5.072-1.5 1.562 0 4.913 7.507 3.084 9.282-2.261 1.234-3.714.334-4.436-6.282-5.04-6.38-.583-9.59 1.012-8.722 4.331.294 1.125.408 2.046.254 2.046-.154 0-2.005-1.579-4.112-3.509-2.986-2.735-4.003-3.201-4.612-2.112-.43.768-.299 2.784.292 4.479 1.315 3.77-.157 9.006-3.307 11.771-2.093 1.836-2.117 1.834-1.301-.129 3.01-7.239.849-12.944-5.356-14.145-3.104-.6-3.312-.484-2.683 1.497.797 2.51.364 2.576-4.88.751-5.394-1.877-6.844-4.111-6.075-9.353.761-5.177-.533-5.497-2.821-.698m44.969 23.9c-2.257 2.092-2.63 3.232-2.54 7.75l.105 5.298 2.053-6.5c1.129-3.575 2.769-7.048 3.645-7.718.875-.67 1.094-1.233.487-1.25-.607-.018-2.295 1.072-3.75 2.42m-110.61 7.859c-6.795 1.993-7.804 2.638-11.245 7.189-2.08 2.75-3.783 5.254-3.786 5.563-.003.31 1.55 1.174 3.45 1.919 1.9.746 3.223 1.73 2.941 2.187-.283.457.525.829 1.795.827 1.81-.003 2.728-1.022 4.247-4.715 1.066-2.592 4.242-7.09 7.057-9.997 2.815-2.906 4.643-5.256 4.062-5.223-.582.034-4.416 1.046-8.521 2.25m192.462 2.819c2.053 2.271 4.838 6.546 6.19 9.5 1.733 3.785 3.027 5.37 4.385 5.37 1.06 0 1.927-.406 1.927-.902 0-1.109 5.604-3.161 6.415-2.35.322.322.585.128.585-.431 0-1.315-5.149-8.353-7.604-10.394C234.849 78.636 223.772 75 221.399 75c-.348 0 1.047 1.858 3.099 4.13M149 78.622c0 1.329.271 1.398 1.5.378.825-.685 1.5-1.415 1.5-1.622 0-.208-.675-.378-1.5-.378s-1.5.73-1.5 1.622M.158 90c0 1.375.227 1.938.504 1.25.278-.687.278-1.812 0-2.5-.277-.687-.504-.125-.504 1.25m146.183 3.302c.381 1.078.236 1.555-.36 1.187-1.526-.944-2.278 2.115-1.517 6.172l.684 3.645 2.549-2.549c1.699-1.699 2.268-3.001 1.704-3.903-.464-.745-.939-1.975-1.054-2.735-.114-.759-.756-1.884-1.425-2.5-.93-.855-1.067-.694-.581.683m-31.883 1.823c.499 1.76.413 1.997-.331.915-.864-1.255-1.294-1.198-3.066.405-2.385 2.158-2.653 3.555-.683 3.555.757 0 1.933.67 2.613 1.489.68.819 1.573 1.28 1.986 1.025 1.102-.681.915-8.463-.22-9.164-.589-.364-.707.334-.299 1.775m-79.486 8.121c-2.358 9.94-3.261 29.58-1.529 33.254.519 1.1.995 4.025 1.059 6.5.115 4.491 2.649 14.222 4.41 16.93 1.165 1.794 12.522 2.795 13.512 1.192.441-.713.078-.868-1.036-.441-1.144.439-1.481.279-1.011-.482.436-.705-.324-1.399-1.993-1.818l-2.698-.677 2.657-1.935c3.815-2.78 3.509-6.137-.744-8.155C42.479 145.184 30.838 131 33.964 131c.496 0 1.21 1.012 1.587 2.25.934 3.067 2.946 5.212 9.734 10.381 5.709 4.347 5.764 4.365 4.207 1.354-.916-1.771-2.043-2.762-2.689-2.363-.649.401-.832.235-.441-.398.369-.597.216-1.367-.34-1.711-.556-.343-1.487-1.512-2.067-2.598-1.041-1.943-.999-1.943 2.729.056C50.65 140.096 55 140.939 52 139c-1.078-.697-1.134-.974-.199-.985.824-.009.365-1.242-1.25-3.359-3.744-4.909-3.108-5.278 1.089-.632 2.002 2.216 3.885 3.784 4.184 3.486.298-.299.01-1.076-.641-1.727-.651-.65-1.183-1.797-1.183-2.548 0-.75-1.411-2.552-3.136-4.003-3.009-2.532-6.522-8.907-5.481-9.948.275-.275 1.139 1.011 1.92 2.858.782 1.847 2.291 4.132 3.355 5.078 1.874 1.668 1.921 1.616 1.536-1.687-.219-1.874-1.252-4.181-2.296-5.125-1.293-1.17-1.885-3.024-1.858-5.813l.04-4.095 1.623 3c.893 1.65 1.588 3.225 1.545 3.5-.142.91 2.055 3.093 4.17 4.143 1.675.833 1.584.578-.467-1.304-2.213-2.031-2.476-2.922-2-6.763l.549-4.425 1.395 2.629c1.147 2.164 6.386 5.72 8.426 5.72.285 0 .054-1.679-.512-3.731-1.528-5.531-6.449-12.085-11.463-15.265-2.437-1.545-3.963-2.966-3.392-3.157.571-.191-1.622-.461-4.874-.601l-5.912-.254zm176.072-7.669c-7.638 3.314-13.701 10.255-16.02 18.339-.776 2.705-.641 3.084 1.095 3.084 2.984 0 7.421-2.605 9.746-5.722l2.072-2.778.047 2.5c.038 2.043.241 2.226 1.107 1 .768-1.088.886.237.427 4.818-.731 7.298-1.368 9.393-2.623 8.617-.492-.304-.895-.076-.895.506s.499 1.059 1.108 1.059c.672 0 .871.948.505 2.405-.527 2.099-.318 2.336 1.642 1.862 1.235-.299 3.2-1.405 4.367-2.459 2.117-1.912 2.12-1.91 1.605.888-.284 1.542-1.839 4.492-3.456 6.554-1.616 2.063-2.697 3.75-2.402 3.75 1.366 0 5.524-2.364 5.169-2.939-.22-.355.477-.712 1.548-.793 1.64-.123 1.373.556-1.689 4.293-2.001 2.441-3.369 4.439-3.041 4.439 1.459 0 10.63-9.784 11.611-12.389 1.186-3.146 2.603-2.983 1.598.185-.727 2.29-13.54 16.171-13.573 14.704-.026-1.152-1.954 1.587-1.977 2.809-.008.445.483.501 1.092.125.742-.459.889.003.446 1.399-.472 1.488-.075 2.449 1.393 3.365 2.782 1.738 2.593 2.419-1.021 3.678-4.273 1.49-2.688 3.235 2.497 2.75 6.38-.596 8.333-2.061 9.934-7.453 5.426-18.271 5.571-38.464.406-56.423-1.023-3.557-1.289-3.748-5.17-3.711-2.251.022-5.647.714-7.548 1.538M121 102.416c0 1.904.411 2.289 2 1.874 1.1-.288 2-.596 2-.684 0-.089-.9-.932-2-1.874-1.92-1.644-2-1.617-2 .684m35.079.167c.048 1.165.285 1.402.604.605.289-.722.253-1.585-.079-1.917-.332-.332-.568.258-.525 1.312m82.48.602c.381 1.202 1.278 3.565 1.992 5.25 1.066 2.513 1.42 2.755 1.972 1.34.401-1.031-.204-3.141-1.507-5.25-2.477-4.006-3.477-4.552-2.457-1.34m-216.533 1.354c.039 2.881 3.79 10.516 3.893 7.922.045-1.121-.819-3.803-1.919-5.961-1.293-2.536-1.991-3.23-1.974-1.961m137.641 1.128c-.367.366-.667 1.131-.667 1.7 0 .626.466.567 1.183-.15.651-.651.951-1.416.667-1.7-.284-.284-.817-.217-1.183.15M114.5 107c-.34.55.11 1 1 1s1.34-.45 1-1c-.34-.55-.79-1-1-1-.21 0-.66.45-1 1m30.313.683c.721.289 1.584.253 1.916-.079.332-.332-.258-.568-1.312-.525-1.165.048-1.402.285-.604.604m91.337 3.038c-.083 1.222-1.275 4.766-2.65 7.875-2.679 6.057-3.098 8.404-1.5 8.404.55 0 1-.843 1-1.873s.928-3.971 2.063-6.536c1.135-2.565 1.877-5.885 1.65-7.377-.332-2.177-.443-2.275-.563-.493m-218.4 8.991C14.813 127.235 14.359 130 16.059 130c.582 0 .761-.483.396-1.073s.54-3.752 2.009-7.027c1.47-3.274 2.529-6.691 2.354-7.593-.175-.901-1.556 1.531-3.068 5.405m104.525-.781c-.995 1.594-.852 1.838 1.035 1.761 1.204-.049 3.315.247 4.69.657 2.271.678 2.317.638.5-.441-1.1-.653-2.691-1.782-3.534-2.508-1.292-1.111-1.718-1.026-2.691.531m12.561-.119c-1.559 1.585-1.456 1.699 1.599 1.776 3.072.078 3.171-.025 1.692-1.753-.864-1.009-1.584-1.808-1.599-1.776-.016.033-.777.822-1.692 1.753m75.415 4.146c-1.1 2.223-1.584 4.042-1.075 4.042 1.017 0 4.205-6.952 3.508-7.65-.239-.238-1.334 1.386-2.433 3.608m-5.692-1.426c-1.068.807-1.46 1.468-.873 1.468.588 0 1.629-.675 2.314-1.5 1.557-1.876 1.067-1.866-1.441.032m38.527 2.086c-1.132 1.439-1.795 3.044-1.472 3.566.707 1.145.713 1.14 2.785-2.934 1.996-3.926 1.475-4.177-1.313-.632M115 122.566c0 1.485 2.17 4.315 4.459 5.815 2.27 1.487 2.541 1.497 2.541.094 0-.864-1.191-2.674-2.646-4.023-2.511-2.327-4.354-3.126-4.354-1.886m-87.886 3.016c-1.163 1.478-2.109 3.64-2.102 4.803.009 1.558.673.958 2.523-2.278 2.898-5.069 2.668-6.451-.421-2.525m54.963 14.007c-1.692 1.424-3.077 2.953-3.077 3.399 0 .446 1.912 1.032 4.25 1.302 2.338.271 5.801.807 7.697 1.192 2.646.538 3.733.308 4.681-.988 1.642-2.246.745-4.25-2.7-6.031-4.131-2.137-7.374-1.8-10.851 1.126m84.551-.339c-1.993 1.804-2.306 2.698-1.584 4.513.784 1.969 1.392 2.183 4.679 1.648 2.077-.338 5.465-.841 7.527-1.118 4.441-.596 4.808-2.316 1.115-5.22-3.503-2.756-8.584-2.679-11.737.177m-62.965 1.5c.314 1.238.974 2.25 1.468 2.25s1.79 1.463 2.88 3.25c1.335 2.19 1.983 2.675 1.985 1.485.002-.97-1.55-3.445-3.45-5.5-2.822-3.051-3.349-3.323-2.883-1.485m52.087-.67c-1.609.937-4.75 5.9-4.75 7.505 0 .377 1.003-.613 2.229-2.2 1.225-1.587 2.8-3.48 3.5-4.206 2.149-2.235 1.746-2.686-.979-1.099M79 147.617c0 1.188.596 1.457 2.25 1.013 1.237-.331 3.15-.616 4.25-.632 1.659-.024 1.744-.194.5-.998-2.498-1.614-7-1.217-7 .617m96-.617c-1.222.79-1.098.972.668.985 1.193.008 2.88.288 3.75.622 1.038.398 1.582.055 1.582-1 0-1.807-3.582-2.17-6-.607m-125.921 4.583c.048 1.165.285 1.402.604.605.289-.722.253-1.585-.079-1.917-.332-.332-.568.258-.525 1.312m27.542 5.13c-1.601 1.601-.309 5.648 2.889 9.052 3.831 4.076 3.829 3.036-.012-4.969-1.241-2.587-2.536-4.425-2.877-4.083m105.955 1.048c-.389 1.225-1.274 2.794-1.967 3.488-.694.693-1.567 2.793-1.942 4.667l-.682 3.407 2.11-1.909c3.35-3.031 5.007-6.964 4.038-9.582l-.85-2.299zM40 162.458c0 1.756 7.399 14.874 11.365 20.151 5.112 6.801 15.994 17.374 22.39 21.755l4.18 2.863 4.6-4.049c5.957-5.243 9.791-6.16 13.032-3.115 1.321 1.241 2.693 3.804 3.047 5.695l.645 3.438 3.871-6.672c2.128-3.669 3.87-7.088 3.87-7.598 0-.961-1.454-1.313-3.946-.956-1.21.174-1.231-.052-.128-1.381 1.059-1.276 1.072-1.886.067-3.097-.778-.937-1.029-2.883-.663-5.136.53-3.267.451-3.439-.796-1.741-1.318 1.794-1.436 1.75-2.459-.93-.591-1.548-1.089-3.573-1.105-4.5-.028-1.552-.11-1.548-1.039.044-.554.952-3.24 2.798-5.969 4.104L86 183.708v-3.354c0-3.922-.208-3.996-3.79-1.36-2.587 1.903-13.873 4.676-14.891 3.658-.268-.267.415-2.523 1.517-5.013l2.002-4.528-3.669-.387c-3.664-.387-3.663-.388.581-.556 2.338-.092 4.25-.556 4.25-1.029 0-.474-1.032-.664-2.294-.423-1.373.262-3.28-.382-4.75-1.606l-2.456-2.043 3.25-.034c1.787-.018 3.25-.483 3.25-1.033 0-.55-1.924-1-4.276-1-4.67 0-20.171-1.758-22.974-2.606-.962-.291-1.75-.262-1.75.064m172.5.564c-2.2.436-7.713 1.113-12.25 1.504-8.008.69-11.555 2.457-5 2.491l3.25.017-3.37 2.157c-2.859 1.83-3.817 1.988-6.323 1.042-2.534-.956-2.784-.91-1.758.326.658.793 2.153 1.448 3.323 1.456 1.56.012 1.769.243.784.868-1.111.704-1.068 1.387.25 3.935 2.709 5.239 2.21 6.293-2.656 5.603-2.338-.331-6.41-1.628-9.051-2.883l-4.8-2.282-.575 2.872c-.316 1.58-.765 2.872-.999 2.872-.94 0-6.937-3.339-8.573-4.774-1.608-1.41-1.837-1.28-2.848 1.62-1.174 3.368-1.878 3.78-3.567 2.091-.749-.75-1.255-.099-1.717 2.211l-.654 3.272-2.61-2.609c-2.481-2.482-2.53-2.725-.983-4.933 2.168-3.095 2.046-5.679-.464-9.796-1.569-2.574-2.292-3.081-2.927-2.054-.468.758-.429 2.137.088 3.102 1.304 2.438 1.239 8.895-.07 6.87-.533-.825-.976-2.772-.985-4.326l-.015-2.826-2.75 2.292c-2.397 1.998-2.78 3.093-2.985 8.539-.196 5.227.013 6.152 1.28 5.665 1.02-.391 1.301-1.277.861-2.712l-.654-2.132 2.374 2.162c1.306 1.189 3.949 2.84 5.874 3.669 1.925.828 2.868 1.543 2.095 1.587-1.068.062-.948.598.5 2.23l1.905 2.148-4.264-.662c-3.146-.489-4.923-.23-6.781.987-1.385.908-2.804 1.363-3.155 1.012-.351-.35-1.447.095-2.436.99-.996.902-2.69 1.394-3.797 1.105-3.497-.915-8.661 5.821-10.704 13.964-.407 1.618-.145 2.308.874 2.308 2.1 0 4.763 3.291 4.763 5.888 0 3.519 1.643 1.588 2.902-3.412.631-2.507 1.815-4.814 2.63-5.127 2.311-.886 6.29 2.305 6.707 5.379.331 2.432.54 2.178 1.709-2.063 1.457-5.288 3.254-6.645 6.291-4.748 1.649 1.03 2.326.916 4.117-.693 1.179-1.059 2.91-2.195 3.845-2.525 2.412-.849 5.955 2.372 6.141 5.584.181 3.108 1.252 3.571 2.098.907 1.186-3.737 8.68-10.096 12.877-10.926 4.058-.803 4.084-.836 6.619-8.785 1.399-4.388 2.936-8.261 3.415-8.606 1.511-1.089 4.719.304 6.317 2.743 1.247 1.902 1.325 2.966.411 5.587l-1.128 3.237 3.624-3.47c7.102-6.8 17.945-22.474 19.867-28.72.773-2.509.115-2.625-6.942-1.228m-101.739 4.362c-.957.727-2.419 2.947-3.25 4.935-1.374 3.288-1.353 3.944.223 7.249l1.733 3.634-2.849 2.45c-1.567 1.348-2.602 2.697-2.3 2.999 1.129 1.13 8.265-1.94 10.402-4.474l2.219-2.633-.219 2.674c-.121 1.47.23 2.585.78 2.478.55-.108.847-.646.661-1.196-.186-.55-.325-3.079-.308-5.62.024-3.636-.474-5.059-2.336-6.678l-2.366-2.057-.663 3.927c-.365 2.161-1.132 3.928-1.704 3.928-1.415 0-.109-7.849 1.79-10.75 1.637-2.501.841-2.881-1.813-.866m9.053 12.152c.376 3.214.536 3.373 1.768 1.75 1.809-2.386 1.755-3.943-.164-4.679-.87-.334-1.679-.607-1.799-.607-.12 0-.032 1.591.195 3.536m18.451-2.879c-.949.384-.886 1.176.276 3.421 1.965 3.801 2.459 3.685 2.459-.578 0-3.465-.335-3.813-2.735-2.843m-13.243 4.593.022 3.25L127 182c2.488-3.181 2.488-4 0-4-1.594 0-1.995.659-1.978 3.25m7.01-2c.037 1.468 2.962 5.578 2.982 4.191.007-.517.285-1.953.616-3.191.487-1.815.194-2.25-1.513-2.25-1.165 0-2.103.563-2.085 1.25m-10.402 6c-.886 3.309-.784 3.75.87 3.75 1 0 1.5-1 1.5-3 0-3.518-1.501-3.993-2.37-.75m6.258-1.75c-.336.55-.907 2.238-1.269 3.75-.636 2.663-.526 2.75 3.479 2.75 3.8 0 4.086-.182 3.532-2.25-.331-1.238-.609-2.588-.616-3-.033-1.784-2.014-.554-2.014 1.25 0 3.023-1.821 2.397-2.184-.75-.174-1.512-.591-2.3-.928-1.75m8.91 2.425c-.369 2.51-.104 3.075 1.443 3.075 1.499 0 1.752-.469 1.214-2.25-1.132-3.746-2.181-4.072-2.657-.825m50.98 8.875-2.679 8.8h-3.443c-2.169 0-4.707.964-6.86 2.607-3.318 2.53-8.888 11.722-10.177 16.793-.639 2.515-4.362 7.622-5.024 6.892-.335-.37.327-3.068 3.451-14.065 1.094-3.852 1.098-4.949.018-6.25-1.754-2.114-3.68-1.986-7.133.472-2.246 1.599-3.309 1.819-4.839 1-3.261-1.745-3.638-1.323-5.528 6.201-2.227 8.861-4.692 14.799-6.901 16.622-2.187 1.805-2.125 1.195.944-9.237l2.608-8.864-2.096-2.097c-2.73-2.729-3.676-1.718-6.003 6.421-2.102 7.349-5.233 13.928-7.543 15.844-2.285 1.897-2.076-.109.933-8.957 1.378-4.052 2.255-8.158 1.949-9.124-.585-1.844-4.157-3.489-5.235-2.412-1.103 1.104-5.191 18.913-5.206 22.682-.026 6.652 4.593 7.504 9.442 1.742 1.399-1.663 2.544-2.571 2.544-2.018 0 1.888 2.961 3.971 4.918 3.459 1.074-.281 2.707-1.344 3.629-2.363 1.203-1.329 2.494-1.69 4.565-1.276 1.588.318 2.888.379 2.888.137 0-.243.486-3.112 1.08-6.375.967-5.318 6.474-16.213 7.617-15.071.241.242-.267 2.816-1.129 5.72-1.995 6.718-1.994 11.348.003 13.346 2.327 2.327 4.291 1.93 7.511-1.517 2.635-2.821 3.022-2.951 4.473-1.5 2.304 2.304 5.457 1.951 8.486-.951 2.344-2.246 2.797-2.361 3.927-1 2.153 2.594 5.595 1.801 8.996-2.072l3.17-3.612 2.248 2.112c4.573 4.296 10.941 1.238 15.093-7.247 4.722-9.653 2.899-20.642-3.424-20.642-5.498 0-13.079 9.003-14.605 17.344-.387 2.114-1.801 5.039-3.142 6.5l-2.438 2.656.632-3.855c.348-2.12 2.592-9.095 4.987-15.5 5.571-14.898 6.034-16.815 4.504-18.658-2.813-3.389-4.462-1.716-7.211 7.313m-76.413.273c3.163 2.487 3.277 4.688.675 13.045-1.077 3.463-1.846 6.409-1.708 6.548.139.138 2.182-3.36 4.541-7.774 4.388-8.208 4.691-10.892 1.23-10.892-1.078 0-2.635-.675-3.46-1.5-.825-.825-2.043-1.5-2.706-1.5-.664 0-.021.933 1.428 2.073m89.856 11.677c-4.077 5.855-5.577 14.792-2.67 15.908 2.417.927 6.324-3.497 7.964-9.019 1.379-4.644 1.303-7.935-.098-4.282-.347.904-1.317 1.643-2.155 1.643-1.183 0-1.397-.783-.956-3.5.685-4.22.402-4.322-2.085-.75m-113.776 2.311c-1.597 1.764-1.655 2.194-.405 2.985 2.388 1.51 2.96 1.115 2.96-2.046 0-3.561-.137-3.611-2.555-.939m91.293.026c-3.734 2.174-9.28 16.842-6.919 18.301 1.551.959 5.806-4.771 8.103-10.91 3.024-8.082 2.767-9.692-1.184-7.391m53.134 12.663c-1.243 1.586-1.208 1.621.378.378 1.666-1.307 2.195-2.128 1.372-2.128-.207 0-.995.787-1.75 1.75m-8.234.75c-.316.825-.139 1.5.393 1.5.533 0 .969-.675.969-1.5s-.177-1.5-.393-1.5c-.216 0-.652.675-.969 1.5m-127.765 4.748c-3.586 7.029-12.937 21.756-16.109 25.368L76.793 256h19.103c12.069 0 19.104-.368 19.104-1 0-.55-.436-1-.969-1-.532 0-.709-.675-.393-1.5.317-.825.055-1.5-.582-1.5s-1.837-1.625-2.667-3.611c-1.23-2.943-1.316-4.838-.465-10.25.574-3.651 1.493-8.184 2.042-10.072 1.634-5.613-.359-2.284-5.945 9.933-5.919 12.947-7.524 15.215-10.466 14.794-1.847-.264-2.043-.951-1.933-6.794.074-3.928 1.12-9.567 2.644-14.25 1.387-4.262 2.354-7.75 2.148-7.75-.205 0-1.349 1.912-2.541 4.248M214.5 225c-1.63.701-1.688.872-.309.93.93.038 1.969-.38 2.309-.93.711-1.15.676-1.15-2 0M58.867 235.75c-2.698 6.851-5.823 16.627-5.438 17.012.233.233 1.524-1.305 2.869-3.419 1.449-2.278 2.043-4.1 1.457-4.474-.612-.391-.188-2.769 1.115-6.25 1.156-3.09 1.872-5.619 1.591-5.619-.281 0-.998 1.238-1.594 2.75m12.875 3.819c-.255 1.337-.077 2.431.397 2.431.473 0 .861-.73.861-1.622 0-1.284.295-1.378 1.411-.452.789.655 1.657.773 1.969.269.306-.496-.507-1.387-1.808-1.98-2.098-.956-2.418-.804-2.83 1.354m-22.887 1.512c1.575.623 2.154 1.453 1.75 2.507-.333.867-.605 1.987-.605 2.491 0 .503-1.593 2.679-3.54 4.834-1.948 2.155-3.138 4.168-2.646 4.472 1.262.78 4.825-3.265 6.518-7.399 2.96-7.225 2.941-7.47-.596-7.661-2.957-.161-3.033-.096-.881.756M44 242c-.901.582-1.025.975-.309.985.655.008 1.469-.435 1.809-.985.767-1.242.421-1.242-1.5 0m-3.128 3.75c-1.243 1.586-1.208 1.621.378.378 1.666-1.307 2.195-2.128 1.372-2.128-.207 0-.995.787-1.75 1.75m4.572.694c-.943 1.44-1.465 2.868-1.159 3.174.305.306 1.327-.623 2.271-2.062.943-1.44 1.465-2.868 1.159-3.174-.305-.306-1.327.623-2.271 2.062m11.768 5.056c-1.202 2.475-1.832 4.5-1.398 4.5.433 0 1.771-2.025 2.974-4.5 1.202-2.475 1.832-4.5 1.398-4.5-.433 0-1.771 2.025-2.974 4.5M72 248c0 .55.477 1 1.059 1s.781-.45.441-1-.816-1-1.059-1-.441.45-.441 1m50.629.524c-.321.838-1.607 1.935-2.857 2.437-2.18.875-2.187.915-.177.976 1.927.058 5.405-2.687 5.405-4.266 0-1.298-1.793-.653-2.371.853M67 253.941c0 .518.445 1.216.989 1.552.566.35.734-.051.393-.941-.665-1.732-1.382-2.049-1.382-.611"/><path fill="#1976D2" fill-opacity=".494" fill-rule="evenodd" d="M124.702 4.632c-.386.386-.713 1.639-.726 2.785-.019 1.719-1.817 6.605-5.642 15.333-.337.769.231 1.25 1.476 1.25 1.113 0 2.896 1.198 3.963 2.662 2.149 2.951 5.227 2.697 5.227-.431 0-2.94 1.964-4.321 4.339-3.05 1.72.921 2.464.604 4.846-2.062 3.058-3.423 3.323-4.653 1.84-8.554-1.431-3.764.494-3.134 2.092.685.748 1.788 1.365 3.475 1.371 3.75.007.275 1.059 1.547 2.339 2.827 1.464 1.464 2.09 2.947 1.686 3.999-.371.968.632.452 2.387-1.23 2.535-2.428 3.278-2.693 4.564-1.626.845.701 1.536 2.075 1.536 3.052 0 1.386.75 1.028 3.4-1.622 2.627-2.627 4.231-3.4 7.056-3.4 3.392 0 3.806.338 5.722 4.669 1.836 4.152 1.936 5.243.901 9.869-.72 3.219-2.515 6.871-4.708 9.582l-3.544 4.38 4.367-4.723 4.366-4.723 3.245 1.973 3.244 1.974.855-2.251c.47-1.237 1.022-3.122 1.227-4.187.463-2.412 6.385-4.21 8.388-2.547 1.013.841 1.985.7 3.919-.567 3.156-2.068 5.528-.624 5.625 3.423.057 2.336.153 2.406.871.628.443-1.1 1.114-3.407 1.489-5.127.651-2.987.398-3.307-5.635-7.117-19.124-12.078-38.056-18.024-62.836-19.735-4.702-.325-8.865-.275-9.25.111m-16.572 1.93c-4.054.739-7.547 1.522-7.763 1.738-.216.216.288 2.023 1.12 4.014.832 1.992 1.52 5.549 1.528 7.904.011 3.01.29 3.848.939 2.822.791-1.25 1.221-1.192 2.985.405 1.134 1.026 2.061 2.525 2.061 3.332 0 1.202.276 1.239 1.524.203.838-.696 1.312-1.478 1.052-1.738-.26-.259 1.528-4.358 3.974-9.107 2.445-4.749 4.447-9.197 4.448-9.885.002-1.509-2.211-1.451-11.868.312m-58.885 5.592c.261.741-.609 3.512-1.934 6.158-1.324 2.647-2.851 5.977-3.391 7.399-.858 2.257-.79 2.426.537 1.325.837-.695 1.32-1.588 1.073-1.987-.246-.398.907-2.26 2.563-4.136 2.459-2.789 2.705-2.91 1.343-.663-.916 1.512-1.235 2.75-.708 2.75 1.588 0 4.498-6.354 4.122-9.004-.204-1.447-1.125-2.623-2.215-2.831-1.223-.233-1.702.108-1.39.989m25.505-.465c-.963.252-1.75 1.169-1.75 2.039 0 1.366.273 1.335 2-.228 1.701-1.539 2.616-2.786 1.75-2.384-.138.064-1.037.322-2 .573m9.234 1.145C80.843 14.488 74 22.904 74 25.113c0 .488.649.887 1.443.887s2.144 1 3 2.223c1.488 2.124 1.369 2.384-2.688 5.878-4.224 3.639-4.238 3.674-2.937 7.272.719 1.988 1.041 4.046.715 4.573-.326.527 1.617-.528 4.316-2.345 2.7-1.816 6.959-4.15 9.464-5.187 4.238-1.752 4.664-2.273 6.121-7.465C95.684 22.93 95.505 15.505 93 13c-2.48-2.48-4.548-2.518-9.016-.166m-42.369 5.631C40.727 19.82 40 21.587 40 22.391c0 .805-.788 1.695-1.75 1.978-1.469.433-1.444.485.155.324 1.204-.122 2.569-1.757 3.709-4.443 2.039-4.804 1.872-5.403-.499-1.785m25.589-.196c.347 1.51-7.047 8.731-8.94 8.731-2.256 0-24.572 23.128-29.429 30.5-6.483 9.842-12.193 20.476-11.412 21.256.539.539 8.426-1.217 28.673-6.386 1.366-.348 1.463-1.231.674-6.138-1.043-6.492-.066-22.533 1.32-21.676.501.309.91 1.613.91 2.898 0 1.954 3.691 15.479 4.451 16.308.132.144 2.512-2.011 5.29-4.789 3.622-3.622 4.906-5.606 4.539-7.012C62.997 50.882 62.144 50 61.383 50c-.76 0-1.383-.436-1.383-.969 0-.532.675-.709 1.5-.393 1.184.455 1.5-.295 1.5-3.563 0-2.277.604-5.587 1.343-7.357.739-1.77 1.673-5.018 2.076-7.218.402-2.2 1.775-5.883 3.049-8.184 1.935-3.494 2.074-4.278.843-4.75-2.355-.904-3.421-.662-3.107.703m-7.065 3.764C58.841 23.115 58.209 24 58.734 24c.526 0 1.771-.9 2.766-2 2.287-2.527 1.695-2.513-1.361.033M50 26.793c-1.925 1.921-2.6 2.985-1.5 2.366 3.531-1.987 5.719-4.007 5.354-4.945-.194-.502-1.929.659-3.854 2.579M162.854 28c-.905 1.375-1.91 3.4-2.232 4.5-.511 1.741-.071 2.029 3.396 2.227 2.19.125 3.988-.1 3.996-.5.007-.4.263-1.852.568-3.227.474-2.134.392-2.244-.563-.75-1.695 2.652-2.858 2.108-3.206-1.5l-.313-3.25zM143 32c-.589 1.1-.845 2-.57 2s.981-.9 1.57-2c.589-1.1.845-2 .57-2s-.981.9-1.57 2m8.5 2c-.853 1.65-1.326 3-1.051 3 .275 0 1.198-1.35 2.051-3 .853-1.65 1.326-3 1.051-3-.275 0-1.198 1.35-2.051 3m-29.386 3.014c-.664 2.215-.934 4.468-.601 5.007.333.538.128.979-.454.979-.582 0-1.059.505-1.059 1.122 0 .78.455.745 1.489-.113.819-.68 1.237-1.643.929-2.142-.308-.498-.033-2.502.611-4.454.643-1.951.973-3.745.731-3.986-.242-.242-.982 1.372-1.646 3.587m89.2-2.264c-.342.962-.811 2.2-1.042 2.75-.231.55.288.126 1.154-.941 1.572-1.939 2.047-3.559 1.043-3.559-.293 0-.812.788-1.155 1.75m-98.148 2.693c-1.369 2.32-1.587 3.272-.668 2.92 1.175-.451 4.008-6.363 3.049-6.363-.192 0-1.264 1.549-2.381 3.443m19.992.423c-1.225 4.088-1.513 6.823-.627 5.936.293-.292.7-1.38.907-2.417.206-1.037.69-3.122 1.077-4.635 1.07-4.191-.04-3.278-1.357 1.116M195 36.5c-.581 1.528-.831 3.002-.556 3.277.275.275.975-.749 1.556-2.277.581-1.528.831-3.002.556-3.277-.275-.275-.975.749-1.556 2.277m-91 .5c-.589 1.1-.845 2-.57 2s.981-.9 1.57-2c.589-1.1.845-2 .57-2s-.981.9-1.57 2m82.168-.313c-1.726 3.223-1.419 5.116.407 2.51.866-1.237 1.391-2.798 1.167-3.47-.245-.737-.87-.356-1.574.96m30.011 3.597c-.824.993-2.681 1.419-5.464 1.254-2.318-.138-4.777.19-5.465.728-.825.647-1.7.606-2.574-.12-.915-.759-1.644-.778-2.362-.06-1.644 1.644-8.092 1.887-9.364.353-.93-1.12-1.499-1.005-3.287.661l-2.163 2.014 2.5 1.948c1.904 1.483 3.454 1.814 6.5 1.387l4-.561-2.267 1.823-2.267 1.823 5.397 5.331 5.397 5.33 1.617-4.348c.889-2.391 2.222-6.782 2.961-9.758 2.061-8.296 3.162-4.555 3.162 10.747v13.335l11 2.939c14.209 3.795 18.5 4.489 18.5 2.993 0-3.69-10.341-20.603-18.848-30.824-2.654-3.189-5.028-6.406-5.275-7.149-.365-1.093-.687-1.064-1.698.154M147.5 41c-.34.55-.168 1 .382 1s1.278-.45 1.618-1c.34-.55.168-1-.382-1s-1.278.45-1.618 1m-37.919 2.649c-.848 2.21-.138 2.727 1.325.964.71-.855.81-1.67.247-2.018-.519-.321-1.226.153-1.572 1.054M96 45c-.589 1.1-.845 2-.57 2s.981-.9 1.57-2c.589-1.1.845-2 .57-2s-.981.9-1.57 2m39.563 1.674c-1.615 1.941-3.865 3.905-5 4.364-1.446.586-1.59.854-.48.899 1.608.064 8.917-6.578 8.917-8.104 0-1.212-.205-1.043-3.437 2.841m14.202-.147c-2.055 1.91-3.405 3.466-3 3.458 1.059-.022 2.405-1.13 5.159-4.244 3.319-3.753 2.338-3.396-2.159.786m-81.75 2.317c.011 1.887.267 2.26.882 1.288.477-.752 1.408-1.703 2.07-2.111.814-.504.529-.92-.882-1.289-1.729-.452-2.082-.091-2.07 2.112m55.188.202c-.702 1.125-2.273 2.447-3.49 2.937-1.66.668-1.785.906-.502.954 1.695.062 5.789-3.562 5.789-5.126 0-1.263-.414-.978-1.797 1.235M90.957 52.25c-1.857 2.337-2.587 3.615-1.62 2.839C91.157 53.627 95.442 48 94.735 48c-.22 0-1.92 1.913-3.778 4.25m19.145-.593c-1.869 1.289-2.769 2.328-2 2.31 1.463-.035 6.469-3.783 5.79-4.335-.216-.175-1.921.736-3.79 2.025M83.5 58.068c-1.65 1.057-2.487 1.924-1.861 1.927.627.003 2.202-.88 3.5-1.962 2.973-2.477 2.258-2.461-1.639.035m-7.687 3.615c.721.289 1.584.253 1.916-.079.332-.332-.258-.568-1.312-.525-1.165.048-1.402.285-.604.604M105.5 65c-.34.55-1.465 1-2.5 1s-2.207.526-2.605 1.17c-.471.762-.198.968.782.592.827-.317 2.139-.175 2.914.315 1.028.651.673.897-1.31.908-2.002.011-2.567.41-2.143 1.515.317.825 1.54 1.545 2.719 1.6 1.931.09 1.896.174-.357.858-2.355.714-2.299.781.968 1.15 4.409.498 8.032 5.451 8.032 10.981 0 2.086.481 4.09 1.068 4.453.588.363.818 1.313.512 2.111-.307.798-.135 1.19.381.871 1.459-.902 3.189 3.211 2.847 6.769-.222 2.309.108 3.207 1.178 3.207 2.166 0 2.436-3.207.517-6.136-.915-1.396-1.446-2.755-1.18-3.02.265-.265 1.298.899 2.295 2.587.997 1.688 2.193 3.069 2.657 3.069.463 0 .565.45.225 1-.34.55-.239 1 .225 1 1.127 0 10.399-9.666 13.19-13.75 2.083-3.048 2.105-3.25.353-3.25-2.883 0-4.359-1.962-3.16-4.201.683-1.277 1.642-1.696 2.941-1.284 1.713.544 1.856.244 1.295-2.702-.804-4.221-1.344-4.859-1.344-1.587 0 2.93-1.622 3.807-6.832 3.695-2.017-.043-2.993-.304-2.168-.579 3.889-1.297 4.518-1.45 4.764-1.157.241.288 3.236-5.008 3.236-5.722 0-.17-1.315 1.006-2.923 2.614-3.487 3.487-6.816 3.802-7.945.752-.492-1.331-1.066-1.745-1.484-1.069-.374.606-.223 1.384.336 1.73 1.914 1.183 1.017 2.233-1.499 1.752-3.47-.663-4.004-1.985-1.84-4.555 1.594-1.894 1.478-1.867-.863.201-2.112 1.865-2.494 2.781-1.743 4.184 1.567 2.93 1.099 3.32-.95.79-1.123-1.388-1.6-2.914-1.156-3.706.414-.741.544-2.439.289-3.774-.338-1.77-.793-2.153-1.68-1.417-.865.718-1.893.29-3.554-1.477-2.537-2.702-3.534-3.032-4.488-1.488m35.959 5.067c-.363.586-.445 1.281-.183 1.543s.743-.218 1.069-1.067c.676-1.762.1-2.072-.886-.476M157 70.5c-.685.825-1.795 1.5-2.467 1.5-.673 0-2.002.86-2.953 1.912-1.637 1.808-1.637 1.931-.008 2.25 1.484.291 1.336.798-1.06 3.643-2.981 3.541-3.909 8.899-2.294 13.243.851 2.289.981 2.329 1.957.595.972-1.729 1.172-1.662 2.888.953 1.343 2.047 1.554 3.16.777 4.097-.587.707-1.466 1.038-1.953.737-.488-.301-.887.154-.887 1.011 0 1.989 1.939 1.99 4.777.002 2.109-1.476 2.223-1.435 2.223.8 0 1.296-.532 2.889-1.183 3.54-.651.651-.962 1.406-.69 1.677.613.614 4.873-2.295 4.873-3.326 0-.415-2.025-3.126-4.5-6.025-5.507-6.452-5.804-9.554-1.396-14.574 2.408-2.743 3.92-3.565 6.75-3.671 2.328-.087 2.833-.293 1.396-.57-1.238-.238-2.25-.81-2.25-1.27 0-.46.861-.611 1.914-.336 1.276.333 2.304-.227 3.081-1.679.642-1.199 1.018-2.278.836-2.397-6.232-4.086-7.896-4.443-9.831-2.112m5.5 2.5c-.34.55.335 1 1.5 1s1.84-.45 1.5-1c-.34-.55-1.015-1-1.5-1-.485 0-1.16.45-1.5 1m-22.305 2.5c.02 1.65.244 2.204.498 1.231.254-.973.237-2.323-.037-3-.274-.677-.481.119-.461 1.769M36.848 78.75c-4.051 4.41-6.615 8.569-7.573 12.287l-.892 3.463-8.578.86-8.578.86-1.364 6.14c-2.042 9.2-1.749 39.303.462 47.344.938 3.412 1.62 6.562 1.516 7-.105.438.326 1.921.957 3.296.63 1.375 2.914 6.675 5.073 11.778 6.054 14.304 13.395 25.239 24.629 36.69 8.709 8.877 20.505 18.446 24.745 20.073.921.353 2.117-1.349 3.697-5.26 1.285-3.179 3.593-7.875 5.129-10.435l2.792-4.654-5.681-3.752c-7.823-5.167-19.828-17.475-25.607-26.255-5.346-8.121-10.574-19.797-12.621-28.185-.738-3.025-1.485-5.692-1.659-5.927-.559-.755-6.295 5.254-6.295 6.595 0 1.477-3.215 2.389-7.249 2.058-3.568-.293-3.485-1.807.249-4.568 1.65-1.22 3-2.906 3-3.747 0-.841.45-1.251 1-.911 1.61.995 1.176 2.256-1.694 4.917-2.357 2.186-2.48 2.579-.987 3.152 2.708 1.039 4.553-1.352 4.879-6.321.168-2.55.858-4.775 1.553-5.003.765-.252 1.03.163.682 1.07-.841 2.192 1.164 2.945 2.986 1.123 2.005-2.005 1.984-2.31-.419-5.938-2.285-3.45-2.671-5.971-.468-3.059 1.322 1.749 1.468.948 1.468-8.066 0-10.601 1.095-18.53 3.746-27.125 1.525-4.944 1.811-5.25 4.916-5.25 2.784 0 3.612-.584 5.32-3.75 1.113-2.062 2.782-4.875 3.709-6.25s1.103-1.98.392-1.345c-1.637 1.462-10.216-2.488-9.568-4.405.709-2.1-1.004-1.399-3.667 1.5m183.346-1.826c.168.694-.594 1.783-1.694 2.419-1.1.636-2.225 1.448-2.5 1.804-.795 1.029-4.386 1.375-5.702.549-.661-.415.351 1.554 2.25 4.375C214.447 88.892 216 91.606 216 92.1c0 .495 2.363.907 5.25.915 3.434.01 4.767.322 3.853.9-1.186.751-1.14 1.905.304 7.654.935 3.723 2.107 11.53 2.605 17.35l.905 10.581 4.042 3.636c3.046 2.741 4.041 4.388 4.041 6.691 0 1.68-.385 3.293-.856 3.584-.47.291-.653-.528-.406-1.819.316-1.653-.245-2.836-1.895-3.997-2.116-1.49-2.375-1.496-2.677-.069-.257 1.221-.646 1.321-1.708.439-1.09-.904-1.485-.655-1.899 1.197-.289 1.286-1.215 5.436-2.058 9.222-1.477 6.626-2.245 8.764-6.686 18.616-4.396 9.754-20.118 30-23.295 30-1.197 0-8.599 18.92-10.089 25.788l-.589 2.712 2.082-2.5c1.145-1.375 2.337-3.625 2.648-5 2.18-9.623 8.16-18.142 13.714-19.536 5.076-1.274 9.265 4.915 8.427 12.452l-.51 4.584 7.88-8.29c9.773-10.282 18.689-23.673 23.518-35.323 2.026-4.888 4.012-8.887 4.413-8.887.4 0 1.028 2.363 1.395 5.25.752 5.918 6.551 30.75 7.182 30.75.225 0 .409-23.625.409-52.5 0-52.047-.017-52.5-2.025-52.5-1.267 0-2.448 1.028-3.157 2.75-.824 2.001-1.239 2.308-1.525 1.125-.317-1.315-2.525-1.781-11.592-2.45-6.161-.454-9.963-.991-8.451-1.192 1.512-.201 2.75-.8 2.75-1.332 0-3.904-7.342-14.426-9.246-13.249-.585.361-.774.189-.42-.384.354-.573-.051-1.619-.901-2.324-1.228-1.019-1.483-1.023-1.239-.02M4.57 83.099C3.156 84.779 2 86.499 2 86.922 2 88.604 10.291 94 12.875 94c.536 0 2.371-2.577 4.076-5.726 1.706-3.15 2.595-5.22 1.974-4.599-1.292 1.292-5.817.281-9.478-2.118-2.173-1.424-2.457-1.334-4.877 1.542M249 82.672c-2.475 1.238-5.062 2.057-5.75 1.821-1.666-.573-1.611-.291.975 5.032 1.968 4.051 2.515 4.508 4.75 3.959 5.096-1.25 7.025-3.278 7.025-7.385 0-5.365-1.58-6.138-7-3.427M117 82.5c0 .825.45 1.5 1 1.5s1-.675 1-1.5-.45-1.5-1-1.5-1 .675-1 1.5m-57.474 5.567c-5.684.95-12.697 3.848-12.008 4.962.255.412 1.705 1.048 3.223 1.412 1.517.365 4.682 2.025 7.031 3.689 4.08 2.89 4.499 2.978 9.299 1.948 2.765-.593 6.693-1.145 8.728-1.228 3.046-.123 3.212-.224.934-.568-1.793-.271-2.513-.829-2.045-1.586.397-.642.598-2.596.448-4.343-.191-2.218.275-3.496 1.545-4.234 2.243-1.305-9.452-1.34-17.155-.052m124.292-.098c1.988.872 2.273 1.623 2 5.274-.24 3.207-.811 4.417-2.318 4.907-1.413.46-.913.68 1.701.75 2.035.055 6.008.595 8.829 1.2 4.61.989 5.348.899 7.299-.883 2.728-2.492 8.058-5.217 10.205-5.217 3.144 0 .755-2.516-4.102-4.319-5.377-1.996-28.001-3.637-23.614-1.712m-80.026 7.781c-1.419 1.513-2.872 4.132-3.227 5.821-.548 2.607-.275 3.24 1.803 4.187 2.411 1.099 2.427 1.075 1.046-1.571-2.245-4.304-1.829-5.241 1.573-3.543 1.643.819 3.463 1.196 4.044.837.581-.359 1.798-.052 2.705.683 1.321 1.071 1.491 1.076.859.024-.434-.721-1.889-1.729-3.232-2.24-2.164-.823-2.308-1.187-1.258-3.189 1.152-2.193 1.129-2.208-.791-.507-2.499 2.216-3.882 1.033-1.661-1.421 2.657-2.935.981-2.108-1.861.919m38.419.262c-.71 1.148-1.669 4.118-2.133 6.6-.685 3.667-.584 4.412.54 3.981.76-.292 1.382-.004 1.382.638 0 .842.35.816 1.25-.093 1.001-1.011.902-1.459-.5-2.25-.963-.543-1.75-1.442-1.75-1.997 0-.555.453-.729 1.007-.387 1.37.847 2.202-1.652 1.813-5.447-.306-3-.375-3.044-1.609-1.045m95.79 4.679c.001 3.48 3.373 12.602 4.312 11.663 1.185-1.185.688-5.769-.845-7.795-.807-1.068-1.468-2.729-1.468-3.691 0-.963-.45-2.028-1-2.368-.576-.356-1 .573-.999 2.191M22.094 104c-.061 3.345 1.829 10.256 3.172 11.599.35.35.914-.469 1.253-1.82.384-1.53-.124-3.932-1.348-6.368-1.081-2.151-2.201-4.586-2.489-5.411-.288-.825-.553.075-.588 2m124.638-.714c-1.36 2.077-1.317 2.508.474 4.72 1.357 1.676 1.596 2.56.767 2.836-.662.221-1.49-.03-1.839-.558s-1.631-1.211-2.849-1.519c-1.602-.405-2.382-.034-2.818 1.338-.331 1.043-.966 1.897-1.412 1.897-1.696 0-3.197-2.979-2.541-5.044.536-1.69.31-2.068-1.079-1.798-.967.188-2.279 1.89-2.915 3.782-1.991 5.916-4.227 4.669-4.775-2.664-.092-1.223-.77-2.455-1.508-2.738-.737-.284-1.066-.07-.73.473.336.544-.106.989-.983.989-1.291 0-1.388.385-.511 2.024.84 1.57.73 2.376-.493 3.599-1.827 1.827-3.957.638-4.829-2.697-.44-1.682-.175-1.897 1.634-1.323 1.883.598 1.991.483.844-.899-1.742-2.099-4.416-1.058-3.631 1.414.411 1.296.109 1.882-.971 1.882-.862 0-1.567.45-1.567 1s-.675 1-1.5 1c-1.912 0-1.896-.99.062-3.785 1.429-2.041 1.417-2.286-.145-2.885-1.67-.641-4.814 2.218-3.96 3.601.217.35-1.035.589-2.782.531-2.841-.094-3.175.191-3.175 2.716 0 2.395.406 2.822 2.683 2.822 1.804 0 2.89.655 3.317 2.001.35 1.101 1.488 2.458 2.53 3.015 1.181.632 1.664 1.618 1.281 2.616-.526 1.371-.296 1.43 1.601.415 2.921-1.563 4.475-.252 7.538 6.365 1.744 3.765 2.468 7.413 2.784 14.031.235 4.919.085 8.069-.333 7-.418-1.069-.795-2.843-.836-3.943-.15-3.937-2.091-9.05-4.556-12-1.379-1.65-2.249-2.251-1.934-1.335.487 1.413-.003 1.589-3.251 1.165-2.103-.275-5.174.035-6.824.688-2.808 1.112-2.867 1.239-.918 1.99 4.965 1.915 9.418 11.075 9.418 19.375 0 2.796.952 3.883 2.408 2.749 1.769-1.378 7.463-2.149 8.112-1.099 1.117 1.807 6.166.987 8.768-1.424 1.515-1.404 2.841-3.985 3.21-6.25 1.274-7.807 2.866-10.773 6.828-12.719 4.505-2.211 5.808-1.503 2.97 1.614-3.025 3.321-4.026 5.689-4.752 11.246-.359 2.75-.861 6.125-1.114 7.5-.422 2.292-.345 2.353.927.733.764-.972 1.682-4.358 2.04-7.525.746-6.594 3.473-11.736 7.101-13.389 1.376-.627 2.502-1.497 2.502-1.934 0-1.199-6.664-2.202-10.085-1.518-2.119.424-2.805.264-2.31-.537.434-.703.259-.864-.458-.421-1.917 1.185-4.138 6.266-5.176 11.842-1.205 6.475-2.774 10.46-4.358 11.067-2.061.791-1.618-3.393.691-6.519 1.876-2.541 2.169-4.13 2.01-10.911-.186-7.889-.164-7.961 3.5-11.759 2.45-2.54 6.067-4.722 10.786-6.505 3.905-1.477 7.955-3.353 9-4.17 1.741-1.362 1.67-1.388-.841-.314-2.007.859-3.348.881-5 .084-2.153-1.038-2.112-1.092.878-1.156 2.691-.058 3.198-.488 3.571-3.031.423-2.884.335-2.954-3.316-2.602-2.679.258-3.615.008-3.276-.877.261-.68-.226-1.819-1.083-2.53-1.187-.986-1.287-1.619-.423-2.661.692-.834.742-1.367.127-1.367-.554 0-1.681 1.029-2.505 2.286m88.635 6.482c-.054 2.073-1.284 6.108-2.733 8.967-3.318 6.548-3.317 9.309.002 12.629 3.043 3.043 4.552 3.401 3.728.886-.315-.963.585.05 2 2.25 2.118 3.291 2.579 3.612 2.605 1.809.037-2.608 1.939-4.076 3.018-2.33.52.841.973.895 1.422.168.362-.586.091-1.974-.602-3.085-1.021-1.635-1.006-2.643.08-5.291 1.976-4.818 2.452-8.444 1.209-9.212-.666-.411-1.096.173-1.096 1.488 0 1.19-1.125 3.501-2.5 5.135s-2.536 4.174-2.579 5.645c-.043 1.47-.307 2.108-.585 1.417-.279-.691-.918-1.002-1.421-.691-.503.311-.915-.56-.915-1.935 0-2.77-1.543-4.339-2.336-2.374-.349.866-.53.79-.585-.244-.043-.825.855-3.954 1.995-6.953 1.382-3.636 1.866-6.552 1.454-8.75-.833-4.439-2.039-4.176-2.161.471M160.2 108.2c-1.399 1.399-1.599 3.8-.317 3.8.486 0 1.099-1.125 1.362-2.5.551-2.885.546-2.891-1.045-1.3m34.967.55c-.497.963-1.43 3.383-2.073 5.378-.946 2.938-1.986 3.941-5.461 5.268-5.205 1.988-10.146 6.824-9.28 9.082.385 1.003-.032 1.824-1.12 2.205-.953.334-2.411 1.444-3.241 2.466-1.385 1.71-1.477 1.486-1.139-2.769l.368-4.628-4.548 3.129c-2.962 2.038-4.784 2.748-5.225 2.035-.409-.661-3.005 1.3-6.562 4.958-6.607 6.794-7.52 8.474-2.542 4.677 3.998-3.049 5.091-3.232 3.691-.617-1.441 2.694-1.298 4.71.623 8.758 1.325 2.791 1.4 3.654.372 4.289-.707.438-.977 1.296-.599 1.907.421.682-.129 1.112-1.42 1.112-2.631 0-7-4.586-7.044-7.396-.069-4.337-3.692 2.042-4.406 7.756l-.679 5.434-3.807-.511c-3.37-.452-4.193-.105-7.164 3.018l-3.358 3.528-3.779-3.414c-3.853-3.481-9.757-4.787-9.789-2.165-.011.833-.339.75-.985-.25-.533-.825-.976-2.977-.985-4.782-.019-4.082-2.499-10.218-4.131-10.218-.669 0-.935.282-.591.627.955.954-2.06 6.178-4.238 7.343-2.769 1.483-5.092 1.29-4.455-.369.295-.769.061-1.693-.521-2.052-.701-.434-.513-1.483.56-3.121 1.132-1.728 1.465-3.809 1.112-6.948-.557-4.935-.275-5.264 2.42-2.825 1.222 1.106 1.829 1.246 1.829.422 0-1.708-9.295-10.217-9.969-9.127-.301.486-2.417-.392-4.704-1.951-2.287-1.559-4.421-2.572-4.742-2.25-1.038 1.037-.621 5.815.615 7.051.66.66.92 1.2.577 1.2-1.111 0-6.551-5.893-5.974-6.47 1.044-1.044-6.279-7.742-10.457-9.564-3.204-1.398-4.307-2.513-4.827-4.878-.37-1.686-1.083-3.319-1.584-3.628-.502-.31-.644.134-.317.988.706 1.838-1.191 2.121-2.023.302-.314-.687-.297.325.038 2.25.336 1.925.954 3.633 1.373 3.795.42.162.41 1.861-.022 3.776-.721 3.197-.542 3.606 2.208 5.029 3.657 1.89 4.121 1.557 2.414-1.732-1.092-2.106-1.09-2.853.01-4.358 1.172-1.602 1.401-1.63 1.936-.235.334.869 2.67 3.189 5.191 5.153 2.522 1.965 3.891 3.572 3.044 3.572-.848 0-2.102-.675-2.787-1.5-2.055-2.477-3.299-1.746-2.64 1.55.377 1.884.235 2.818-.371 2.443-.54-.334-1.771-.793-2.735-1.021-6.134-1.45-9.203-2.38-12.611-3.825l-3.857-1.634.676 2.743c.709 2.88 7.084 11.065 9.581 12.302.801.398 3.856 2.126 6.788 3.841 5.046 2.952 7.169 3.243 7.169.983 0-.55-.562-.655-1.25-.234-2.775 1.702 2.164-4.291 5.303-6.433 4.067-2.777 8.117-2.253 12.197 1.577 3.125 2.934 3.818 1.276.75-1.792-1.808-1.808-1.832-1.999-.25-1.985 3.87.034 6.727 4.537 5.737 9.044-.612 2.787-3.621 4.151-4.833 2.191-.766-1.241-6.208-.682-8.248.847-2.672 2.001-4.483 5.538-3.778 7.376.328.854.038 2.224-.643 3.045-.785.945-1.063 3.323-.759 6.487.264 2.747.114 4.995-.334 4.995-1.226 0-4.848-4.098-6.727-7.612-1.624-3.035-1.75-3.08-5.165-1.826-1.925.707-2.768 1.32-1.872 1.362 2.798.131 4.445 2.929 3.044 5.172-1.136 1.819-.956 1.905 3.06 1.452 2.348-.265 3.368-.225 2.268.088-3.23.921-5.629 3.534-8.101 8.822-1.274 2.727-2.21 5.064-2.081 5.194.208.207 4.508-.611 11.355-2.16 1.195-.27 3.576-1.672 5.291-3.115 1.715-1.443 3.047-2.231 2.959-1.751-.088.481-.107 2.302-.041 4.047l.118 3.174 3.25-1.567c1.787-.861 4.24-2.459 5.449-3.55l2.199-1.983.689 2.876c1.039 4.337 1.444 4.659 3.512 2.787 1.822-1.648 1.901-1.611 1.901.876 0 3.379 1.325 4.117 3.358 1.871 1.436-1.586 1.455-2.023.166-3.727-2.815-3.72-.985-10.593 3.693-13.869 2.802-1.963 4.413-2.025 2.823-.109-1.611 1.941-.518 5.005 2.488 6.975 1.348.883 2.568 1.522 2.711 1.42.144-.102 1.276.358 2.517 1.022 2.145 1.148 2.181 1.353.724 4.169-.842 1.629-1.97 2.962-2.506 2.962-.536 0-.974 1.125-.974 2.5 0 2.651-.647 3.01-2.878 1.596-.852-.539-1.061-1.386-.548-2.216.457-.739-.446-.339-2.007.888-1.56 1.228-3.451 2.232-4.202 2.232-3.744 0 1.284 4.38 6.948 6.053 2.545.751 4.143 1.665 3.55 2.031-.624.386-.688.906-.153 1.237.508.313 1.706-.755 2.663-2.375 2.136-3.616 4.06-3.741 6.246-.405 1.393 2.127 1.464 2.981.434 5.242l-1.23 2.7 2.541-2.741c1.446-1.562 3.603-2.742 5.007-2.742 1.357 0 3.741-.632 5.298-1.404a471.077 471.077 0 0 1 6.75-3.256c4.113-1.944 5.86-4.34 3.164-4.34-.87 0-2.441-.858-3.491-1.908-1.876-1.876-1.915-1.876-2.406 0-.274 1.05-1.049 1.908-1.722 1.908-.855 0-1.074-1.328-.727-4.407.273-2.423.113-5.011-.355-5.75-.57-.9-.856-.271-.867 1.907-.008 1.787-.353 3.246-.765 3.242-1.051-.012-5.384-8.191-4.701-8.874.308-.308.943.061 1.412.819 1.198 1.939 7.319-1.045 10.234-4.987 1.2-1.623 2.506-2.95 2.904-2.95.397 0 1.732 2.086 2.966 4.635 2.196 4.537 2.206 4.706.446 7.975-1.47 2.728-1.567 3.618-.532 4.864 1.948 2.348 3.021 1.824 3.021-1.474 0-3.407.596-3.676 3.108-1.403 1.649 1.493 1.808 1.37 2.416-1.874l.651-3.471 5.663 3.418 5.662 3.417.5-4.21c.453-3.815.634-4.047 1.927-2.477 2.101 2.55 5.986 4.312 11.861 5.38 5.848 1.063 6.053.78 3.309-4.57-3.077-6.001-9.988-10.813-11.655-8.116-.308.498-1.224.906-2.036.906-1.15 0-1.247-.428-.441-1.934 1.466-2.739 1.283-7.345-.382-9.622-.873-1.193-1.071-2.356-.516-3.025 1.144-1.378-1.088-6.4-2.848-6.411-.705-.004-1.506-.593-1.781-1.308-.549-1.432-7.438-1.83-7.438-.43 0 .478-1.012.725-2.25.55-1.8-.256-2.311-1.059-2.557-4.013-.329-3.953 2.327-7.807 5.38-7.807 1.303 0 1.218.451-.5 2.635-1.14 1.449-2.071 3.362-2.069 4.25.002.95.803.303 1.948-1.574 2.312-3.791 8.067-5.878 11.441-4.148 3.287 1.687 7.597 6.045 6.973 7.053-.309.501.097 1.669.902 2.597.805.928 1.779 3.012 2.166 4.632l.702 2.944-1.997-2.444c-1.418-1.736-2.311-2.137-3.081-1.382-.775.76-.368 1.737 1.429 3.425 1.382 1.298 2.513 2.861 2.513 3.472 0 .611.787 1.15 1.75 1.197.963.048 4.975.679 8.917 1.404 6.557 1.205 7.536 1.157 11.5-.568 2.383-1.037 4.485-1.987 4.671-2.111.186-.124-.652-1.564-1.862-3.2-1.959-2.651-2.07-3.367-1.015-6.565.652-1.974 1.6-3.845 2.107-4.159.506-.313 1.38-1.427 1.941-2.474.98-1.833.861-1.85-3.121-.445-2.277.804-6.792 1.461-10.034 1.461-4.564 0-6.787.564-9.854 2.5-2.178 1.375-4.307 2.49-4.73 2.478-1.31-.038 4.011-3.855 8.377-6.01C198.47 138.588 205 130.732 205 127.31c0-2.343-.025-2.348-3.25-.677-3.014 1.562-8.169 3.198-11.768 3.735-.834.125-2.1.587-2.813 1.028-1.017.628-1.144-.012-.59-2.968l.707-3.768-3.047 2.17c-4.118 2.932-5.152 2.746-1.834-.33 1.484-1.375 3.109-2.5 3.611-2.5.503 0 1.395-.9 1.984-2 1.84-3.439 3.312-2.36 2.727 2-.305 2.274-.146 3.759.368 3.441.498-.307.905-1.627.905-2.933 0-1.457.737-2.607 1.908-2.979 2.376-.754 3.603-3.529 1.561-3.529-1.796 0-1.81-2.299-.043-7.25 1.406-3.94 1.273-4.967-.259-2M19 112.474c0 1.976-1.125 5.813-2.5 8.526-3.29 6.493-3.233 10.358.205 13.795l2.705 2.705.822-3.957c.961-4.621.23-7.909-1.231-5.544-2.029 3.283-2.131-.328-.144-5.109 2.25-5.414 2.841-12.34 1.143-13.39-.596-.368-1 .834-1 2.974M48.626 115c.623 3.587 1.095 4.65 1.741 3.917.202-.229-.244-1.992-.991-3.917l-1.358-3.5zm62.93-2.09c-.723 1.169.385 4.09 1.551 4.09.491 0 .893-1.125.893-2.5 0-2.471-1.355-3.353-2.444-1.59m34.725 1.056c.283 1.081.054 1.869-.509 1.75-.562-.119-1.216.31-1.454.954-.547 1.484 1.995 1.145 4.022-.537 1.801-1.495 1.123-4.133-1.064-4.133-1.008 0-1.339.652-.995 1.966m-25.399-.216a5.707 5.707 0 0 0 0 1.5c.065.412-.388.638-1.007.5-.619-.138-1.331.313-1.583 1-.585 1.594 1.928 1.63 3.508.05.933-.933 1.2-.815 1.2.531 0 .953-.675 1.991-1.5 2.307-.825.317-1.5.994-1.5 1.504 0 .563.699.554 1.776-.022 1.14-.61 2.422-.588 3.581.06.993.556 2.669.785 3.725.509 1.055-.276 1.918-.082 1.918.43 0 .513 1.264.279 2.809-.52 1.818-.94 3.318-1.131 4.25-.541 2.382 1.507 3.351 1.059 1.748-.808-.826-.963-1.862-2.425-2.302-3.25-.649-1.219-.546-1.266.548-.25 1.597 1.482 4.947 1.667 4.947.273 0-.996-4.883-4.61-5.281-3.908-.121.212-.908 1.735-1.75 3.385-2.053 4.022-7.74 4.736-10.879 1.366-1.149-1.234-2.09-2.833-2.09-3.555 0-1.367-1.911-1.873-2.118-.561m4.618.25c-.34.55.282 1 1.382 1 1.1 0 2.252.408 2.56.906.613.992 5.537-.921 5.55-2.156.012-1.173-2.463-.879-3.792.45-.933.933-1.467.933-2.4 0-1.462-1.462-2.482-1.524-3.3-.2m81.993 2.365c-1.449 2.264-3.533 3.639-7.5 4.95-7.288 2.408-8.92 4.149-1.951 2.081 6.396-1.898 10.579-4.627 11.49-7.497 1.007-3.174.168-2.982-2.039.466M115 116.5c0 .825.436 1.5.969 1.5.532 0 .709-.675.393-1.5-.317-.825-.753-1.5-.969-1.5-.216 0-.393.675-.393 1.5m-86.311 3.418c.341 1.304-.404 3.143-2.079 5.134-1.503 1.786-2.659 4.447-2.726 6.275-.064 1.745-.323 2.38-.576 1.411-.253-.969-.875-1.505-1.384-1.191-1.584.979-1.015 5.123 1.043 7.592l1.966 2.361.034-2.75c.018-1.512.483-2.75 1.033-2.75.55 0 1 .45 1 1s.45 1 1 1c1.334 0 1.27-2.595-.119-4.819-.879-1.408-.664-2.685 1-5.947 2.489-4.879 2.632-6.563.698-8.169-1.165-.967-1.326-.813-.89.853M112.158 128c0 1.375.227 1.938.504 1.25.278-.687.278-1.812 0-2.5-.277-.687-.504-.125-.504 1.25m134.76 4.368c2.481 4.014 2.617 5.943.54 7.667-1.199.995-1.81 1.013-2.742.081-.932-.932-.867-1.409.292-2.142 1.266-.801 1.227-.946-.258-.959-1.826-.016-2.077.711-1.787 5.172.237 3.654-1.616 6.813-3.998 6.813-2.546 0-2.526-2.169.035-3.768 1.1-.687 1.964-2.258 1.921-3.49-.051-1.44-.267-1.705-.606-.742-.289.825-1.941 2.732-3.671 4.237-2.641 2.3-2.904 2.9-1.644 3.75.825.557 3.188.924 5.25.817 3.13-.163 3.75-.556 3.75-2.381 0-1.323 1.382-3.24 3.5-4.855 4.108-3.134 4.41-5.608 1.25-10.249-2.955-4.341-4.519-4.299-1.832.049m-235.393.233c.45 1.594.759 4.137.687 5.649-.133 2.791 1.244 3.786 2.076 1.5.765-2.103 4.138.604 4.805 3.857.487 2.375.73 2.58 1.358 1.141 1.27-2.911-.213-6.121-3.931-8.507-1.936-1.243-3.52-2.904-3.52-3.691 0-.788-.516-1.751-1.146-2.14-.826-.511-.918.101-.329 2.191M228.158 134c0 1.375.227 1.938.504 1.25.278-.687.278-1.812 0-2.5-.277-.687-.504-.125-.504 1.25M204 135.5l-2.349 2.5 2.925-.015c2.816-.015 7.377-1.937 4.674-1.97-.687-.008-1.25-.69-1.25-1.515 0-2.178-1.326-1.846-4 1m-156.868 5.189c5.111 5.476 6.16 10.022 3.266 14.153-.881 1.258-1.444 2.395-1.25 2.526.194.132 2.296 1.085 4.672 2.119 4.145 1.804 4.673 1.812 12.997.208 4.771-.92 8.846-2.184 9.054-2.809.209-.625 1.223-1.98 2.254-3.011 2.007-2.007 2.463-3.875.946-3.875-.51 0-1.714.785-2.674 1.746-1.66 1.66-1.715 1.594-1.122-1.369.583-2.915.312-3.284-4.212-5.746-3.762-2.048-6.244-2.636-11.198-2.653-4.23-.015-7.873-.706-10.861-2.061l-4.495-2.039zm-4.2 2.548c1.887 2.053 3.65 3.515 3.916 3.248.267-.267.296-.598.064-.735-.232-.137-1.995-1.599-3.917-3.248l-3.495-2.998zm65.632-.944c.376.986.935 1.541 1.243 1.233.308-.307.001-1.114-.683-1.793-.988-.98-1.102-.865-.56.56m-79.19 7.174c-.309.807-.37 2.044-.134 2.75s.666.045.956-1.467c.566-2.953.099-3.682-.822-1.283m80.762 5.126c-.163 1.312-5.474 4.048-9.636 4.963l-3 .659 2.5.955c3.049 1.165 8.375.288 9.976-1.641.648-.781.979-2.456.737-3.724-.242-1.268-.502-1.813-.577-1.212m39.637 2.314c.561 3.825 4.848 5.802 9.51 4.387l3.217-.976-4.5-1.248c-2.475-.687-5.435-2.115-6.579-3.173-2.073-1.918-2.077-1.915-1.648 1.01m-64.28 5.115c-1.629 5.134 1.563 9.978 6.576 9.978 2.128 0 2.114-.069-.434-2.072-1.714-1.349-2.854-3.445-3.263-6-.685-4.289-1.873-5.075-2.879-1.906M172 163.545c0 2.431-.772 4.317-2.455 6L167.091 172h2.383c3.651 0 5.526-2.568 5.526-7.571 0-3.27-.392-4.429-1.5-4.429-1.051 0-1.5 1.061-1.5 3.545m11.22.463c-1.721 3.013-1.935 3.992-.875 3.992.773 0 2.856.29 4.629.645 3.036.607 3.151.527 1.967-1.368-1.661-2.66-.563-5.253 2.278-5.377 2.222-.097 2.216-.12-.219-.9-4.467-1.431-5.466-1.045-7.78 3.008m-31.318-.192c1.832 3.424 7.121 7.184 10.103 7.184 2.607 0 6.006-2.17 5.987-3.821-.015-1.317-5.438-3.179-9.257-3.179-2.127 0-4.771-.484-5.876-1.076-1.803-.964-1.901-.872-.957.892m-50.402.09c-6.572.659-8.5 1.48-8.5 3.618 0 3.614 6.789 4.474 11.098 1.406 2.818-2.007 5.775-6.086 4.187-5.778-.432.084-3.485.424-6.785.754M111.232 174c0 1.925.206 2.713.457 1.75.252-.963.252-2.537 0-3.5-.251-.963-.457-.175-.457 1.75m36.854-1.5c.03 1.1.441 2.9.914 4 .787 1.832.864 1.79.914-.5.031-1.375-.381-3.175-.914-4-.8-1.238-.96-1.151-.914.5M127.5 175c-.34.55-.297 1.52.095 2.155.465.751.272.881-.552.371-.713-.44-1.589-.26-2.004.411-.955 1.545-.093 6.063 1.157 6.063.55 0 .68 1.288.304 3l-.659 3h4.687c4.071 0 4.591-.23 3.966-1.75a40.476 40.476 0 0 1-1.224-3.5c-.775-2.696-2.258-2.072-2.376 1l-.107 2.75-1.086-2.75c-.598-1.512-1.481-2.75-1.962-2.75-.481 0 .097-1.366 1.286-3.035 1.189-1.67 1.909-3.695 1.6-4.5-.648-1.688-2.224-1.922-3.125-.465m5.261 2.687c-1.595.418-1.614.698-.224 3.384 2.033 3.932 3.463 3.696 3.463-.571 0-1.925-.338-3.448-.75-3.384-.412.064-1.532.321-2.489.571m-14.682 1.896c.048 1.165.285 1.402.604.605.289-.722.253-1.585-.079-1.917-.332-.332-.568.258-.525 1.312m3.651 4.167a38.718 38.718 0 0 1-1.173 3.369c-.464 1.121-.039 1.783 1.386 2.156 1.817.475 2.057.081 2.057-3.369 0-3.997-1.367-5.296-2.27-2.156m14.831 1.777c-.791 4.215-.518 4.777 1.87 3.861 1.278-.49 1.553-1.329 1.073-3.274-1.055-4.274-2.208-4.504-2.943-.587m.252 10.156c.721.289 1.584.253 1.916-.079.332-.332-.258-.568-1.312-.525-1.165.048-1.402.285-.604.604M85.355 209.25c-1.671 1.787-3.955 4.6-5.075 6.25-2.829 4.164-8.431 17.604-7.886 18.919.276.665.479.6.527-.169.092-1.46 1.969-1.605 4.015-.311 1.19.753 1.211 1.178.127 2.485-1.096 1.32-1.054 1.576.256 1.576.859 0 1.884.52 2.276 1.155.443.715.275.883-.44.44-1.031-.637-1.604.558-1.273 2.655.187 1.188-.606.883-2.42-.931-1.574-1.574-1.747-1.561-2.736.206-1.028 1.837-1.075 1.836-1.82-.069-.554-1.415-.785-.805-.836 2.2-.062 3.68.16 4.097 1.93 3.634 1.429-.374 2-.031 2 1.2 0 1.229-.503 1.533-1.75 1.058-1.452-.553-1.523-.443-.418.643 1.103 1.083 2.086.483 5.697-3.479 5.132-5.63 18.901-29.208 17.952-30.742-.359-.582-.066-1.825.653-2.764.718-.938.12-.651-1.328.638l-2.634 2.343-3.336-2.34c-1.835-1.287-3.513-2.443-3.729-2.569-.752-.44 2.339-3.508 4.358-4.326 1.397-.566 1.548-.845.481-.889-.854-.034-2.921 1.4-4.591 3.187M200.831 208c-2.17 3.251-4.02 10.343-3.234 12.393 1.723 4.488 7.744-1.225 8.968-8.508.46-2.744.357-3.053-.548-1.635-1.692 2.653-2.856 2.108-3.204-1.5l-.313-3.25zm-23.121 2.768c-3.933 4.345-7.413 16.232-4.752 16.232 1.167 0 5.811-7.758 6.983-11.666.468-1.559 1.171-3.621 1.562-4.584.953-2.346-1.665-2.334-3.793.018m-56.07 6.917c-3.389 10.435-5.64 19.968-5.64 23.882v4.106l9.25.16c16.355.283 32.797-2.587 48.693-8.5 9.741-3.623 19.054-8.278 19.056-9.524.003-2.053-2.288-1.534-4.724 1.069-3.761 4.019-6.664 4.733-9.147 2.25-1.54-1.54-2.089-1.673-2.499-.603-.289.754-1.934 2.098-3.654 2.988-2.889 1.494-3.32 1.491-5.653-.038-2.425-1.589-2.633-1.551-5.228.935-3.452 3.307-6.577 3.309-8.742.004-1.574-2.401-1.581-3.059-.101-9.244.876-3.663 1.455-6.798 1.285-6.967-1.004-1.004-4.837 7.742-5.888 13.436-1.269 6.878-2.32 8.203-5.22 6.581-1.203-.674-2.33-.289-4.183 1.429-3.032 2.81-5.813 3.016-7.355.546-1.051-1.682-1.322-1.609-3.999 1.068-3.719 3.719-7.913 3.498-9.308-.492-.73-2.086-.235-5.62 2.098-15 3.203-12.876 3.599-16.213.959-8.086m40.567 2.767c-1.261 4.288-2.109 7.979-1.885 8.203.576.576 3.15-3.599 4.41-7.155.585-1.65 1.411-3.861 1.836-4.914.519-1.286.413-1.692-.322-1.238-.602.372-1.241-.081-1.42-1.008-.179-.926-1.358 1.824-2.619 6.112m-56.593 3.798c-2.805 8.406-2.782 8.573.304 2.25 3.204-6.564 3.487-7.5 2.265-7.5-.45 0-1.606 2.363-2.569 5.25m33.827 2.331c-2.082 7.69-1.452 9.188 1.352 3.221 3.075-6.544 3.466-8.489 1.83-9.117-1.066-.408-1.888 1.115-3.182 5.896m-11.422-.331c-3.496 11.458-2.932 13.49 1.371 4.929 3.721-7.406 4.076-9.179 1.836-9.179-1.376 0-2.272 1.187-3.207 4.25M90 238.228c-3.575 6.021-7.962 12.46-9.75 14.309l-3.249 3.363h8.707c5.281 0 9.292-.472 10.192-1.2 1.134-.917 1.315-.919.769-.008-.535.891 1.745 1.171 9.058 1.11 6.106-.051 8.835-.367 7.273-.842-1.375-.418-1.937-.805-1.25-.86 1.396-.112 1.754-3.1.371-3.1-2.961 0-3.819-11.602-1.554-21 .332-1.375-1.651 2.225-4.406 8-6.217 13.031-8.206 15.454-11.928 14.53-1.503-.373-2.884-1.097-3.068-1.61-.185-.513-.742-.681-1.239-.374-.497.307-.636-.138-.31-.988.327-.851 1.035-1.274 1.575-.94.556.344.88-.417.747-1.756-.13-1.299.018-3.037.328-3.862 1.015-2.703 4.638-15.431 4.434-15.577-.11-.078-3.125 4.784-6.7 10.805M81 237c0 .55.45 1 1 1s1-.45 1-1-.45-1-1-1-1 .45-1 1m-25.868 9.952c-.699 2.334-1.059 4.454-.801 4.712.671.672 2.906-6.454 2.451-7.818-.208-.625-.951.773-1.65 3.106M74.257 245c.225.825 1.01 1.5 1.743 1.5.733 0 1.518-.675 1.743-1.5.364-1.333.29-1.333-.667 0-.956 1.333-1.196 1.333-2.152 0-.957-1.333-1.031-1.333-.667 0m-27.979 1.25c-1.499 1.938-2.442 3.75-1.952 3.75.244 0 1.181-1.125 2.082-2.5 1.686-2.573 1.592-3.476-.13-1.25m41.455-.126c.679.684 1.486.991 1.793.683.308-.308-.247-.867-1.233-1.243-1.425-.542-1.54-.428-.56.56m-40.983 5.041c-3.165 3.552-3.334 3.996-1.213 3.182 1.23-.472 5.248-6.451 4.239-6.308-.152.021-1.513 1.428-3.026 3.126M86 249.5c-2.37 1.355-2.388 1.431-.357 1.465 1.179.019 2.402-.64 2.719-1.465.687-1.791.771-1.791-2.362 0m17.02.976c-.789.95-.865 1.524-.201 1.524 1.208 0 2.617-1.897 1.924-2.591-.252-.251-1.027.229-1.723 1.067m3.815 1.197c-.916.242-1.894 1.039-2.175 1.77-.404 1.054.094 1.027 2.415-.13 4.067-2.029 3.962-2.753-.24-1.64"/></svg>