<svg xmlns="http://www.w3.org/2000/svg" width="256" height="256"><path fill-opacity=".369" d="M0 128.004v128.004l128.25-.254 128.25-.254.254-127.75L257.008 0H0v128.004m.485.496c0 70.4.119 99.053.265 63.672.146-35.38.146-92.98 0-128C.604 29.153.485 58.1.485 128.5" fill="#1976D2" fill-rule="evenodd"/><path fill-opacity=".149" d="M0 128.004v128.004l128.25-.254 128.25-.254.254-127.75L257.008 0H0v128.004m.485.496c0 70.4.119 99.053.265 63.672.146-35.38.146-92.98 0-128C.604 29.153.485 58.1.485 128.5M124.5 45c-1.91 2.11-5.956 2.689-7 1-.843-1.365-4.219-1.264-5.094.152-.391.633.053 1.71.987 2.393 1.531 1.12 1.203 1.758-3.325 6.481-2.762 2.881-4.781 5.629-4.486 6.106.295.478 2.084.868 3.977.868 4.284 0 8.203 3.376 6.418 5.528-.637.767-2.017 1.667-3.067 2.001-3.232 1.025-2.117 2.471 1.906 2.471 2.099 0 6.45.487 9.668 1.082 4.338.802 7.491.772 12.196-.116 7.281-1.374 8.296-2.2 4.71-3.834-3.463-1.578-2.549-3.455 2.186-4.486 2.158-.47 5.773-1.708 8.034-2.75 2.26-1.043 5.072-1.896 6.25-1.896 1.236 0 2.14-.634 2.14-1.5 0-.884-.923-1.506-2.25-1.515-1.238-.009-2.745-.346-3.35-.75-1.726-1.153-3.4-4.868-3.4-7.547 0-3.419-2.274-5.006-6-4.188-1.899.417-3.641.213-4.54-.533-1.107-.919-2.121-.938-4.209-.079-1.933.795-3.79.831-6.244.122-1.922-.556-3.54-1.01-3.595-1.01-.056 0-.917.9-1.912 2m-18.812.646c-1.374 1.374-.662 3.496 1.062 3.164.963-.186 1.75-.969 1.75-1.74 0-1.579-1.764-2.472-2.812-1.424m-16.021 8.021C88.516 54.817 88.938 56 90.5 56c.825 0 1.5-.675 1.5-1.5 0-1.562-1.183-1.984-2.333-.833M168 54.5c-1.053 1.268-.84 1.5 1.378 1.5 1.664 0 2.622-.548 2.622-1.5 0-.825-.62-1.5-1.378-1.5-.757 0-1.937.675-2.622 1.5m-86 3.441c0 1.515 1.862 2.238 4.009 1.556C89.018 58.542 88.395 57 85 57c-1.65 0-3 .423-3 .941m82.25 2.721c-1.96.791-1.463 2.338.75 2.338 1.111 0 2-.667 2-1.5 0-1.541-.574-1.716-2.75-.838m12.196.425c-.873 1.412 1.055 3.34 2.467 2.467 1.586-.98 1.33-3.554-.354-3.554-.793 0-1.743.489-2.113 1.087m-6.752 4.552c-.799.799.104 2.361 1.365 2.361.518 0 .941-.675.941-1.5 0-1.546-1.18-1.987-2.306-.861M185 68.417c0 1.68.549 2.583 1.57 2.583 1.042 0 1.462-.729 1.25-2.172-.472-3.201-2.82-3.544-2.82-.411M65.638 73.5c-.316.825-.139 1.5.393 1.5.533 0 .969-.675.969-1.5s-.177-1.5-.393-1.5c-.216 0-.652.675-.969 1.5M85.5 74c-.34.55-.141 1 .441 1S87 74.55 87 74s-.198-1-.441-1-.719.45-1.059 1m108.194-.361c-.799.799.104 2.361 1.365 2.361.518 0 .941-.675.941-1.5 0-1.546-1.18-1.987-2.306-.861M74 78c0 .55.45 1 1 1s1-.45 1-1-.45-1-1-1-1 .45-1 1m111.5 3c-.399.646-.276 1.624.274 2.174.667.667 1.242.609 1.726-.174.399-.646.276-1.624-.274-2.174-.667-.667-1.242-.609-1.726.174M69 83c-.589 1.1-1.763 2-2.609 2-1.807 0-1.508 3.129.359 3.75.745.248 1.25-.463 1.25-1.76 0-1.336.773-2.379 2-2.7 1.1-.288 2-1.146 2-1.907 0-2.043-1.771-1.679-3 .617m128.446-.913c-.369.598-.152 1.607.483 2.242.872.872 1.384.79 2.097-.337.519-.821.95-1.83.959-2.242.023-1.155-2.782-.888-3.539.337m-59.295 8.178c-2.012.967-2.264 1.639-1.761 4.682.323 1.954.593 5.691.599 8.303.008 3.585.385 4.75 1.536 4.75 2.087 0 3.489-4.138 2.813-8.303-.663-4.09 1.256-5.972 3.275-3.212.933 1.277 1.02 2.332.302 3.674-.554 1.035-.735 2.323-.402 2.862 1.011 1.636 3.315 1.096 3.958-.929.333-1.049 1.263-2.16 2.067-2.468.808-.31 1.462-1.833 1.462-3.405 0-5.463-7.85-8.838-13.849-5.954m-16.509 1.363c-1.572.852-3.805 1.301-4.963.998-1.221-.319-2.856.129-3.892 1.067-1.649 1.492-1.938 1.48-3.75-.159-3.41-3.086-4.807-1.392-4.849 5.879-.041 7.104 1.119 9.021 3.449 5.695 1.99-2.841 3.028-2.657 4.845.858 2.436 4.711 4.375 2.943 4.723-4.306.267-5.567.517-6.191 2.6-6.487 3.781-.536 5.195 1.512 5.195 7.523 0 4.652.256 5.402 1.75 5.116 1.269-.243 1.898-1.62 2.289-5.012.297-2.572 1.309-5.527 2.25-6.567.941-1.04 1.711-2.868 1.711-4.062 0-1.894-.543-2.166-4.25-2.131-2.338.022-5.536.737-7.108 1.588m-70.468 1.686C48.864 95.774 48.35 98.48 50 99.5c.55.34 1-.032 1-.826 0-.794 1.111-2.172 2.468-3.061 1.509-.989 2.244-2.199 1.893-3.115-.788-2.054-1.647-1.886-4.187.816m121.527-1.682c-1.096 1.097-.821 16.275.334 18.434.666 1.244 2.092 1.934 4 1.934 3.292 0 3.89-1.383 1.24-2.866-1.413-.791-1.729-2.464-1.75-9.28-.02-6.696-.327-8.374-1.574-8.619-.852-.167-1.864.011-2.25.397m-95.242 1.435c-.88 1.424-.387 1.797 3.364 2.548 2.772.554 3.177.364 3.177-1.49C84 92.44 83.391 92 81.059 92c-1.618 0-3.238.48-3.6 1.067m11.004 1.049c-.63 1.986.297 11.598 1.277 13.242.282.473 1.537-.426 2.789-1.997 1.669-2.092 2.029-3.318 1.35-4.588-.51-.952-.644-2.863-.297-4.245.517-2.057 1.065-2.404 3.024-1.912 1.694.425 2.394.18 2.394-.837 0-1.042-1.364-1.469-4.951-1.551-4.128-.094-5.056.22-5.586 1.888m72.85-1.331c-1.865 1.186-5.44 10.338-5.111 13.082.412 3.43 2.531 3.812 3.944.712 1.406-3.086 3.386-3.322 4.854-.579 1.26 2.355 2.836 2.59 3.623.54.451-1.175-4.968-14.58-5.872-14.525-.138.009-.785.355-1.438.77m40.766.798c.048 1.165.285 1.402.604.605.289-.722.253-1.585-.079-1.917-.332-.332-.568.258-.525 1.312m-8.633.504c-.369.598-.171 1.588.441 2.2.817.817 1.113.528 1.113-1.087 0-2.415-.519-2.787-1.554-1.113M73.398 97.405c-.891 2.323.013 7.912 1.352 8.351.89.292 1.25-1.054 1.25-4.673 0-4.8-1.408-6.79-2.602-3.678M45 105.5c0 .825.45 1.5 1 1.5s1-.675 1-1.5-.45-1.5-1-1.5-1 .675-1 1.5m104 1.441c0 1.068.399 2.188.887 2.489 1.218.753 3.438-2.095 2.64-3.386-1.095-1.771-3.527-1.153-3.527.897m-95.343 12.785c-.333 2.05-.166 4.165.369 4.7.632.632.974-.677.974-3.726 0-5.657-.522-6.036-1.343-.974m35.079-2.128c-.802.801.247 3.402 1.371 3.402.491 0 .893-.9.893-2 0-1.949-1.061-2.606-2.264-1.402m22.899.911c-.318.829-.153 2.629.368 4 1.427 3.751 5.493 3.366 8.008-.759 1.09-1.787 1.983-3.588 1.985-4 .002-.412-2.198-.75-4.889-.75-3.439 0-5.065.448-5.472 1.509m11.387-.759c.012.412.885 1.872 1.938 3.243 1.704 2.218 1.99 2.301 2.585.75.978-2.548-.185-4.743-2.514-4.743-1.117 0-2.021.338-2.009.75M98 120.417c0 1.68.549 2.583 1.57 2.583 1.042 0 1.462-.729 1.25-2.172-.472-3.201-2.82-3.544-2.82-.411m55 .024c0 .793.403 1.69.895 1.994 1.03.636 2.271-1.936 1.369-2.837-1.073-1.073-2.264-.63-2.264.843m-15.361.253c-.953.953-.772 3.306.254 3.306 1.227 0 2.212-2.817 1.203-3.441-.449-.277-1.105-.217-1.457.135M89 126c0 .55.702 1 1.559 1s1.281-.45.941-1c-.34-.55-1.041-1-1.559-1s-.941.45-.941 1m-44.457 7.931c-.74 1.197 1.141 2.382 2.473 1.559 1.119-.691.384-2.49-1.016-2.49-.485 0-1.141.419-1.457.931m70.707.104c-1.729.692-2.25 1.705-2.25 4.374 0 4.584 1.776 5.532 3.124 1.666.589-1.691 1.736-3.075 2.547-3.075 1.617 0 1.467-3.165-.171-3.6-.55-.146-2.013.139-3.25.635m6.46 4.965c-.591 2.26.038 2.426 3.785 1.002 3.04-1.156 2.463-3.002-.937-3.002-1.484 0-2.514.724-2.848 2m-77.106 4.59c-.759 1.978.062 3.41 1.955 3.41.87 0 1.441-.99 1.441-2.5 0-2.796-2.423-3.446-3.396-.91m153.475 7.993c.048 1.165.285 1.402.604.605.289-.722.253-1.585-.079-1.917-.332-.332-.568.258-.525 1.312m-28.718 4.919c-.803 2.091.486 6.71 1.668 5.98 1.302-.805 1.248-7.482-.06-7.482-.568 0-1.291.676-1.608 1.502m-45.723.998c-1.298 3.383 1.962 6.5 6.796 6.5 1.614 0 2.566-.556 2.566-1.5 0-.825-.378-1.5-.839-1.5-.462 0-1.353-1.125-1.979-2.5-1.288-2.827-5.59-3.484-6.544-1m34.001-.806c-1.195 1.195-.645 3.306.861 3.306.825 0 1.5-.648 1.5-1.441 0-1.671-1.427-2.798-2.361-1.865m-69.811 2.556c-.586 3.252.119 5.75 1.623 5.75 2.21 0 3.674-2.652 2.984-5.404-.821-3.268-4.037-3.51-4.607-.346m53.715 2.681c-.317.512-.118 1.213.441 1.559.559.345 1.016-.074 1.016-.931 0-1.757-.6-2.015-1.457-.628M70 166c0 .55.477 1 1.059 1s.781-.45.441-1-.816-1-1.059-1-.441.45-.441 1m4 4c0 .55.477 1 1.059 1s.781-.45.441-1-.816-1-1.059-1-.441.45-.441 1m4 4c0 .55.45 1 1 1s1-.45 1-1-.45-1-1-1-1 .45-1 1m9.217 8.166c.242.734 1.467 1.484 2.723 1.668 1.551.227 2.142-.093 1.843-1-.242-.734-1.467-1.484-2.723-1.668-1.551-.227-2.142.093-1.843 1M93 186c0 .55.45 1 1 1s1-.45 1-1-.45-1-1-1-1 .45-1 1m29 7.264c-5.225.42-10.062.969-10.75 1.219-2.055.747-1.418 2.437 1.163 3.085 1.392.349 2.657 1.577 2.989 2.899.745 2.968 3.008 3.503 14.888 3.519l9.789.014 4.047-4.128c3.345-3.413 3.815-4.349 2.71-5.404-1.719-1.641-12.752-2.176-24.836-1.204" fill="#1976D2" fill-rule="evenodd"/><path fill-opacity=".226" d="M0 48.545v48.546l3.25-.533c1.788-.293 6.141-1.023 9.675-1.621 3.533-.599 10.619-1.718 15.745-2.488 5.228-.784 12.361-2.692 16.24-4.343 3.805-1.619 7.18-2.683 7.498-2.364.319.319 2.175-.279 4.124-1.329 3.107-1.673 3.672-1.724 4.582-.411.781 1.127 1.164 1.188 1.545.248.279-.688 1.07-1.25 1.758-1.25 1.437 0 7.966-6.222 11.449-10.911 1.351-1.819 3.619-3.436 5.285-3.769 1.606-.321 3.37-1.425 3.92-2.452.55-1.027 1.696-1.868 2.548-1.868 2.954 0 .704-2.503-2.698-3-4.751-.694-5.355-4.304-.975-5.831 1.68-.586 3.054-1.508 3.054-2.051 0-.542 1.237-1.128 2.75-1.302 2.192-.252 2.817-.898 3.078-3.185.323-2.828.396-2.859 5.25-2.215 4.582.608 6.494-.326 3.922-1.916-1.778-1.099-1.066-2.254 1.719-2.787 1.505-.287 3.584.086 4.655.836 2.303 1.614 5.855.212 5.015-1.978-.394-1.027 1.004-1.718 5.269-2.604 11.947-2.48 28.142-1 39.092 3.574 4.434 1.851 4.162 3.617-.5 3.252-2.797-.218-3.75.088-3.75 1.207s.953 1.425 3.75 1.207c3.702-.29 3.75-.247 3.75 3.358 0 3.476.132 3.62 2.75 2.996 1.512-.36 4.067-1.606 5.676-2.768 2.626-1.896 3.372-1.994 7.265-.953 2.386.638 6.019 1.179 8.073 1.202 2.055.023 7.111.853 11.236 1.844 5.835 1.401 7.564 2.225 7.787 3.711.158 1.05 1.633 2.681 3.277 3.625 2.399 1.377 2.872 2.186 2.392 4.099-.506 2.014.77 3.709 8.223 10.928 4.851 4.699 10.396 9.812 12.321 11.361 1.925 1.55 8.35 7.284 14.279 12.742 5.928 5.458 11.103 9.6 11.5 9.203.396-.396.876-24.983 1.065-54.638L257.189 0H0v48.545M.463 49c0 26.675.129 37.588.286 24.25.158-13.337.158-35.162 0-48.5C.592 11.413.463 22.325.463 49M163 45.981c0 1.198 4.828 2.524 5.768 1.585.869-.869-1.749-2.531-4.018-2.551-.963-.008-1.75.426-1.75.966M76.5 54c-.34.55.084 1 .941 1S79 54.55 79 54s-.423-1-.941-1-1.219.45-1.559 1m15.638 3.616c-1.512 1.059-1.968 1.954-1.323 2.599C92.33 61.73 96 60.114 96 57.933c0-2.356-.852-2.425-3.862-.317m139.027 1.261c-1.834 1.162 1.877 2.096 8.335 2.096 5.768 0 9.5-.821 9.5-2.09 0-1.127-16.056-1.134-17.835-.006M66.5 62c-.34.55.11 1 1 1s1.34-.45 1-1c-.34-.55-.79-1-1-1-.21 0-.66.45-1 1m5.33 1.003c-.918 1.01-1.818 2.867-2 4.126-.213 1.477-1.216 2.497-2.83 2.875-1.967.461-2.5 1.213-2.5 3.527 0 4.054 3.158 4.68 4.127.818.779-3.102 5.795-8.615 8.873-9.753 1.975-.73 1.976-.757.059-2.167-2.477-1.823-3.657-1.705-5.729.574M103 66.418a102.74 102.74 0 0 1-5 2.523c-6.018 2.785-8.701 4.668-13.657 9.585-2.902 2.879-5.967 5.499-6.81 5.823-.843.323-1.533 1.169-1.533 1.879s-.9 1.853-2 2.54-2 1.92-2 2.74c0 .925-.951 1.492-2.5 1.492-2.25 0-2.5.4-2.5 4 0 4.427-.479 4.781-3.171 2.345C62.121 97.799 62 97.81 62 99.516c0 1.005.728 2.631 1.619 3.615 2.347 2.594 1.105 8.624-1.865 9.054-3.49.504-4.79 9.003-4.905 32.065-.057 11.468-.112 11.75-2.287 11.75-3.161 0-3.675-.898-1.987-3.473 1.263-1.929 1.272-2.409.059-3.415-1.658-1.377-5.735.037-9.384 3.253-2.85 2.513-2.821 3.331.286 7.903C45.44 163.07 46.763 164 48.845 164c3.31 0 5.717 1.703 6.595 4.666.837 2.827-1.006 3.911-3.097 1.82-.903-.903-2.499-1.417-3.547-1.143s-4.452-.628-7.565-2.004c-3.508-1.552-6.664-2.302-8.301-1.975-2.08.416-3.352-.204-5.982-2.918-1.837-1.895-3.715-3.446-4.173-3.446-.457 0-4.219-1.607-8.359-3.572-4.14-1.964-9.077-3.823-10.971-4.131L0 150.738V179.3c0 27.975.042 28.567 2.04 28.88 1.121.176 2.039.77 2.039 1.32s-.918 1.144-2.039 1.32c-1.983.31-2.04.945-2.04 22.753v22.435l128.25-.254 128.25-.254.297-44c.327-48.306-.443-78.5-2-78.5-.544 0-3.533-2.047-6.643-4.548a546.71 546.71 0 0 0-11.65-9.055l-5.996-4.508-1.823 2.252c-1.515 1.871-1.979 2.007-2.739.806-.504-.796-.922-2.84-.931-4.542-.009-1.869-.853-3.85-2.13-5-1.163-1.048-2.563-3.03-3.11-4.405-.989-2.485-1.004-2.477-2.35 1.3-.745 2.09-1.102 5.063-.794 6.606.42 2.097.116 2.977-1.202 3.483-.97.372-2.228.212-2.796-.356-.568-.568-1.731-1.019-2.583-1.001-1.304.027-1.273.242.2 1.36.963.731 1.75 2.011 1.75 2.846 0 2.14 2.444 3.913 4.373 3.172 1.095-.42 1.627-.088 1.627 1.014 0 .902-.787 1.94-1.75 2.309-.963.368-2.465 1.551-3.338 2.627-2.171 2.676-4.28 1.23-3.548-2.432.602-3.008-.991-8.928-2.403-8.928-1.882 0-2.487 3.096-3.025 15.5-.311 7.15-1.085 14.35-1.722 16-.636 1.65-1.411 4.267-1.721 5.816-.395 1.97-1.08 2.719-2.279 2.49-2.373-.452-2.67-4.117-.797-9.843.871-2.661 1.565-6.329 1.543-8.151l-.04-3.312-1.524 2.812c-3.013 5.557-3.882 2.783-4.173-13.317-.172-9.54.111-15.729.75-16.368 1.319-1.319 1.339-5.627.027-5.627-.55 0-1 1.35-1 3 0 1.968-.504 3-1.465 3-1.83 0-3.535-3.074-3.535-6.375 0-1.379-.496-2.813-1.102-3.188-.606-.375-1.737-2.201-2.513-4.059-1.654-3.959-4.829-4.581-5.755-1.128-.331 1.237-.609 4.822-.616 7.965-.015 6.225 1.271 7.785 6.42 7.785 3.052 0 3.153.716.545 3.846-1.879 2.254-2.152 2.295-7.043 1.041-2.97-.761-5.508-2.087-6.095-3.183-.716-1.34-1.676-1.711-3.341-1.293-1.773.445-2.807-.062-4.294-2.103l-1.958-2.688-1.594 3.082c-.927 1.793-2.898 3.536-4.714 4.169-4.02 1.401-3.316 3.629 1.146 3.629 3.043 0 3.386.272 3.16 2.5-.14 1.375-1.49 3.5-3 4.723a207.103 207.103 0 0 0-4.471 3.725c-.948.825-2.804 1.772-4.125 2.104-2.016.506-2.572.109-3.473-2.475-1.307-3.749-2.6-3.887-4.81-.514-1.602 2.445-1.972 2.531-8.03 1.883-8.389-.899-11.93 1.818-7.78 5.968 1.41 1.41 1.786 1.408 3.967-.022 1.763-1.155 3.523-1.391 6.558-.878 2.704.457 4.976.258 6.525-.571 1.827-.978 2.957-1.007 4.895-.124 1.564.712 4.788.911 8.496.523 5.266-.55 6.425-.331 9.74 1.837 2.069 1.353 4.547 2.752 5.507 3.108.959.355 2.472 2.465 3.362 4.689 1.159 2.896 2.366 4.221 4.255 4.671 2.818.672 5.138 2.157 5.138 3.29 0 .381-1.609 1.46-3.577 2.398-4.505 2.149-3.965 4.076 1.252 4.465 3.231.241 4.49-.196 6.422-2.233 2.999-3.161 3.903-3.211 3.903-.217 0 2.343-4.189 8.933-7.313 11.506-1.421 1.169-2.072.998-4.744-1.25-3.813-3.209-4.315-3.221-6.61-.161-1.008 1.344-3.071 2.743-4.583 3.108-2.3.555-2.75.339-2.75-1.322 0-1.092.675-2.546 1.5-3.231 1.859-1.542 1.953-5.38.168-6.861-1.898-1.575-4.17.486-5.635 5.111-.654 2.063-1.566 3.75-2.028 3.75-.462 0-1.665-1.788-2.673-3.974-1.007-2.186-2.083-3.986-2.39-4-.307-.014-.982 1.856-1.5 4.156-1.471 6.529-3.41 6.073-3.613-.849-.094-3.208-.207-6.879-.25-8.158-.043-1.279-.934-2.953-1.98-3.721-1.423-1.045-1.925-2.72-2-6.674l-.099-5.28-5.62-.296c-5.373-.283-5.807-.118-9.832 3.75-3.146 3.022-5.028 4.046-7.438 4.046-4.354 0-7.471 2.258-5.836 4.228.877 1.057 3.616 1.456 10.213 1.486 9.416.045 12.013.993 12.013 4.389 0 1.149-.955 2.099-2.5 2.486-2.998.753-3.289 3.026-.5 3.911 1.998.634 2.539 2.932 1.393 5.918-.749 1.952-2.767 2.019-5.678.19-3.611-2.269-10.804-2.838-14.079-1.115-1.576.829-3.016 1.507-3.201 1.507-.184 0-.641-2.7-1.015-6-.764-6.76-2.803-8.103-3.847-2.535-.358 1.906-1.086 3.734-1.619 4.063-1.002.62-1.367-.109-2.39-4.778-.81-3.698-2.367-3.466-4.069.607-.771 1.847-3.691 5.103-6.489 7.236-8.122 6.195-8.155 10.894-.067 9.821 4.592-.609 4.899-.493 7.426 2.82 3.252 4.263 3.27 4.766.17 4.766-3.431 0-5.289 3.526-2.613 4.958 1.07.573 2.821 1.042 3.89 1.042s3.668.72 5.775 1.601c3.123 1.305 5.41 1.445 12.372.759 4.698-.462 12.591-.875 17.541-.917 9.815-.084 17.088-1.471 20.941-3.996 1.359-.891 2.941-1.329 3.515-.974 1.773 1.096 1.161 2.281-1.527 2.955-3.088.776-2.725 2.794.645 3.59 3.608.851 3.05 3.422-.823 3.795-1.876.181-3.66 1.082-4.222 2.133-.602 1.124-2.627 2.067-5.306 2.468-2.384.358-5.06 1.499-5.948 2.536-1.045 1.22-3.645 2.14-7.365 2.605-7.436.929-21.79-.091-24.725-1.757-6.344-3.601-8.673-5.438-8.679-6.848-.009-2.22-2.045-3.95-4.649-3.95-1.234 0-2.832-.829-3.55-1.843-1.686-2.378-6.77-3.418-7.493-1.533-.598 1.559-4.314 1.9-4.314.395 0-.539-1.082-1.253-2.405-1.585-5.19-1.302-8.679-8.434-4.126-8.434 2.092 0 1.937-1.915-.219-2.699-.963-.351-3.111-2.137-4.775-3.969-1.664-1.833-3.413-3.332-3.886-3.332-1.759 0-5.322 4.814-4.521 6.11.977 1.581.281 2.89-1.537 2.89-.926 0-1.342-1.335-1.325-4.25.033-5.734-1.665-9.75-4.122-9.75-2.92 0-3.307-1.49-.941-3.616 2.06-1.853 2.12-1.846 3.629.413l1.535 2.298 3.148-3.051c3.108-3.013 3.137-3.129 2.278-9.298-.479-3.435-1.325-7.727-1.881-9.537-.556-1.81-1.054-7.21-1.106-12-.093-8.519.921-13.099 5.862-26.479.765-2.074 1.392-5.336 1.392-7.25 0-2.784.39-3.48 1.95-3.48 1.073 0 2.31-.57 2.75-1.266.44-.696 2.707-2.158 5.039-3.25 2.331-1.091 4.251-2.659 4.268-3.484.031-1.594 7.15-8 8.891-8 .567 0 1.513-.9 2.102-2s1.706-2 2.484-2c.777 0 2.611-1.111 4.076-2.468 1.465-1.357 3.572-2.757 4.684-3.109 1.6-.508 1.733-.824.638-1.517-1.871-1.185-2.944-1.092-5.882.512M177 67c0 .55.675 1 1.5 1s1.5-.45 1.5-1-.675-1-1.5-1-1.5.45-1.5 1m-20.504 3.007c-.343.554.1 1.285.984 1.624 1.914.734 2.981-.075 2.061-1.564-.83-1.344-2.235-1.371-3.045-.06m6.198 3.632c-1.043 1.043.278 2.361 2.365 2.361 2.336 0 2.568-1.545.359-2.393-1.952-.749-1.942-.749-2.724.032m25.007-.007c-1.367 1.367-.673 2.503 1.339 2.188 1.121-.176 2.045-.77 2.052-1.32.017-1.217-2.418-1.84-3.391-.868M174 75.059c0 .582.45.781 1 .441s1-.816 1-1.059-.45-.441-1-.441-1 .477-1 1.059M61.057 77.965C59.366 79.01 60.412 82 62.469 82c.849 0 1.531-.865 1.531-1.941 0-2.382-1.152-3.201-2.943-2.094M168 78.594c0 .876.9 1.829 2 2.116 1.1.288 2 1.286 2 2.219 0 .932 1.332 2.68 2.96 3.883 5.484 4.055 6.997 1.991 2.117-2.889-1.608-1.608-3.355-2.923-3.883-2.923-.529 0-1.196-.9-1.484-2-.619-2.37-3.71-2.708-3.71-.406m23.75 1.489c-2.141 2.345-2.19 3.307-.25 4.917.825.685 1.5 2.09 1.5 3.122 0 1.033.698 1.878 1.552 1.878.854 0 2.042 1.406 2.641 3.124.864 2.477 1.267 2.805 1.95 1.586 1.064-1.903.088-4.71-1.639-4.71-1.58 0-2.801-5.969-1.93-9.44.78-3.108-1.196-3.354-3.824-.477m-101.722 5.03c-2.649 1.058-3.988 2.613-4.013 4.663-.011.976.676.918 2.935-.25 1.623-.839 4.436-1.533 6.25-1.541 3.903-.018 6.331-1.317 5.369-2.873-.836-1.353-7.148-1.353-10.541.001m111.639.554c-1.365 1.364-.598 2.462 1.505 2.153 2.748-.405 3.671-2.82 1.078-2.82-1.054 0-2.217.3-2.583.667M58 92.441c0 1.407.45 2.559 1 2.559s1-.873 1-1.941-.45-2.219-1-2.559c-.567-.351-1 .49-1 1.941m147.667 1.226C204.399 94.934 205.008 96 207 96c1.111 0 2-.667 2-1.5 0-1.522-2.115-2.051-3.333-.833M168.633 96.5c.366 1.65 1.019 3.9 1.452 5 .655 1.663.799 1.484.852-1.059.034-1.682-.619-3.932-1.452-5-1.428-1.829-1.477-1.768-.852 1.059m-69.551.58c-2.142 1.783-2.248 2.182-.928 3.503 2.204 2.204 4.846.737 4.846-2.69 0-3.397-.652-3.532-3.918-.813m33.606-.434c-.379.378-.688 3.015-.688 5.86 0 4.589-.291 5.306-2.579 6.348-3.111 1.418-2.714 3.532.742 3.947 3.599.431 4.592-1.4 4.987-9.201.326-6.43-.54-8.876-2.462-6.954m20.979.021c-.992.991-.807 5.333.226 5.333.997 0 2.107-2.413 2.107-4.582 0-1.492-1.205-1.88-2.333-.751m-100 1c-.967.966-.82 6.333.172 6.333.872 0 3.161-4.379 3.161-6.047 0-1.088-2.332-1.288-3.333-.286M77 99.871c0 3.383 1.04 4.435 3.464 3.504 2.548-.977 1.604-5.794-1.214-6.195-1.906-.27-2.25.141-2.25 2.691m42.626-1.338c-.344.897-.626 3.099-.626 4.894 0 3.234-2.464 6.573-4.85 6.573-.656 0-1.705-1.125-2.332-2.5-.626-1.375-1.445-2.5-1.818-2.5s-1.192 1.125-1.818 2.5c-1.212 2.659-2.634 3.196-3.738 1.41-.401-.65-2.011-.839-3.991-.467-2.554.479-3.543.219-4.297-1.129-.9-1.608-1.15-1.549-3.035.717-2.503 3.008-2.536 3.406-.533 6.464 1.07 1.632 1.371 3.417.921 5.464-.422 1.922-.271 3.041.412 3.041.593 0 1.079-1.039 1.079-2.309 0-3.524 2.119-5.674 6.253-6.345l3.747-.608v4.931c0 5.441-1.218 7.331-4.725 7.331-1.582 0-2.64.829-3.312 2.597-.543 1.428-1.903 2.836-3.023 3.129-1.194.312-1.91 1.204-1.73 2.153.417 2.207 6.585 2.819 7.385.733.32-.833 2.096-2.015 3.946-2.625 4.036-1.332 4.87-3.412 4.667-11.636-.143-5.8-.009-6.184 2.38-6.784 1.392-.349 4.046-.351 5.896-.004 2.981.559 3.531.307 4.831-2.216.806-1.566 1.628-5.311 1.826-8.322.291-4.438.051-5.537-1.265-5.799-.893-.178-1.906.41-2.25 1.307M202 99c0 .55.45 1 1 1s1-.45 1-1-.45-1-1-1-1 .45-1 1m4.345 2.438c-3.732 1.639-4.849 4.361-3.24 7.892 1.637 3.594 3.768 4.135 4.87 1.236.501-1.317 1.862-2.697 3.025-3.066 1.664-.528 2.049-1.342 1.807-3.827-.356-3.661-1.954-4.214-6.462-2.235M84.393 102.5l1.185 2.923c.718 1.771-1.747 3.124-7.393 4.06-4.236.702-4.283.752-2.512 2.709 3.897 4.305 5.603 4.193 14.238-.936.225-.134-.337-1.069-1.25-2.079-.914-1.009-1.661-3.262-1.661-5.006 0-2.246-.469-3.171-1.607-3.171-1.032 0-1.39.537-1 1.5m-35.785 6.38c-1.458 1.612-1.479 1.982-.177 3.063C50.26 113.46 52 112.513 52 110c0-2.735-1.486-3.225-3.392-1.12m91.407.231-2.485 2.09 2.346 1.9c2.92 2.364 3.395 2.362 5.557-.027 4.003-4.424-.742-7.895-5.418-3.963m57.652 4.556c-.964.963-.792 12.588.21 14.168 1.203 1.897 2.092-1.934 2.109-9.085.013-5.319-.644-6.759-2.319-5.083M49 117.5c0 .825-.9 2.4-2 3.5s-2 2.942-2 4.094c0 1.227-.799 2.302-1.931 2.598-2.514.658-3.472 3.216-1.488 3.977 2.589.994 6.637-1.407 5.961-3.536-.346-1.092.08-2.404 1.04-3.201 2.11-1.751 3.518-5.507 2.783-7.423-.748-1.948-2.365-1.954-2.365-.009m83 1.073c0 .932.68 1.442 1.667 1.25 2.509-.486 2.853-2.823.416-2.823-1.228 0-2.083.646-2.083 1.573m34.459 7.494c-.989 1.599.118 2.202 2.598 1.415 1.725-.548 1.905-.892.825-1.576-1.833-1.161-2.63-1.123-3.423.161m-52.209 1.605c-.687.272-1.25 1.407-1.25 2.523 0 1.801.419 1.949 3.75 1.327 2.063-.385 3.945-.893 4.183-1.128 1.285-1.267-4.452-3.604-6.683-2.722M42.401 138.16c-.998 1.615.441 2.216 2.793 1.167l2.212-.987-2.202-.576c-1.211-.317-2.473-.139-2.803.396m167.273 7.248c-.563 1.466.085 2.592 1.493 2.592 1.116 0 1.067-2.737-.062-3.435-.493-.305-1.137.075-1.431.843M.441 179.5c.001 15.95.139 22.335.307 14.189.168-8.146.168-21.196-.001-29-.168-7.804-.306-1.139-.306 14.811m139.485-20.647c-.87 2.903-.871 4.381-.005 6 1.434 2.68 3.744 2.777 4.565.191.691-2.177-1.349-10.044-2.604-10.044-.441 0-1.321 1.734-1.956 3.853m-76.911 6.397c.028 2.251 1.752 4.053 3.306 3.457 2.138-.82.95-4.707-1.438-4.707-1.035 0-1.876.563-1.868 1.25M201 167c0 .55.45 1 1 1s1-.45 1-1-.45-1-1-1-1 .45-1 1m-11.469 1.293c-.428.986-.497 2.074-.155 2.417 1.016 1.015 1.835-.411 1.367-2.382-.414-1.747-.468-1.748-1.212-.035m8.015 3.561c-.328 1.035-1.486 2.686-2.572 3.669-2.107 1.907-2.648 4.477-.943 4.477.568 0 1.326-.787 1.685-1.75s1.469-2.338 2.468-3.057c1.953-1.405 2.394-3.718.888-4.649-.51-.315-1.197.274-1.526 1.31m-78.083 2.011c-1.652 1.004-4.682 2.141-6.733 2.526-2.113.396-3.73 1.283-3.73 2.046 0 3.339 9.541 2.398 14.17-1.397 2.086-1.711 2.171-2.073.813-3.456-1.367-1.394-1.812-1.366-4.52.281m66.08.066c-.317.512-.118 1.213.441 1.559.559.345 1.016-.074 1.016-.931 0-1.757-.6-2.015-1.457-.628M81.5 182c-.34.55-.141 1 .441 1S83 182.55 83 182s-.198-1-.441-1-.719.45-1.059 1m5 5c.34.55.816 1 1.059 1s.441-.45.441-1-.477-1-1.059-1-.781.45-.441 1m-13 3c.34.55.816 1 1.059 1s.441-.45.441-1-.477-1-1.059-1-.781.45-.441 1m108.053-.085a1.116 1.116 0 0 0 .362 1.532c.521.322 1.21.159 1.532-.362a1.116 1.116 0 0 0-.362-1.532 1.116 1.116 0 0 0-1.532.362m-28.478 4.038c-.926.573-.818.932.423 1.408 2.307.885 3.502.799 3.502-.254 0-1.311-2.487-2.042-3.925-1.154m16.629 5.151c.791.791 1.626.799 2.95.03 1.618-.941 1.482-1.077-1.104-1.104-2.151-.022-2.651.269-1.846 1.074m-6.954 3.558c.688.278 1.813.278 2.5 0 .688-.277.125-.504-1.25-.504s-1.937.227-1.25.504m-10.665 4.326c.935.547 2.782.569 4.5.056 2.691-.805 2.569-.876-1.585-.928-3.219-.039-4.049.209-2.915.872m-24.919 1.053c-3.043 1.247-2.287 3.368 1.352 3.794 3.793.443 11.482-.743 11.482-1.771 0-.448-1.298-1.074-2.883-1.391a469.64 469.64 0 0 1-5.25-1.083c-1.302-.278-3.417-.076-4.701.451M114 209.933c0 1.215 3.689 2.377 4.991 1.573 1.979-1.224.96-2.506-1.991-2.506-1.65 0-3 .42-3 .933M.429 233.5c0 12.65.144 17.687.318 11.194.175-6.494.174-16.844-.001-23-.175-6.157-.318-.844-.317 11.806" fill="#1976D2" fill-rule="evenodd"/><path fill-opacity=".632" d="M0 46.5c0 25.575.337 46.498.75 46.497 5.306-.025 24.916-2.455 28.682-3.556C32.144 88.648 35.981 88 37.959 88c4.668 0 7.166-1.842 11.644-8.59 7.839-11.809 23.244-27.196 31.561-31.524 13.977-7.272 24.551-11.216 33.215-12.388 3.935-.532 5.811-1.531 9.696-5.165l4.818-4.506 6.637 1.033c7.293 1.136 9.47 2.369 9.47 5.367 0 1.866.456 1.941 7.883 1.283 5.362-.474 8.101-.345 8.563.403.375.606-.023 1.371-.883 1.701-2.42.929-1.856 2.388 1.357 3.508 1.606.56 3.144 1.603 3.419 2.319.275.716 1.773 1.62 3.33 2.008 1.557.389 3.637 1.433 4.621 2.32 1.299 1.171 4.864 1.809 13 2.324 6.166.391 12.56 1.258 14.21 1.928 12.127 4.919 26.387 6.134 41 3.494 4.4-.795 9.453-1.461 11.229-1.48l3.23-.035.292 20.25c.161 11.138.395-.562.521-26L257 0H0v46.5m.461.5c0 25.575.13 36.038.288 23.25.158-12.787.158-33.712 0-46.5C.591 10.963.461 21.425.461 47M76 58.427c0 .927.855 1.573 2.083 1.573 2.437 0 2.093-2.337-.416-2.823-.987-.192-1.667.318-1.667 1.25m5.345 5.116c-.326.849-.341 1.794-.035 2.1.876.876 2.69-.609 2.69-2.202 0-1.919-1.908-1.845-2.655.102M65 66.5c0 .825.675 1.5 1.5 1.5s1.5-.675 1.5-1.5-.675-1.5-1.5-1.5-1.5.675-1.5 1.5m-5.306 7.139c-.352.352-.412 1.008-.135 1.457.624 1.009 3.441.024 3.441-1.203 0-1.026-2.353-1.207-3.306-.254m10.306.92c0 .857.457 1.276 1.016.931.559-.346.758-1.047.441-1.559C70.6 72.544 70 72.802 70 74.559M86 79c0 .55.423 1 .941 1s1.219-.45 1.559-1c.34-.55-.084-1-.941-1S86 78.45 86 79m-4.062 3.629c-.791 1.101-2.225 2.296-3.188 2.655-2.006.749-2.372 2.725-.5 2.699 1.787-.025 6.004-4.721 5.527-6.153-.257-.77-.92-.482-1.839.799M78 99c0 .55.477 1 1.059 1s.781-.45.441-1-.816-1-1.059-1-.441.45-.441 1m84.158 10c0 1.375.227 1.938.504 1.25.278-.687.278-1.812 0-2.5-.277-.687-.504-.125-.504 1.25m22.092 7.721c-5.516 1.906-5.411 3.279.25 3.279 2.475 0 4.5-.413 4.5-.918 0-.505.273-1.63.607-2.5.705-1.838.334-1.828-5.357.139m21.829 5.862c.048 1.165.285 1.402.604.605.289-.722.253-1.585-.079-1.917-.332-.332-.568.258-.525 1.312m7.471 8.667c-1.116 3.6-1.134 6.85-.043 7.756 2.236 1.856 4.238-2.417 3.634-7.756-.077-.687-.83-1.25-1.672-1.25-.843 0-1.706.563-1.919 1.25m7.45 10.191c0 3.706.435 6.559 1 6.559.554 0 1-2.647 1-5.941 0-3.268-.45-6.219-1-6.559-.628-.388-1 1.823-1 5.941m-15-.941c0 2.475.219 4.5.487 4.5.891 0 3.509-7.198 2.947-8.106-.303-.492-1.2-.894-1.993-.894-1.041 0-1.441 1.249-1.441 4.5m41 4.477c-1.925.411-4.767 1.26-6.315 1.885-1.548.626-4.075 1.138-5.615 1.138s-3.989.935-5.442 2.078c-1.951 1.534-3.417 1.908-5.607 1.427-3.055-.671-5.911 1.329-8.644 6.054-1.088 1.881-1.186 1.885-3.159.118-1.976-1.768-2.056-1.764-2.666.158-.84 2.649-2.763 3.252-6.738 2.112-4.907-1.408-5.814-1.186-5.814 1.418 0 1.301-.9 3.509-2 4.908-1.1 1.398-2 3.03-2 3.626 0 .596-.9 1.646-2 2.333-1.1.687-2.005 1.703-2.01 2.259-.006.555-2.298 3.034-5.092 5.509a512.332 512.332 0 0 0-9.595 8.75c-2.482 2.338-5.032 4.25-5.667 4.25-.635 0-1.696.866-2.357 1.925-.662 1.059-2.197 2.072-3.413 2.25-1.215.179-2.395.888-2.621 1.575-.611 1.855 5.676 1.62 6.389-.239.314-.819 2.373-1.974 4.574-2.567 2.563-.69 5.678-2.78 8.665-5.815 2.564-2.605 5.393-5.017 6.285-5.359.892-.343 2.264-1.893 3.048-3.446 1.938-3.837 4.04-7.335 5.552-9.24 5.664-7.132 7.037-8.377 8.586-7.782 2.258.866 2.084 3.887-.344 5.966-2.363 2.023-2.67 5.732-.475 5.732.838 0 1.952-1.125 2.475-2.5.523-1.375 1.363-2.5 1.868-2.5 1.672 0 1.98 2.677.589 5.107a66.04 66.04 0 0 0-2.429 4.747C203.814 183.557 190.451 197 188.979 197c-.539 0-.979.675-.979 1.5s-.605 1.5-1.345 1.5-2.16.9-3.155 2c-1.897 2.096-5.5 2.735-5.5.975 0-.563 1.064-1.429 2.364-1.923 1.3-.494 2.635-1.608 2.968-2.475.333-.868 1.533-1.577 2.668-1.577 1.135 0 2.347-.787 2.694-1.75.635-1.761 2.323-3.89 5.556-7.007.963-.928 1.75-2.085 1.75-2.571 0-.486 1.15-2.25 2.556-3.921 1.65-1.961 2.213-3.382 1.587-4.008-1.214-1.214-3.143-.1-3.143 1.816 0 .793-.689 1.441-1.531 1.441-.843 0-1.784.658-2.093 1.462-.308.804-1.32 1.703-2.248 1.997-.928.295-2.183 1.847-2.788 3.45-.975 2.584-7.89 8.091-10.16 8.091-.472 0-1.372 1.125-1.998 2.5-.627 1.375-1.979 2.5-3.006 2.5-1.026 0-2.634.848-3.572 1.885-.938 1.037-3.072 2.159-4.741 2.492-4.083.817-3.161 3.174 1.156 2.958 1.837-.092 3.701-.87 4.193-1.75 1.134-2.026 6.788-2.152 6.788-.152 0 .788-1.012 1.749-2.25 2.137-1.238.388-3.323 1.543-4.635 2.568-1.312 1.024-3.169 1.862-4.127 1.862-.959 0-2.293.663-2.966 1.474-.673.81-2.865 1.746-4.872 2.079-2.008.333-5.323 1.236-7.369 2.006-4.916 1.85-29.47 2.423-32.281.752-1.874-1.113-1.761-1.288 1.79-2.78 4.949-2.078 3.887-3.527-2.599-3.546-6.782-.02-8.675-1.144-6.859-4.072.926-1.494 1.014-2.467.287-3.194-.726-.726-1.365-.202-2.096 1.72-.668 1.759-1.566 2.567-2.466 2.221-.778-.298-3.022-.844-4.986-1.213-5.346-1.003-4.531-3.251 1.468-4.047 5.798-.769 6.077-2.383.672-3.899-1.995-.56-4.187-1.577-4.869-2.259-.683-.683-2.506-1.242-4.052-1.242-1.572 0-3.564-.881-4.522-2-.942-1.1-2.412-2-3.268-2-.856 0-2.326-.9-3.268-2-1.831-2.138-4.234-2.614-5.212-1.033-.329.532.32 1.541 1.441 2.241 2.959 1.848 2.656 4.792-.492 4.792-1.393 0-2.787-.664-3.098-1.475-.311-.812-1.971-2.177-3.689-3.034-2.955-1.474-3.209-1.444-4.716.553-1.377 1.826-1.757 1.913-2.811.643-1.61-1.94-7.145-2.697-9.486-1.298-1.526.911-2.134.707-3.386-1.139-.919-1.354-2.574-2.263-4.155-2.282-1.445-.017-3.502-.692-4.569-1.5-2.982-2.255-5.904-1.762-9.059 1.532-1.581 1.65-3.211 3-3.622 3-.412 0-1.309-1.551-1.995-3.446-1.638-4.53-6.041-7.803-9.372-6.967-1.381.346-2.511 1.256-2.511 2.021 0 .766-.675 1.392-1.5 1.392-.997 0-1.5.997-1.5 2.971 0 2.514.501 3.101 3.25 3.811 2.717.701 3.332 1.403 3.75 4.278.434 2.985.935 3.506 3.789 3.94 4.096.623 4.248 1.904.467 3.934-10.072 5.406-18.635 9.253-21.707 9.752L0 214.262V256h127.941c80.771 0 128.16-.354 128.535-.961.327-.529.281-25.729-.102-56L255.678 144l-2.589.115c-1.424.063-4.164.451-6.089.862M146.195 159.5c.02 1.65.244 2.204.498 1.231.254-.973.237-2.323-.037-3-.274-.677-.481.119-.461 1.769m7.226 6.959c-.391 1.557-1.343 2.541-2.458 2.541-1.001 0-2.415.588-3.142 1.306-.726.718-2.112 1.606-3.08 1.972-.967.366-2.277 1.803-2.91 3.194-.634 1.39-1.755 2.528-2.492 2.528-.736 0-1.339.45-1.339 1s.464 1 1.031 1 2.476 1.575 4.243 3.5c2.722 2.966 3.872 3.5 7.541 3.5 2.514 0 4.957-.629 5.828-1.5.825-.825 2.568-1.5 3.873-1.5 1.474 0 4.531-1.99 8.065-5.25 3.13-2.887 6.53-5.838 7.555-6.557 2.218-1.555 2.354-3.141.487-5.694-1.327-1.814-1.499-1.781-4.695.908-2.545 2.142-4.032 2.676-6.388 2.293-2.101-.341-3.812.102-5.416 1.401-2.863 2.318-4.467 2.396-6.204.302-1.118-1.346-1.059-1.746.377-2.549 1.867-1.045 2.263-3.39.732-4.336-.534-.33-1.257.544-1.608 1.941m56.262-1.809c-1.065 1.065-.802 4.35.348 4.35 1.479 0 2.41-2.959 1.285-4.084-.522-.522-1.257-.642-1.633-.266m-24.044 2.044c-.953.953-.772 3.306.254 3.306 1.227 0 2.212-2.817 1.203-3.441-.449-.277-1.105-.217-1.457.135m-68.963 2.111c-2.2 2.431-2.115 3.195.355 3.195 2.281 0 3.743-2.626 2.278-4.091-.608-.608-1.566-.283-2.633.896m9.003-1.094c-.301.486-.183 1.474.262 2.194.615.994.986 1.022 1.547.115.406-.657.288-1.644-.262-2.194-.56-.56-1.241-.61-1.547-.115M181 174.083c0 2.437 2.337 2.093 2.823-.416.192-.987-.318-1.667-1.25-1.667-.927 0-1.573.855-1.573 2.083m-4 4.417c0 .825.675 1.5 1.5 1.5s1.5-.675 1.5-1.5-.675-1.5-1.5-1.5-1.5.675-1.5 1.5m-4.333 3.167c-1.268 1.267-.659 2.333 1.333 2.333 1.111 0 2-.667 2-1.5 0-1.522-2.115-2.051-3.333-.833M101.5 186c-.369.596.843 1 3 1s3.369-.404 3-1c-.34-.55-1.69-1-3-1s-2.66.45-3 1m64.75.25c.229.688 1.242 1.25 2.25 1.25s2.021-.562 2.25-1.25c.264-.792-.561-1.25-2.25-1.25s-2.514.458-2.25 1.25M85 199.5c.685.825 1.865 1.5 2.622 1.5.758 0 1.378.45 1.378 1s.46 1 1.023 1 .286-1.125-.615-2.5-2.541-2.5-3.645-2.5c-1.671 0-1.799.251-.763 1.5m67.5 2.451c-1.791.747-1.824.906-.308 1.526 2.188.895 5.365.279 5.111-.991-.265-1.322-2.356-1.555-4.803-.535m1.167 7.716c-1.546 1.545-.42 2.333 3.333 2.333 2.889 0 4-.417 4-1.5 0-1.033-1.037-1.5-3.333-1.5-1.834 0-3.634.3-4 .667m-56.423 4.583c.226.688 2.063 1.39 4.083 1.56 2.794.236 3.673-.063 3.673-1.25 0-1.159-1.05-1.56-4.083-1.56-2.819 0-3.957.387-3.673 1.25m38.489-.532c-1.522.23-2.508.837-2.191 1.35.737 1.193 14.458 1.23 14.458.039 0-1.928-4.973-2.492-12.267-1.389M.425 235c0 11.825.144 16.662.321 10.75.177-5.912.177-15.588 0-21.5-.177-5.912-.321-1.075-.321 10.75" fill="#1976D2" fill-rule="evenodd"/></svg>